<?xml version="1.0" encoding="utf-8"?>
<!-- Generator: Adobe Illustrator 16.0.4, SVG Export Plug-In . SVG Version: 6.00 Build 0)  -->
<!DOCTYPE svg PUBLIC "-//W3C//DTD SVG 1.1//EN" "http://www.w3.org/Graphics/SVG/1.1/DTD/svg11.dtd">
<svg version="1.1" xmlns="http://www.w3.org/2000/svg" xmlns:xlink="http://www.w3.org/1999/xlink" x="0px" y="0px"
	 width="93.993px" height="94.993px" viewBox="0 0 93.993 94.993" enable-background="new 0 0 93.993 94.993" xml:space="preserve">
<g id="tile">
	<g id="tile_x5F_group">
		<path id="shadow" fill="#666666" d="M0,90.343c0,2.567,2.082,4.649,4.65,4.649c27.898,0,55.795,0,83.693,0
			c2.568,0,4.65-2.082,4.65-4.649c0-27.897,0-55.795,0-83.693c0-2.567-2.082-4.649-4.65-4.649C60.445,2,32.548,2,4.65,2
			C2.082,2,0,4.083,0,6.65C0,34.548,0,62.446,0,90.343z"/>
		<path id="surface" fill="#CCCCCC" d="M1,88.343c0,2.567,2.082,4.649,4.65,4.649c27.898,0,55.795,0,83.693,0
			c2.568,0,4.65-2.082,4.65-4.649c0-27.897,0-55.795,0-83.693c0-2.567-2.082-4.649-4.65-4.649C61.445,0,33.548,0,5.65,0
			C3.082,0,1,2.083,1,4.65C1,32.548,1,60.446,1,88.343z"/>
	</g>
</g>
<g id="X">
	<path fill="#999999" d="M24.53,76.038c-0.672,0.674-1.289,0.844-2.211,0.611c-0.857-0.216-1.293-0.828-1.849-1.383
		c-0.486-0.486-2.871-2.725-3.1-3.5c-0.528-1.787,1.264-2.982,2.198-3.916c1.118-1.118,2.237-2.236,3.355-3.355
		c4.473-4.473,8.946-8.945,13.42-13.42c0.559-0.559,1.118-1.117,1.677-1.677c0.55-0.55,1.181-1.001,1.602-1.695
		c0.505-0.833,0.518-1.481,0.045-2.333c-0.398-0.718-1.032-1.159-1.582-1.709c-2.237-2.237-4.473-4.474-6.71-6.71
		c-4.473-4.474-8.946-8.946-13.419-13.42c-0.672-0.673-0.843-1.289-0.611-2.212c0.216-0.856,0.828-1.293,1.383-1.849
		c0.486-0.486,2.725-2.871,3.5-3.101c1.787-0.528,2.982,1.265,3.916,2.198c1.118,1.118,2.236,2.236,3.355,3.354
		c4.473,4.474,8.946,8.946,13.419,13.42c0.559,0.56,1.119,1.118,1.678,1.678c0.55,0.55,1.001,1.181,1.696,1.602
		c0.833,0.505,1.481,0.518,2.333,0.045c0.717-0.397,1.159-1.032,1.709-1.582c2.237-2.236,4.473-4.473,6.71-6.71
		c4.473-4.473,8.946-8.946,13.42-13.419c0.672-0.673,1.289-0.843,2.211-0.611c0.857,0.216,1.293,0.828,1.849,1.384
		c0.486,0.486,2.871,2.725,3.101,3.499c0.528,1.787-1.264,2.982-2.198,3.916c-1.118,1.118-2.237,2.237-3.355,3.355
		c-4.473,4.473-8.946,8.946-13.42,13.42c-0.559,0.559-1.118,1.118-1.677,1.677c-0.55,0.551-1.181,1.002-1.602,1.696
		c-0.505,0.832-0.518,1.481-0.045,2.333c0.398,0.717,1.032,1.159,1.582,1.708c2.237,2.237,4.473,4.475,6.71,6.711
		c4.473,4.473,8.946,8.945,13.419,13.42c0.673,0.672,0.843,1.289,0.611,2.211c-0.216,0.857-0.828,1.293-1.383,1.85
		c-0.486,0.486-2.725,2.871-3.5,3.1c-1.787,0.529-2.982-1.264-3.916-2.197c-1.118-1.119-2.236-2.237-3.355-3.355
		c-4.473-4.473-8.946-8.946-13.419-13.42c-0.559-0.559-1.119-1.118-1.678-1.678c-0.55-0.55-1.002-1.18-1.696-1.602
		c-0.833-0.504-1.481-0.518-2.333-0.045c-0.717,0.398-1.159,1.032-1.709,1.582c-2.237,2.236-4.473,4.473-6.71,6.71
		C33.477,67.092,29.004,71.565,24.53,76.038z"/>
</g>
<g id="O" display="none">
	<path display="inline" fill="#999999" d="M77.719,46.497c0,16.691-13.531,30.223-30.223,30.223S17.274,63.188,17.274,46.497
		s13.531-30.223,30.223-30.223S77.719,29.805,77.719,46.497z M68.42,46.497c0-11.556-9.368-20.923-20.923-20.923
		s-20.923,9.367-20.923,20.923S35.941,67.42,47.497,67.42S68.42,58.052,68.42,46.497z"/>
</g>
</svg>
