<?xml version="1.0" encoding="utf-8"?>
<!-- Generator: Adobe Illustrator 16.0.4, SVG Export Plug-In . SVG Version: 6.00 Build 0)  -->
<!DOCTYPE svg PUBLIC "-//W3C//DTD SVG 1.1//EN" "http://www.w3.org/Graphics/SVG/1.1/DTD/svg11.dtd">
<svg version="1.1" id="svg2298" xmlns:svg="http://www.w3.org/2000/svg"
	 xmlns="http://www.w3.org/2000/svg" xmlns:xlink="http://www.w3.org/1999/xlink" x="0px" y="0px" width="500px" height="500px"
	 viewBox="-549.5 300.5 500 500" enable-background="new -549.5 300.5 500 500" xml:space="preserve">
<g id="layer1">
	<path id="path2306" fill="none" stroke="#000000" stroke-width="0.8687" d="M-538.477,311.32h478.107"/>
	<path id="path2308" fill="none" stroke="#000000" stroke-width="1.7375" d="M-538.477,355.17h478.107"/>
	<path id="path2310" fill="none" stroke="#000000" stroke-width="0.8687" d="M-538.477,399.02h478.107"/>
	<path id="path2312" fill="none" stroke="#000000" stroke-width="0.8687" d="M-538.477,442.412h478.107"/>
	<path id="path2314" fill="none" stroke="#000000" stroke-width="0.8687" d="M-538.477,485.805h478.107"/>
	<path id="path2316" fill="none" stroke="#000000" stroke-width="0.8687" d="M-538.477,529.196h478.107"/>
	<path id="path2318" fill="none" stroke="#000000" stroke-width="0.8687" d="M-538.477,572.588h478.107"/>
	<path id="path2320" fill="none" stroke="#000000" stroke-width="0.8687" d="M-538.477,615.98h478.107"/>
	<path id="path2322" fill="none" stroke="#000000" stroke-width="0.8687" d="M-538.477,659.373h478.107"/>
	<path id="path2324" fill="none" stroke="#000000" stroke-width="0.8687" d="M-538.477,702.765h478.107"/>
	<path id="path2326" fill="none" stroke="#000000" stroke-width="0.8687" d="M-538.477,746.156h478.107"/>
	<path id="path2328" fill="none" stroke="#000000" stroke-width="1.7375" d="M-538.477,790.006h478.107"/>
	<g id="g4282" transform="matrix(0,-0.8260977,0.9154147,0,-267.65963,547.39517)">
		<path id="path4284" fill="none" stroke="#000000" d="M-293.758-296.484h580"/>
		<path id="path4286" fill="none" stroke="#000000" stroke-width="2" d="M-293.758-248.587h580"/>
		<path id="path4288" fill="none" stroke="#000000" d="M-293.758-200.691h580"/>
		<path id="path4290" fill="none" stroke="#000000" d="M-293.758-153.295h580"/>
		<path id="path4292" fill="none" stroke="#000000" d="M-293.758-105.899h580"/>
		<path id="path4294" fill="none" stroke="#000000" d="M-293.758-58.503h580"/>
		<path id="path4296" fill="none" stroke="#000000" d="M-293.758-11.107h580"/>
		<path id="path4298" fill="none" stroke="#000000" d="M-293.758,36.289h580"/>
		<path id="path4300" fill="none" stroke="#000000" d="M-293.758,83.685h580"/>
		<path id="path4302" fill="none" stroke="#000000" d="M-293.758,131.081h580"/>
		<path id="path4304" fill="none" stroke="#000000" d="M-293.758,178.477h580"/>
		<path id="path4306" fill="none" stroke="#000000" stroke-width="2" d="M-293.758,226.374h580"/>
	</g>
	<text transform="matrix(1 0 0 1 -480.8711 342.5048)" font-family="'Arial-BoldMT'" font-size="18.3083">A</text>
	<text transform="matrix(1 0 0 1 -437.1509 342.3935)" font-family="'Arial-BoldMT'" font-size="18.3083">B</text>
	<text transform="matrix(1 0 0 1 -393.0371 342.5234)" font-family="'Arial-BoldMT'" font-size="18.3083">C</text>
	<text transform="matrix(1 0 0 1 -350.041 342.6718)" font-family="'Arial-BoldMT'" font-size="18.3083">D</text>
	<text transform="matrix(1 0 0 1 -304.7388 342.5605)" font-family="'Arial-BoldMT'" font-size="18.3083">E</text>
	<text transform="matrix(1 0 0 1 -260.2812 342.4492)" font-family="'Arial-BoldMT'" font-size="18.3083">F</text>
	<text transform="matrix(1 0 0 1 -217.5127 342.579)" font-family="'Arial-BoldMT'" font-size="18.3083">G</text>
	<text transform="matrix(1 0 0 1 -173.5469 342.7275)" font-family="'Arial-BoldMT'" font-size="18.3083">H</text>
	<text transform="matrix(1 0 0 1 -125.3706 342.6161)" font-family="'Arial-BoldMT'" font-size="18.3083">I</text>
	<text transform="matrix(1 0 0 1 -84.6269 342.5048)" font-family="'Arial-BoldMT'" font-size="18.3083">L</text>
	<text transform="matrix(1 0 0 1 -523.8452 383.0449)" font-family="'Arial-BoldMT'" font-size="18.3083">1</text>
	<text transform="matrix(1 0 0 1 -523.4385 426.83)" font-family="'Arial-BoldMT'" font-size="18.3083">2</text>
	<text transform="matrix(1 0 0 1 -523.6489 470.3652)" font-family="'Arial-BoldMT'" font-size="18.3083">3</text>
	<text transform="matrix(1 0 0 1 -523.6177 514.039)" font-family="'Arial-BoldMT'" font-size="18.3083">4</text>
	<text transform="matrix(1 0 0 1 -523.5908 557.5742)" font-family="'Arial-BoldMT'" font-size="18.3083">5</text>
	<text transform="matrix(1 0 0 1 -523.7471 601.3593)" font-family="'Arial-BoldMT'" font-size="18.3083">6</text>
	<text transform="matrix(1 0 0 1 -523.6533 645.0331)" font-family="'Arial-BoldMT'" font-size="18.3083">7</text>
	<text transform="matrix(1 0 0 1 -523.6802 688.6894)" font-family="'Arial-BoldMT'" font-size="18.3083">8</text>
	<text transform="matrix(1 0 0 1 -523.6177 732.3544)" font-family="'Arial-BoldMT'" font-size="18.3083">9</text>
	<text transform="matrix(1 0 0 1 -529.9111 776.0185)" font-family="'Arial-BoldMT'" font-size="18.3083">10</text>
	
		<rect id="rect4408" x="-492.967" y="358.197" fill="#B3B3B3" fill-opacity="0.502" stroke="#000000" stroke-width="1.8308" stroke-linecap="round" width="83.041" height="38.252"/>
	
		<rect id="rect4410" x="-361.213" y="359.506" fill="#B3B3B3" fill-opacity="0.502" stroke="#000000" stroke-width="1.8308" stroke-linecap="round" width="37.924" height="122.927"/>
	
		<rect id="rect4412" x="-232.401" y="358.852" fill="#B3B3B3" fill-opacity="0.502" stroke="#000000" stroke-width="1.8308" stroke-linecap="round" width="168.698" height="37.924"/>
	
		<rect id="rect4414" x="-101.628" y="446.47" fill="#B3B3B3" fill-opacity="0.502" stroke="#000000" stroke-width="1.8308" stroke-linecap="round" width="38.578" height="79.772"/>
	
		<rect id="rect4416" x="-276.211" y="445.162" fill="#B3B3B3" fill-opacity="0.502" stroke="#000000" stroke-width="1.8308" stroke-linecap="round" width="126.197" height="38.578"/>
	
		<rect id="rect4418" x="-101.628" y="574.628" fill="#B3B3B3" fill-opacity="0.502" stroke="#000000" stroke-width="1.8308" stroke-linecap="round" width="38.578" height="125.542"/>
	
		<rect id="rect4420" x="-275.557" y="575.935" fill="#B3B3B3" fill-opacity="0.502" stroke="#000000" stroke-width="1.8308" stroke-linecap="round" width="38.578" height="81.08"/>
	
		<rect id="rect4422" x="-319.366" y="748.557" fill="#B3B3B3" fill-opacity="0.502" stroke="#000000" stroke-width="1.8308" stroke-linecap="round" width="256.316" height="39.232"/>
	
		<rect id="rect4424" x="-491.987" y="446.47" fill="#B3B3B3" fill-opacity="0.502" stroke="#000000" stroke-width="1.8308" stroke-linecap="round" width="37.924" height="166.083"/>
	
		<rect id="rect4426" x="-492.641" y="662.246" fill="#B3B3B3" fill-opacity="0.502" stroke="#000000" stroke-width="1.8308" stroke-linecap="round" width="83.042" height="38.578"/>
	<g id="g5401" transform="matrix(0.9154147,0,0,0.9154147,-105.95355,-293.63014)">
		<path id="path4428" fill="none" stroke="#000000" stroke-width="3" d="M-368.846,955.628l25.715,29.286"/>
		<path id="path4430" fill="none" stroke="#000000" stroke-width="3" d="M-340.989,957.771L-369.56,984.2"/>
	</g>
	<g id="g7365" transform="matrix(0.9154147,0,0,0.9154147,66.966941,-338.94086)">
		<path id="path7367" fill="none" stroke="#000000" stroke-width="3" d="M-368.845,955.628l25.714,29.286"/>
		<path id="path7369" fill="none" stroke="#000000" stroke-width="3" d="M-340.989,957.771l-28.571,26.428"/>
	</g>
	<g id="g7371" transform="matrix(0.9154147,0,0,0.9154147,110.42824,-335.24202)">
		<path id="path7373" fill="none" stroke="#000000" stroke-width="3" d="M-368.846,955.628l25.714,29.286"/>
		<path id="path7375" fill="none" stroke="#000000" stroke-width="3" d="M-340.988,957.771l-28.571,26.429"/>
	</g>
	<g id="g7377" transform="matrix(0.9154147,0,0,0.9154147,-105.95354,-206.70754)">
		<path id="path7379" fill="none" stroke="#000000" stroke-width="3" d="M-368.846,955.628l25.715,29.286"/>
		<path id="path7381" fill="none" stroke="#000000" stroke-width="3" d="M-340.989,957.771L-369.56,984.2"/>
	</g>
	<g id="g7383" transform="matrix(0.9154147,0,0,0.9154147,-150.33955,-204.85813)">
		<path id="path7385" fill="none" stroke="#000000" stroke-width="3" d="M-368.846,955.628l25.714,29.286"/>
		<path id="path7387" fill="none" stroke="#000000" stroke-width="3" d="M-340.989,957.771L-369.56,984.2"/>
	</g>
	<g id="g7389" transform="matrix(0.9154147,0,0,0.9154147,241.73684,-293.63014)">
		<path id="path7391" fill="none" stroke="#000000" stroke-width="3" d="M-368.846,955.628l25.714,29.286"/>
		<path id="path7393" fill="none" stroke="#000000" stroke-width="3" d="M-340.989,957.771l-28.571,26.429"/>
	</g>
	<g id="g7395" transform="matrix(0.9154147,0,0,0.9154147,245.43568,-251.09355)">
		<path id="path7397" fill="none" stroke="#000000" stroke-width="3" d="M-368.845,955.628l25.714,29.286"/>
		<path id="path7399" fill="none" stroke="#000000" stroke-width="3" d="M-340.988,957.77l-28.572,26.429"/>
	</g>
	<g id="g7401" transform="matrix(0.9154147,0,0,0.9154147,152.96483,-202.084)">
		<path id="path7403" fill="none" stroke="#000000" stroke-width="3" d="M-368.845,955.628l25.714,29.286"/>
		<path id="path7405" fill="none" stroke="#000000" stroke-width="3" d="M-340.989,957.771l-28.571,26.429"/>
	</g>
	<g id="g7407" transform="matrix(0.9154147,0,0,0.9154147,153.88954,-290.85602)">
		<path id="path7409" fill="none" stroke="#000000" stroke-width="3" d="M-368.846,955.628l25.715,29.286"/>
		<path id="path7411" fill="none" stroke="#000000" stroke-width="3" d="M-340.989,957.771L-369.56,984.2"/>
	</g>
	<g id="g7413" transform="matrix(0.9154147,0,0,0.9154147,-61.567538,-378.70332)">
		<path id="path7415" fill="none" stroke="#000000" stroke-width="3" d="M-368.846,955.628l25.714,29.286"/>
		<path id="path7417" fill="none" stroke="#000000" stroke-width="3" d="M-340.988,957.771l-28.572,26.429"/>
	</g>
	<g id="g7419" transform="matrix(0.9154147,0,0,0.9154147,-19.030948,-251.09355)">
		<path id="path7421" fill="none" stroke="#000000" stroke-width="3" d="M-368.846,955.628l25.714,29.286"/>
		<path id="path7423" fill="none" stroke="#000000" stroke-width="3" d="M-340.988,957.77l-28.572,26.429"/>
	</g>
</g>
</svg>
