<?xml version="1.0" encoding="utf-8"?>
<!-- Generator: Adobe Illustrator 16.0.4, SVG Export Plug-In . SVG Version: 6.00 Build 0)  -->
<!DOCTYPE svg PUBLIC "-//W3C//DTD SVG 1.1//EN" "http://www.w3.org/Graphics/SVG/1.1/DTD/svg11.dtd">
<svg version="1.1"
	 id="svg2" xmlns:dc="http://purl.org/dc/elements/1.1/" xmlns:cc="http://creativecommons.org/ns#" xmlns:rdf="http://www.w3.org/1999/02/22-rdf-syntax-ns#" xmlns:svg="http://www.w3.org/2000/svg" xmlns:sodipodi="http://sodipodi.sourceforge.net/DTD/sodipodi-0.dtd" xmlns:inkscape="http://www.inkscape.org/namespaces/inkscape" sodipodi:docname="penjat8.svg" inkscape:version="0.48.0 r9654"
	 xmlns="http://www.w3.org/2000/svg" xmlns:xlink="http://www.w3.org/1999/xlink" x="0px" y="0px" width="300px" height="300px"
	 viewBox="-470.928 295.5 300 300" enable-background="new -470.928 295.5 300 300" xml:space="preserve">
<sodipodi:namedview  inkscape:cy="203.19188" inkscape:cx="170.07378" inkscape:zoom="1.4142136" borderopacity="1.0" bordercolor="#666666" pagecolor="#ffffff" id="base" inkscape:window-maximized="1" fit-margin-bottom="0" fit-margin-right="0" inkscape:window-y="24" inkscape:window-x="0" inkscape:window-height="691" inkscape:window-width="1366" inkscape:current-layer="capa1" inkscape:pageopacity="0.0" inkscape:document-units="px" inkscape:pageshadow="2" fit-margin-top="0" fit-margin-left="0" showgrid="false">
	</sodipodi:namedview>
<g id="capa1" transform="translate(-140,-375.21933)" inkscape:label="Capa 1" inkscape:groupmode="layer">
	<rect id="rect2985" x="-256.071" y="912.148" width="201.429" height="15.714"/>
	<rect id="rect3818" x="-256.071" y="710.719" width="15.714" height="201.429"/>
	<rect id="rect3839" x="-256.071" y="710.732" width="161.83" height="15.714"/>
	
		<rect id="rect3839-7" x="-263.398" y="741.902" transform="matrix(-0.7071 0.7071 -0.7071 -0.7071 157.1307 1427.7073)" width="92.557" height="8.988"/>
	<rect id="rect3818-8" x="-114.427" y="717.926" width="9.802" height="40.916"/>
	
		<path id="path3980" sodipodi:rx="27.577164" sodipodi:ry="27.577164" sodipodi:cx="185.26198" sodipodi:cy="117.46594" sodipodi:type="arc" d="
		M-86.382,770.682c0,12.888-10.447,23.335-23.335,23.335c-12.887,0-23.334-10.447-23.334-23.335
		c0-12.887,10.447-23.334,23.334-23.334C-96.829,747.348-86.382,757.796-86.382,770.682z"/>
	<rect id="rect3818-88" x="-114.202" y="783.688" width="8.644" height="71.32"/>
	<polygon id="rect3839-7-5" points="-159.519,891.949 -112.118,842.614 -107.515,847.405 -154.917,896.739 	"/>
	<polygon id="rect3839-7-5-4" inkscape:transform-center-y="-41.7193" inkscape:transform-center-x="27.062697" points="
		-66.395,895.555 -115.73,848.153 -110.939,843.551 -61.604,890.952 	">
	</polygon>
</g>
</svg>
