<?xml version="1.0" encoding="utf-8"?>
<!-- Generator: Adobe Illustrator 16.0.4, SVG Export Plug-In . SVG Version: 6.00 Build 0)  -->
<!DOCTYPE svg PUBLIC "-//W3C//DTD SVG 1.1//EN" "http://www.w3.org/Graphics/SVG/1.1/DTD/svg11.dtd">
<svg version="1.1" id="Layer_1" xmlns="http://www.w3.org/2000/svg" xmlns:xlink="http://www.w3.org/1999/xlink" x="0px" y="0px"
	 width="320px" height="320px" viewBox="-459.5 300.5 320 320" enable-background="new -459.5 300.5 320 320" xml:space="preserve">
<path d="M-177.95,409.678h-47.929v10.438h47.929c7.352,0,13.252,5.811,13.252,13.253v86.053c0,7.353-5.81,13.253-13.252,13.253
	h-26.144v30.772l-27.686-27.686l-3.086-3.087h-101.393c-7.353,0-13.253-5.81-13.253-13.253V499.18l-10.348,10.348v9.804
	c0,13.253,10.802,23.692,23.692,23.692h97.126l45.478,45.477v-45.477h15.704c13.252,0,23.691-10.803,23.691-23.692v-86.053
	C-154.259,420.389-164.698,409.678-177.95,409.678z M-354.322,485.836h91.862c13.253,0,23.692-10.802,23.692-23.691v-86.053
	c0-13.253-10.802-23.691-23.692-23.691h-158.58c-13.253,0.091-23.692,10.802-23.692,23.691v86.053
	c0,13.253,10.802,23.691,23.692,23.691h20.878v45.478L-354.322,485.836z"/>
</svg>
