<?xml version="1.0" encoding="utf-8"?>
<!-- Generator: Adobe Illustrator 16.0.4, SVG Export Plug-In . SVG Version: 6.00 Build 0)  -->
<!DOCTYPE svg PUBLIC "-//W3C//DTD SVG 1.1//EN" "http://www.w3.org/Graphics/SVG/1.1/DTD/svg11.dtd">
<svg version="1.1" id="Layer_1" xmlns="http://www.w3.org/2000/svg" xmlns:xlink="http://www.w3.org/1999/xlink" x="0px" y="0px"
	 width="560px" height="140px" viewBox="0 0 560 140" enable-background="new 0 0 560 140" xml:space="preserve">
<g>
	<path fill="#333333" d="M9.927,45.602v-0.152c0-15.494,12.746-27.858,29.232-27.858c16.486,0,29.08,12.212,29.08,27.706v0.153
		c0,15.494-12.746,27.858-29.232,27.858C22.52,73.307,9.927,61.095,9.927,45.602z M50.226,45.602v-0.152
		c0-6.335-4.35-12.06-11.219-12.06c-6.793,0-11.067,5.648-11.067,11.907v0.153c0,6.335,4.351,12.059,11.22,12.059
		C45.952,57.508,50.226,51.86,50.226,45.602z"/>
	<path fill="#333333" d="M72.666,30.489h17.326v5.801c2.671-3.435,6.869-6.793,12.746-6.793c8.777,0,14.272,5.801,14.272,15.189
		v27.477H99.684V50.257c0-3.587-2.137-5.648-4.732-5.648c-2.595,0-4.961,2.061-4.961,5.648v21.905H72.666V30.489z"/>
	<path fill="#333333" d="M120.596,51.555v-0.153c0-12.441,8.93-21.905,21.447-21.905c14.807,0,21.676,10.304,21.676,22.974
		c0,0.916,0,1.984-0.076,2.9h-26.79c1.221,3.663,4.122,5.571,7.861,5.571c3.129,0,5.725-1.45,8.472-4.274l9.312,7.403
		c-4.122,5.343-9.999,9.083-19.005,9.083C129.832,73.155,120.596,64.53,120.596,51.555z M147.92,47.739
		c-0.381-3.969-2.748-6.259-5.801-6.259c-2.9,0-4.961,2.442-5.495,6.259H147.92z"/>
	<path fill="#333333" d="M167.993,18.735h26.103c9.464,0,15.494,2.366,19.234,6.106c3.206,3.206,4.885,7.175,4.885,12.67v0.153
		c0,7.785-4.045,13.204-10.533,16.333l12.441,18.165h-20.379l-10.075-15.265h-3.816v15.265h-17.86V18.735z M193.562,44.151
		c4.274,0,6.869-1.908,6.869-5.19v-0.153c0-3.435-2.671-5.114-6.792-5.114h-7.785v10.457H193.562z"/>
	<path fill="#333333" d="M220.047,51.479v-0.152c0-11.754,9.77-21.829,23.508-21.829c13.662,0,23.355,9.922,23.355,21.676v0.153
		c0,11.753-9.77,21.829-23.508,21.829C229.74,73.155,220.047,63.233,220.047,51.479z M250.271,51.479v-0.152
		c0-4.122-3.053-7.404-6.869-7.404c-3.893,0-6.717,3.282-6.717,7.251v0.153c0,4.122,3.053,7.403,6.87,7.403
		C247.447,58.729,250.271,55.448,250.271,51.479z"/>
	<path fill="#333333" d="M270.803,30.489h17.326v5.114c2.824-3.053,6.029-6.106,12.364-6.106c10.075,0,17.937,8.777,17.937,21.523
		v0.153c0,13.204-7.938,21.981-17.784,21.981c-6.335,0-9.846-2.748-12.517-5.725v16.944h-17.326V30.489z M301.638,51.402V51.25
		c0-4.198-2.977-7.479-6.946-7.479c-3.969,0-6.945,3.282-6.945,7.479v0.153c0,4.122,2.977,7.48,6.945,7.48
		C298.661,58.882,301.638,55.6,301.638,51.402z"/>
	<path fill="#333333" d="M321.1,51.555v-0.153c0-12.441,8.93-21.905,21.448-21.905c14.807,0,21.676,10.304,21.676,22.974
		c0,0.916,0,1.984-0.076,2.9h-26.79c1.221,3.663,4.122,5.571,7.861,5.571c3.129,0,5.725-1.45,8.472-4.274l9.312,7.403
		c-4.121,5.343-9.998,9.083-19.004,9.083C330.335,73.155,321.1,64.53,321.1,51.555z M348.425,47.739
		c-0.382-3.969-2.748-6.259-5.801-6.259c-2.9,0-4.961,2.442-5.496,6.259H348.425z"/>
	<path fill="#333333" d="M366.59,54.608h17.707v17.555H366.59V54.608z"/>
	<path fill="#333333" d="M385.978,51.555v-0.153c0-11.678,9.158-21.829,22.744-21.829c9.159,0,15.646,4.732,18.853,11.525
		l-12.441,7.022c-1.45-2.671-3.281-4.198-6.105-4.198c-3.664,0-6.411,3.206-6.411,7.327v0.153c0,4.35,2.747,7.48,6.182,7.48
		c3.054,0,4.809-1.526,6.488-4.198l12.593,7.175c-3.739,6.945-10.074,11.372-19.997,11.372
		C395.213,73.231,385.978,63.233,385.978,51.555z"/>
	<path fill="#333333" d="M428.107,51.479v-0.152c0-11.754,9.77-21.829,23.508-21.829c13.662,0,23.355,9.922,23.355,21.676v0.153
		c0,11.753-9.77,21.829-23.509,21.829C437.8,73.155,428.107,63.233,428.107,51.479z M458.332,51.479v-0.152
		c0-4.122-3.054-7.404-6.87-7.404c-3.893,0-6.716,3.282-6.716,7.251v0.153c0,4.122,3.053,7.403,6.869,7.403
		C455.508,58.729,458.332,55.448,458.332,51.479z"/>
	<path fill="#333333" d="M478.862,30.489h17.326v5.572c2.671-3.435,6.869-6.564,12.594-6.564c5.647,0,9.998,2.442,12.288,6.869
		c3.511-3.969,7.708-6.869,14.12-6.869c8.93,0,14.425,5.801,14.425,15.189v27.477H532.29V50.105c0-3.511-2.062-5.496-4.58-5.496
		s-4.809,1.984-4.809,5.496v22.058h-17.325V50.105c0-3.511-2.061-5.496-4.579-5.496c-2.52,0-4.809,1.984-4.809,5.496v22.058h-17.326
		V30.489z"/>
</g>
<g>
	<path fill="#333333" d="M120.233,101.946h1.764l10.115,14.902l10.115-14.902h1.764v25.198h-1.872v-21.886l-9.971,14.507h-0.144
		l-9.971-14.507v21.886h-1.8V101.946z"/>
	<path fill="#333333" d="M150.726,120.016v-11.23h1.764v10.906c0,3.78,2.124,6.264,5.831,6.264c3.6,0,6.372-2.736,6.372-6.552
		v-10.618h1.764v18.358h-1.764v-3.42c-1.224,2.16-3.276,3.852-6.624,3.852C153.425,127.575,150.726,124.408,150.726,120.016z"/>
	<path fill="#333333" d="M173.405,100.867h1.764v26.277h-1.764V100.867z"/>
	<path fill="#333333" d="M183.088,122.428v-12.023h-2.664v-1.619h2.664v-5.867h1.764v5.867h6.443v1.619h-6.443v11.843
		c0,2.628,1.548,3.563,3.672,3.563c0.9,0,1.656-0.18,2.7-0.647v1.655c-0.936,0.433-1.836,0.648-2.988,0.648
		C185.392,127.468,183.088,125.92,183.088,122.428z"/>
	<path fill="#333333" d="M196.553,101.586h2.195v2.411h-2.195V101.586z M196.769,108.786h1.764v18.358h-1.764V108.786z"/>
	<path fill="#333333" d="M205.48,108.786h1.764v4.104c1.584-2.412,3.923-4.536,7.559-4.536c4.427,0,8.927,3.563,8.927,9.539v0.072
		c0,5.976-4.5,9.611-8.927,9.611c-3.671,0-6.047-2.088-7.559-4.392v9.719h-1.764V108.786z M221.822,118.037v-0.072
		c0-4.823-3.348-7.919-7.199-7.919c-3.815,0-7.487,3.203-7.487,7.883V118c0,4.715,3.671,7.883,7.487,7.883
		C218.618,125.884,221.822,122.968,221.822,118.037z"/>
	<path fill="#333333" d="M229.492,100.867h1.764v26.277h-1.764V100.867z"/>
	<path fill="#333333" d="M236.692,121.816v-0.072c0-3.816,3.275-5.976,8.027-5.976c2.556,0,4.319,0.324,6.083,0.792v-0.792
		c0-3.707-2.268-5.615-6.047-5.615c-2.232,0-4.068,0.612-5.759,1.477l-0.648-1.548c2.016-0.937,3.996-1.584,6.515-1.584
		c2.483,0,4.463,0.684,5.795,2.016c1.224,1.224,1.872,2.916,1.872,5.184v11.447h-1.728v-3.06c-1.26,1.764-3.527,3.491-7.019,3.491
		C240.363,127.575,236.692,125.632,236.692,121.816z M250.838,120.268v-2.088c-1.548-0.396-3.6-0.828-6.227-0.828
		c-3.888,0-6.047,1.728-6.047,4.285v0.071c0,2.664,2.52,4.212,5.327,4.212C247.634,125.92,250.838,123.616,250.838,120.268z"/>
	<path fill="#333333" d="M272.51,108.786h1.943l-7.955,19.005c-1.62,3.852-3.492,5.22-6.12,5.22c-1.404,0-2.412-0.252-3.635-0.792
		l0.612-1.548c0.972,0.468,1.764,0.685,3.132,0.685c1.908,0,3.167-1.116,4.535-4.32l-8.819-18.25h2.052l7.631,16.415L272.51,108.786
		z"/>
	<path fill="#333333" d="M276.976,118v-0.072c0-5.327,3.743-9.575,8.711-9.575c5.147,0,8.423,4.176,8.423,9.611
		c0,0.324,0,0.432-0.036,0.72h-15.226c0.324,4.572,3.6,7.236,7.199,7.236c2.844,0,4.787-1.26,6.299-2.88l1.224,1.08
		c-1.872,2.016-4.067,3.455-7.595,3.455C281.151,127.575,276.976,123.724,276.976,118z M292.202,117.1
		c-0.252-3.707-2.376-7.127-6.587-7.127c-3.635,0-6.443,3.06-6.767,7.127H292.202z"/>
	<path fill="#333333" d="M299.259,108.786h1.764v5.219c1.44-3.275,4.5-5.651,8.135-5.507v1.943h-0.18
		c-4.248,0-7.955,3.204-7.955,9.179v7.524h-1.764V108.786z"/>
	<path fill="#333333" d="M323.739,114.617v-0.072c0-6.803,4.932-13.03,12.455-13.03c4.104,0,6.695,1.224,9.215,3.312l-1.224,1.404
		c-1.98-1.729-4.284-3.023-8.099-3.023c-6.119,0-10.403,5.183-10.403,11.266v0.072c0,6.516,4.068,11.375,10.799,11.375
		c3.204,0,6.191-1.332,8.027-2.88v-7.236h-8.423v-1.728h10.223v9.719c-2.268,2.016-5.795,3.779-9.899,3.779
		C328.455,127.575,323.739,121.708,323.739,114.617z"/>
	<path fill="#333333" d="M351.531,121.816v-0.072c0-3.816,3.275-5.976,8.027-5.976c2.556,0,4.319,0.324,6.083,0.792v-0.792
		c0-3.707-2.268-5.615-6.047-5.615c-2.232,0-4.068,0.612-5.759,1.477l-0.648-1.548c2.016-0.937,3.996-1.584,6.515-1.584
		c2.483,0,4.463,0.684,5.795,2.016c1.224,1.224,1.872,2.916,1.872,5.184v11.447h-1.728v-3.06c-1.26,1.764-3.527,3.491-7.019,3.491
		C355.202,127.575,351.531,125.632,351.531,121.816z M365.677,120.268v-2.088c-1.548-0.396-3.6-0.828-6.227-0.828
		c-3.888,0-6.047,1.728-6.047,4.285v0.071c0,2.664,2.52,4.212,5.327,4.212C362.473,125.92,365.677,123.616,365.677,120.268z"/>
	<path fill="#333333" d="M373.706,108.786h1.764v3.275c1.188-1.908,2.844-3.708,6.119-3.708c3.204,0,5.184,1.836,6.191,3.96
		c1.188-2.052,3.167-3.96,6.623-3.96c4.355,0,7.055,3.06,7.055,7.667v11.124h-1.764v-10.907c0-3.96-2.052-6.264-5.436-6.264
		c-3.096,0-5.795,2.376-5.795,6.479v10.691H386.7v-11.015c0-3.815-2.087-6.155-5.363-6.155c-3.275,0-5.867,2.88-5.867,6.587v10.583
		h-1.764V108.786z"/>
	<path fill="#333333" d="M406.682,118v-0.072c0-5.327,3.743-9.575,8.711-9.575c5.147,0,8.423,4.176,8.423,9.611
		c0,0.324,0,0.432-0.036,0.72h-15.226c0.324,4.572,3.6,7.236,7.199,7.236c2.844,0,4.787-1.26,6.299-2.88l1.224,1.08
		c-1.872,2.016-4.067,3.455-7.595,3.455C410.857,127.575,406.682,123.724,406.682,118z M421.908,117.1
		c-0.252-3.707-2.376-7.127-6.587-7.127c-3.635,0-6.443,3.06-6.767,7.127H421.908z"/>
	<path fill="#333333" d="M427.382,124.84l1.044-1.404c2.016,1.548,4.248,2.412,6.587,2.412c2.483,0,4.427-1.368,4.427-3.491v-0.072
		c0-2.161-2.304-2.952-4.859-3.672c-2.988-0.863-6.299-1.764-6.299-5.039V113.5c0-2.951,2.484-5.075,6.047-5.075
		c2.196,0,4.679,0.792,6.515,2.016l-0.936,1.476c-1.691-1.115-3.708-1.835-5.651-1.835c-2.52,0-4.176,1.367-4.176,3.203v0.072
		c0,2.052,2.484,2.808,5.111,3.563c2.952,0.828,6.047,1.907,6.047,5.148v0.072c0,3.275-2.808,5.363-6.335,5.363
		C432.241,127.504,429.326,126.424,427.382,124.84z"/>
</g>
<g>
</g>
<g>
</g>
<g>
</g>
<g>
</g>
<g>
</g>
<g>
</g>
<g>
</g>
<g>
</g>
<g>
</g>
<g>
</g>
<g>
</g>
<g>
</g>
<g>
</g>
<g>
</g>
<g>
</g>
</svg>
