<?xml version="1.0" encoding="utf-8"?>
<!-- Generator: Adobe Illustrator 16.0.4, SVG Export Plug-In . SVG Version: 6.00 Build 0)  -->
<!DOCTYPE svg PUBLIC "-//W3C//DTD SVG 1.1//EN" "http://www.w3.org/Graphics/SVG/1.1/DTD/svg11.dtd">
<svg version="1.1" xmlns="http://www.w3.org/2000/svg" xmlns:xlink="http://www.w3.org/1999/xlink" x="0px" y="0px"
	 width="888.393px" height="306px" viewBox="0 0 888.393 306" enable-background="new 0 0 888.393 306" xml:space="preserve">
<g id="background" display="none">
	<rect x="-192" y="-25" display="inline" fill="#CCC49F" width="1280" height="1200"/>
</g>
<g id="gray_x5F_bg" display="none">
	<rect x="-66" y="-36" display="inline" fill="#333333" width="1044" height="382"/>
</g>
<g id="main-background" display="none">
	<rect x="-32" y="181" display="inline" fill="#D6D0B2" width="960" height="889"/>
</g>
<g id="footer" display="none">
	<rect x="-32" y="1070" display="inline" fill="#F2F2F2" width="960" height="90"/>
</g>
<g id="sidebar" display="none">
	<g>
		<text transform="matrix(1 0 0 1 248.0962 428.3936)" display="inline" fill="#FFFFFF" font-family="'ArialMT'" font-size="21">Casino</text>
		<text transform="matrix(1 0 0 1 240.7661 671.8447)" display="inline" fill="#FFFFFF" font-family="'ArialMT'" font-size="21">Stadium</text>
		<text transform="matrix(1 0 0 1 229.4106 623.1543)" display="inline" fill="#FFFFFF" font-family="'ArialMT'" font-size="21">Speedway</text>
		<text transform="matrix(1 0 0 1 257.4302 720.5352)" display="inline" fill="#FFFFFF" font-family="'ArialMT'" font-size="21">Store</text>
		<text transform="matrix(1 0 0 1 247.4224 525.7744)" display="inline" fill="#FFFFFF" font-family="'ArialMT'" font-size="21">Library</text>
		<text transform="matrix(1 0 0 1 248.1021 574.4648)" display="inline" fill="#FFFFFF" font-family="'ArialMT'" font-size="21">School</text>
		<text transform="matrix(1 0 0 1 248.1079 282.3232)" display="inline" fill="#FFFFFF" font-family="'ArialMT'" font-size="21">Airport</text>
		<text transform="matrix(1 0 0 1 240.7485 379.7031)" display="inline" fill="#FFFFFF" font-family="'ArialMT'" font-size="21">Carnival</text>
		<text transform="matrix(1 0 0 1 206.77 331.0127)" display="inline" fill="#FFFFFF" font-family="'ArialMT'" font-size="21">Campgrounds</text>
		<text transform="matrix(1 0 0 1 234.1157 477.084)" display="inline" fill="#FFFFFF" font-family="'ArialMT'" font-size="21">Gun Club</text>
	</g>
	
		<image display="inline" overflow="visible" width="639" height="481" xlink:href="7C580EF559AC2902.jpg"  transform="matrix(0.9391 0 0 0.9085 156.7427 370.6772)">
	</image>
	<rect x="156.819" y="370.677" display="inline" fill="none" stroke="#F6921E" width="600" height="436.991"/>
	
		<text transform="matrix(1 0 0 1 528.7373 358.9062)" display="inline" font-family="'Arial-BoldMT'" font-size="21" letter-spacing="2">FEATURED GAMES</text>
	<circle display="inline" fill="none" stroke="#F6921E" stroke-width="0.6929" cx="738" cy="833" r="11"/>
	<circle display="inline" fill="#4D4D4D" cx="696.544" cy="833" r="11"/>
	<circle display="inline" fill="none" stroke="#F6921E" stroke-width="0.6929" cx="655.089" cy="833" r="11"/>
	<circle display="inline" fill="none" stroke="#F6921E" stroke-width="0.6929" cx="613.633" cy="833" r="11"/>
</g>
<g id="Links" display="none">
	<rect x="-32" y="181" display="inline" fill="#E4DFC8" width="960" height="62"/>
	<text transform="matrix(1 0 0 1 562.1719 222.5869)" display="inline" font-family="'ArialMT'" font-size="24">Videos</text>
	<text transform="matrix(1 0 0 1 716.2891 222.5869)" display="inline" font-family="'ArialMT'" font-size="24">Contact</text>
	<text transform="matrix(1 0 0 1 237.1846 222.5869)" display="inline" font-family="'ArialMT'" font-size="24">Games</text>
	<text transform="matrix(1 0 0 1 82.4717 222.5869)" display="inline" font-family="'ArialMT'" font-size="24">Home</text>
	<line display="inline" fill="none" stroke="#F6921E" stroke-width="0.6929" x1="-32" y1="243" x2="928" y2="243"/>
</g>
<g id="main-content" display="none">
</g>
<g id="banner">
	<g id="Ribbon">
		<g id="XMLID_2_">
			<g>
			</g>
			<g>
			</g>
		</g>
		<path fill="none" stroke="#000000" stroke-width="3.3798" stroke-linecap="round" stroke-linejoin="round" d="M25.983,151.916
			c-2.74-0.408-5.352-1.103-7.933-2.11"/>
		<path fill="none" stroke="#000000" stroke-width="3.3798" stroke-linecap="round" stroke-linejoin="round" d="M26.982,152.04
			c-0.08-0.008-0.161-0.019-0.243-0.028"/>
		<path fill="none" stroke="#000000" stroke-width="3.3798" stroke-linecap="round" stroke-linejoin="round" d="M27.981,152.127
			c-0.048-0.004-0.096-0.007-0.144-0.01"/>
		<path fill="none" stroke="#000000" stroke-width="3.3798" stroke-linecap="round" stroke-linejoin="round" d="M28.979,152.182
			c-0.014,0-0.028-0.001-0.043-0.002"/>
		<path fill="none" stroke="#000000" stroke-width="3.3798" stroke-linecap="round" stroke-linejoin="round" d="M30.979,152.186
			c-0.315,0.01-0.629,0.016-0.943,0.016"/>
		<path fill="none" stroke="#000000" stroke-width="3.3798" stroke-linecap="round" stroke-linejoin="round" d="M31.977,152.137
			c-0.314,0.022-0.629,0.037-0.943,0.049"/>
		<path fill="none" stroke="#000000" stroke-width="3.3798" stroke-linecap="round" stroke-linejoin="round" d="M42.363,149.682
			c-1.183,0.463-2.377,0.87-3.596,1.225"/>
		<path fill="none" stroke="#000000" stroke-width="3.3798" stroke-linecap="round" stroke-linejoin="round" d="M47.213,147.532
			c-0.109,0.052-0.219,0.106-0.328,0.158"/>
		<path fill="none" stroke="#000000" stroke-width="3.3798" stroke-linecap="round" stroke-linejoin="round" d="M50.752,145.701
			c-0.875,0.473-1.754,0.933-2.642,1.382"/>
		<path fill="none" stroke="#000000" stroke-width="3.3798" stroke-linecap="round" stroke-linejoin="round" d="M51.85,145.103
			c-0.346,0.19-0.693,0.379-1.042,0.566"/>
		<path fill="none" stroke="#000000" stroke-width="3.3798" stroke-linecap="round" stroke-linejoin="round" d="M55.146,143.268
			c-0.347,0.194-0.693,0.389-1.042,0.584"/>
		<path fill="none" stroke="#000000" stroke-width="3.3798" stroke-linecap="round" stroke-linejoin="round" d="M58.498,141.398
			c-0.386,0.212-0.771,0.426-1.154,0.639"/>
		<path fill="none" stroke="#000000" stroke-width="3.3798" stroke-linecap="round" stroke-linejoin="round" d="M59.597,140.799
			c-0.019,0.01-0.038,0.019-0.056,0.03"/>
		<path fill="none" stroke="#000000" stroke-width="3.3798" stroke-linecap="round" stroke-linejoin="round" d="M64.634,138.232
			c-0.306,0.144-0.609,0.288-0.912,0.436"/>
		<path fill="none" stroke="#000000" stroke-width="3.3798" stroke-linecap="round" stroke-linejoin="round" d="M66.887,137.227
			c-0.018,0.008-0.037,0.015-0.055,0.023"/>
		<path fill="none" stroke="#000000" stroke-width="3.3798" stroke-linecap="round" stroke-linejoin="round" d="M69.185,136.322
			c-0.02,0.007-0.038,0.014-0.057,0.021"/>
		<path fill="none" stroke="#000000" stroke-width="3.3798" stroke-linecap="round" stroke-linejoin="round" d="M70.383,135.904
			c-0.019,0.006-0.037,0.013-0.056,0.019"/>
		<path fill="none" stroke="#000000" stroke-width="3.3798" stroke-linecap="round" stroke-linejoin="round" d="M217.736,148.836
			c-0.652-0.286-1.301-0.581-1.941-0.887"/>
		<path fill="none" stroke="#000000" stroke-width="3.3798" stroke-linecap="round" stroke-linejoin="round" d="M221.043,150.809
			c-0.316-0.129-2.938-1.812-3.251-1.948"/>
		<path fill="none" stroke="#000000" stroke-width="3.3798" stroke-linecap="round" stroke-linejoin="round" d="M375.131,135.386
			c-2.885,0.816-5.653,1.979-8.351,3.288c-4.711,2.291-9.192,5.035-13.821,7.486c-1.576,0.836-3.167,1.637-4.792,2.37
			c-2.89,1.304-5.887,2.399-8.987,3.039c-1.841,0.38-3.719,0.601-5.595,0.63c-1.84,0.03-3.682-0.121-5.494-0.433
			c-1.934-0.333-3.837-0.851-5.693-1.496c-2.093-0.726-4.126-1.611-6.117-2.58"/>
		<path fill="none" stroke="#000000" stroke-width="3.3798" stroke-linecap="round" stroke-linejoin="round" d="M476.2,135.374
			c-2.93,0.823-5.738,2.004-8.472,3.335c-4.67,2.278-9.112,4.993-13.7,7.427c-1.634,0.866-3.286,1.696-4.973,2.453
			c-2.813,1.264-5.731,2.325-8.748,2.957c-1.833,0.385-3.703,0.611-5.576,0.65c-1.83,0.039-3.665-0.103-5.471-0.406
			c-1.913-0.32-3.796-0.823-5.635-1.448c-2.165-0.74-4.264-1.652-6.323-2.652"/>
		<path fill="none" stroke="#000000" stroke-width="3.3798" stroke-linecap="round" stroke-linejoin="round" d="M522.535,149.561
			c-1.428-0.572-2.828-1.194-4.212-1.871"/>
		<path fill="none" stroke="#000000" stroke-width="3.3798" stroke-linecap="round" stroke-linejoin="round" d="M540.312,151.743
			c-4.317,0.763-8.339,0.573-12.582-0.488"/>
		<path fill="none" stroke="#000000" stroke-width="3.3798" stroke-linecap="round" stroke-linejoin="round" d="M549.706,148.756
			c-2.081,0.933-4.202,1.7-6.396,2.312"/>
		<path fill="none" stroke="#000000" stroke-width="3.3798" stroke-linecap="round" stroke-linejoin="round" d="M552.003,147.688
			c-0.101,0.049-0.201,0.098-0.301,0.146"/>
		<path fill="none" stroke="#000000" stroke-width="3.3798" stroke-linecap="round" stroke-linejoin="round" d="M560.088,143.365
			c-1.327,0.748-2.657,1.484-3.995,2.212"/>
		<path fill="none" stroke="#000000" stroke-width="3.3798" stroke-linecap="round" stroke-linejoin="round" d="M568.836,138.668
			c-1.333,0.652-2.65,1.331-3.956,2.039"/>
		<path fill="none" stroke="#000000" stroke-width="3.3798" stroke-linecap="round" stroke-linejoin="round" d="M575.768,135.816
			c-0.839,0.273-1.671,0.57-2.496,0.893"/>
		<path fill="none" stroke="#000000" stroke-width="3.3798" stroke-linecap="round" stroke-linejoin="round" d="M576.864,135.477
			c-0.097,0.029-0.196,0.058-0.293,0.087"/>
		<path fill="none" stroke="#000000" stroke-width="3.3798" stroke-linecap="round" stroke-linejoin="round" d="M667.949,139.625"/>
		<path fill="none" stroke="#000000" stroke-width="3.3798" stroke-linecap="round" stroke-linejoin="round" d="M669.856,138.668
			c-0.102,0.051-0.206,0.102-0.309,0.152"/>
		<path fill="none" stroke="#000000" stroke-width="3.3798" stroke-linecap="round" stroke-linejoin="round" d="M674.738,136.538
			c-1.63,0.627-3.225,1.321-4.794,2.088"/>
		<path fill="none" stroke="#000000" stroke-width="3.3798" stroke-linecap="round" stroke-linejoin="round" d="M18.051,149.805
			c-1.646-0.636-3.256-1.338-4.84-2.115"/>
		<path fill="none" stroke="#000000" stroke-width="3.3798" stroke-linecap="round" stroke-linejoin="round" d="M26.739,152.011
			c-0.252-0.029-0.504-0.06-0.756-0.096"/>
		<path fill="none" stroke="#000000" stroke-width="3.3798" stroke-linecap="round" stroke-linejoin="round" d="M27.838,152.118
			c-0.286-0.022-0.569-0.049-0.855-0.078"/>
		<path fill="none" stroke="#000000" stroke-width="3.3798" stroke-linecap="round" stroke-linejoin="round" d="M28.937,152.18
			c-0.318-0.011-0.638-0.029-0.955-0.052"/>
		<path fill="none" stroke="#000000" stroke-width="3.3798" stroke-linecap="round" stroke-linejoin="round" d="M30.035,152.202
			c-0.352,0-0.702-0.006-1.056-0.02"/>
		<path fill="none" stroke="#000000" stroke-width="3.3798" stroke-linecap="round" stroke-linejoin="round" d="M31.033,152.186
			c-0.019,0-0.037,0-0.055,0"/>
		<path fill="none" stroke="#000000" stroke-width="3.3798" stroke-linecap="round" stroke-linejoin="round" d="M38.768,150.907
			c-2.231,0.66-4.469,1.065-6.791,1.23"/>
		<path fill="none" stroke="#000000" stroke-width="3.3798" stroke-linecap="round" stroke-linejoin="round" d="M46.885,147.69
			c-1.481,0.726-2.986,1.391-4.521,1.992"/>
		<path fill="none" stroke="#000000" stroke-width="3.3798" stroke-linecap="round" stroke-linejoin="round" d="M48.11,147.083
			c-0.298,0.151-0.597,0.301-0.897,0.449"/>
		<path fill="none" stroke="#000000" stroke-width="3.3798" stroke-linecap="round" stroke-linejoin="round" d="M50.808,145.669
			c-0.018,0.011-0.037,0.021-0.056,0.031"/>
		<path fill="none" stroke="#000000" stroke-width="3.3798" stroke-linecap="round" stroke-linejoin="round" d="M54.104,143.852
			c-0.749,0.42-1.5,0.838-2.254,1.251"/>
		<path fill="none" stroke="#000000" stroke-width="3.3798" stroke-linecap="round" stroke-linejoin="round" d="M57.344,142.038
			c-0.733,0.41-1.466,0.819-2.198,1.23"/>
		<path fill="none" stroke="#000000" stroke-width="3.3798" stroke-linecap="round" stroke-linejoin="round" d="M59.541,140.83
			c-0.349,0.188-0.696,0.377-1.043,0.569"/>
		<path fill="none" stroke="#000000" stroke-width="3.3798" stroke-linecap="round" stroke-linejoin="round" d="M63.722,138.668
			c-1.391,0.681-2.765,1.391-4.125,2.131"/>
		<path fill="none" stroke="#000000" stroke-width="3.3798" stroke-linecap="round" stroke-linejoin="round" d="M66.832,137.25
			c-0.74,0.312-1.472,0.64-2.198,0.982"/>
		<path fill="none" stroke="#000000" stroke-width="3.3798" stroke-linecap="round" stroke-linejoin="round" d="M69.128,136.343
			c-0.754,0.276-1.501,0.572-2.241,0.884"/>
		<path fill="none" stroke="#000000" stroke-width="3.3798" stroke-linecap="round" stroke-linejoin="round" d="M70.327,135.923
			c-0.383,0.127-0.764,0.261-1.143,0.399"/>
		<path fill="none" stroke="#000000" stroke-width="3.3798" stroke-linecap="round" stroke-linejoin="round" d="M72.682,135.218
			c-0.773,0.206-1.54,0.434-2.299,0.687"/>
		<path fill="none" stroke="#000000" stroke-width="3.3798" stroke-linecap="round" stroke-linejoin="round" d="M215.795,147.949
			c-0.18-0.086-0.359-0.172-0.538-0.259"/>
		<path fill="none" stroke="#000000" stroke-width="3.3798" stroke-linecap="round" stroke-linejoin="round" d="M217.792,148.861
			c-0.02-0.006-0.039-0.015-0.056-0.024"/>
		<path fill="none" stroke="#000000" stroke-width="3.3798" stroke-linecap="round" stroke-linejoin="round" d="M275.561,135.007"/>
		<path fill="none" stroke="#000000" stroke-width="3.3798" stroke-linecap="round" stroke-linejoin="round" d="M442.7,135.324
			c2.892-0.821,5.666-1.992,8.365-3.308c4.686-2.283,9.14-5.007,13.742-7.447c1.574-0.833,3.169-1.635,4.793-2.37
			c2.871-1.296,5.849-2.385,8.928-3.027c1.832-0.38,3.703-0.604,5.576-0.64c1.832-0.036,3.666,0.11,5.471,0.414
			c1.9,0.323,3.77,0.821,5.595,1.444c2.162,0.738,4.262,1.65,6.317,2.647"/>
		<path fill="none" stroke="#000000" stroke-width="3.3798" stroke-linecap="round" stroke-linejoin="round" d="M341.17,135.465
			c3.015-0.809,5.902-2.007,8.708-3.367c4.776-2.314,9.31-5.097,14.001-7.578c1.595-0.843,3.207-1.65,4.855-2.389
			c2.825-1.268,5.753-2.331,8.786-2.96c1.852-0.385,3.743-0.61,5.634-0.64c1.827-0.031,3.654,0.119,5.453,0.425
			c1.921,0.328,3.811,0.839,5.653,1.474c2.123,0.73,4.186,1.627,6.204,2.608"/>
		<path fill="none" stroke="#000000" stroke-width="3.3798" stroke-linecap="round" stroke-linejoin="round" d="M249.049,132.004
			c4.684-2.285,9.139-5.011,13.742-7.45c1.594-0.842,3.206-1.653,4.854-2.394c2.838-1.276,5.782-2.348,8.825-2.983"/>
		<path fill="none" stroke="#000000" stroke-width="3.3798" stroke-linecap="round" stroke-linejoin="round" d="M175.383,119.191
			c1.825-0.386,3.69-0.614,5.555-0.656c1.852-0.043,3.707,0.099,5.532,0.407c1.907,0.319,3.784,0.818,5.614,1.442
			c2.168,0.739,4.274,1.654,6.337,2.656"/>
		<path fill="none" stroke="#000000" stroke-width="3.3798" stroke-linecap="round" stroke-linejoin="round" d="M804.557,123.039"/>
		<path fill="none" stroke="#000000" stroke-width="3.3798" stroke-linecap="round" stroke-linejoin="round" d="M653.166,131.991
			c4.629-2.261,9.037-4.95,13.582-7.366c1.596-0.846,3.208-1.659,4.854-2.404c2.873-1.299,5.847-2.391,8.928-3.037
			c1.839-0.385,3.715-0.612,5.597-0.649c1.804-0.037,3.61,0.102,5.393,0.396c1.904,0.316,3.781,0.811,5.611,1.432
			c2.194,0.743,4.32,1.667,6.404,2.677"/>
		<path fill="none" stroke="#000000" stroke-width="3.3798" stroke-linecap="round" stroke-linejoin="round" d="M602.51,123.039"/>
		<path fill="none" stroke="#000000" stroke-width="3.3798" stroke-linecap="round" stroke-linejoin="round" d="M543.709,135.329
			c2.897-0.823,5.684-1.996,8.387-3.314c4.66-2.272,9.09-4.979,13.664-7.408c1.614-0.855,9.435-4.385,11.104-5.136"/>
		<path fill="none" stroke="#000000" stroke-width="3.3798" stroke-linecap="round" stroke-linejoin="round" d="M527.73,151.254
			c-1.772-0.451-3.497-1.014-5.195-1.693"/>
		<path fill="none" stroke="#000000" stroke-width="3.3798" stroke-linecap="round" stroke-linejoin="round" d="M543.311,151.068
			c-0.99,0.27-1.988,0.496-2.998,0.675"/>
		<path fill="none" stroke="#000000" stroke-width="3.3798" stroke-linecap="round" stroke-linejoin="round" d="M551.702,147.834
			c-0.661,0.318-1.326,0.625-1.996,0.922"/>
		<path fill="none" stroke="#000000" stroke-width="3.3798" stroke-linecap="round" stroke-linejoin="round" d="M556.093,145.577
			c-1.349,0.734-2.71,1.437-4.09,2.112"/>
		<path fill="none" stroke="#000000" stroke-width="3.3798" stroke-linecap="round" stroke-linejoin="round" d="M564.88,140.707
			c-1.603,0.872-3.203,1.757-4.792,2.658"/>
		<path fill="none" stroke="#000000" stroke-width="3.3798" stroke-linecap="round" stroke-linejoin="round" d="M573.271,136.709
			c-1.505,0.595-2.98,1.247-4.436,1.958"/>
		<path fill="none" stroke="#000000" stroke-width="3.3798" stroke-linecap="round" stroke-linejoin="round" d="M576.571,135.564
			c-0.27,0.081-0.537,0.164-0.804,0.252"/>
		<path fill="none" stroke="#000000" stroke-width="3.3798" stroke-linecap="round" stroke-linejoin="round" d="M577.266,135.363
			c-0.134,0.036-0.266,0.074-0.401,0.114"/>
		<path fill="none" stroke="#000000" stroke-width="3.3798" stroke-linecap="round" stroke-linejoin="round" d="M669.547,138.82
			c-0.535,0.264-1.066,0.533-1.598,0.805"/>
		<path fill="none" stroke="#000000" stroke-width="3.3798" stroke-linecap="round" stroke-linejoin="round" d="M669.944,138.626
			c-0.028,0.014-0.058,0.027-0.088,0.042"/>
		<path fill="none" stroke="#000000" stroke-width="3.3798" stroke-linecap="round" stroke-linejoin="round" d="M677.934,135.464
			c-1.079,0.315-2.143,0.673-3.195,1.074"/>
		<path fill="none" stroke="#000000" stroke-width="3.3798" stroke-linecap="round" stroke-linejoin="round" d="M679.032,135.162
			c-0.099,0.027-0.197,0.052-0.297,0.079"/>
		<path fill="none" stroke="#000000" stroke-width="3.3798" stroke-linecap="round" stroke-linejoin="round" d="M38.761,135.281
			c2.9-0.838,5.683-2.021,8.391-3.348c4.625-2.269,9.03-4.962,13.582-7.372c1.593-0.845,8.892-3.994,10.538-4.735"/>
		<path fill="none" stroke="#000000" stroke-width="3.3798" stroke-linecap="round" stroke-linejoin="round" d="M704.515,122.572
			c0.985-0.463,1.985-0.899,2.995-1.309"/>
		<path fill="none" stroke="#000000" stroke-width="3.3798" stroke-linecap="round" stroke-linejoin="round" d="M698.707,125.551
			c0.403-0.222,0.809-0.44,1.215-0.657"/>
		<path fill="none" stroke="#000000" stroke-width="3.3798" stroke-linecap="round" stroke-linejoin="round" d="M689.918,130.416
			c0.804-0.427,1.601-0.86,2.397-1.301"/>
		<path fill="none" stroke="#000000" stroke-width="3.3798" stroke-linecap="round" stroke-linejoin="round" d="M681.429,134.337
			c2.02-0.759,3.982-1.62,5.91-2.589"/>
		<path fill="none" stroke="#000000" stroke-width="3.3798" stroke-linecap="round" stroke-linejoin="round" d="M677.934,135.459
			c0.677-0.183,1.349-0.384,2.013-0.604"/>
		<path fill="none" stroke="#000000" stroke-width="3.3798" stroke-linecap="round" stroke-linejoin="round" d="M634.989,122.473
			c0.399,0.184,0.799,0.375,1.195,0.568"/>
		<path fill="none" stroke="#000000" stroke-width="3.3798" stroke-linecap="round" stroke-linejoin="round" d="M629.613,120.306
			c1.142,0.383,2.267,0.811,3.38,1.28"/>
		<path fill="none" stroke="#000000" stroke-width="3.3798" stroke-linecap="round" stroke-linejoin="round" d="M628.612,119.986
			c0.129,0.039,0.258,0.078,0.387,0.12"/>
		<path fill="none" stroke="#000000" stroke-width="3.3798" stroke-linecap="round" stroke-linejoin="round" d="M622.82,118.739
			c0.402,0.047,0.799,0.104,1.198,0.167"/>
		<path fill="none" stroke="#000000" stroke-width="3.3798" stroke-linecap="round" stroke-linejoin="round" d="M621.622,118.619
			c0.261,0.021,0.525,0.045,0.784,0.072"/>
		<path fill="none" stroke="#000000" stroke-width="3.3798" stroke-linecap="round" stroke-linejoin="round" d="M620.424,118.549
			c0.261,0.009,0.523,0.022,0.784,0.04"/>
		<path fill="none" stroke="#000000" stroke-width="3.3798" stroke-linecap="round" stroke-linejoin="round" d="M617.627,118.58
			c0.795-0.048,1.587-0.062,2.381-0.044"/>
		<path fill="none" stroke="#000000" stroke-width="3.3798" stroke-linecap="round" stroke-linejoin="round" d="M613.633,119.092
			c0.796-0.154,1.593-0.28,2.396-0.372"/>
		<path fill="none" stroke="#000000" stroke-width="3.3798" stroke-linecap="round" stroke-linejoin="round" d="M595.257,126.897"/>
		<path fill="none" stroke="#000000" stroke-width="3.3798" stroke-linecap="round" stroke-linejoin="round" d="M577.266,135.363"/>
		<path fill="none" stroke="#000000" stroke-width="3.3798" stroke-linecap="round" stroke-linejoin="round" d="M529.941,120.782
			c0.195,0.073,0.39,0.147,0.585,0.222"/>
		<path fill="none" stroke="#000000" stroke-width="3.3798" stroke-linecap="round" stroke-linejoin="round" d="M528.941,120.426
			c0.196,0.066,0.39,0.134,0.585,0.205"/>
		<path fill="none" stroke="#000000" stroke-width="3.3798" stroke-linecap="round" stroke-linejoin="round" d="M527.943,120.095
			c0.196,0.062,0.391,0.125,0.584,0.19"/>
		<path fill="none" stroke="#000000" stroke-width="3.3798" stroke-linecap="round" stroke-linejoin="round" d="M526.945,119.792
			c0.194,0.057,0.391,0.117,0.584,0.174"/>
		<path fill="none" stroke="#000000" stroke-width="3.3798" stroke-linecap="round" stroke-linejoin="round" d="M525.944,119.523
			c0.197,0.049,0.394,0.102,0.588,0.154"/>
		<path fill="none" stroke="#000000" stroke-width="3.3798" stroke-linecap="round" stroke-linejoin="round" d="M524.948,119.284
			c0.193,0.042,0.39,0.088,0.584,0.136"/>
		<path fill="none" stroke="#000000" stroke-width="3.3798" stroke-linecap="round" stroke-linejoin="round" d="M523.949,119.076
			c0.195,0.037,0.392,0.075,0.583,0.116"/>
		<path fill="none" stroke="#000000" stroke-width="3.3798" stroke-linecap="round" stroke-linejoin="round" d="M476.2,135.374
			c1.256-0.35,2.49-0.768,3.705-1.234c1.416-0.543,2.807-1.152,4.175-1.803c1.459-0.695,2.894-1.434,4.313-2.199
			c3.997-2.149,7.896-4.483,11.945-6.529c2.406-1.214,4.861-2.327,7.41-3.199c2.567-0.878,5.228-1.513,7.93-1.762
			c2.615-0.239,5.272-0.117,7.856,0.35"/>
		<path fill="none" stroke="#000000" stroke-width="3.3798" stroke-linecap="round" stroke-linejoin="round" d="M375.131,135.386
			c2.931-0.814,5.745-1.989,8.479-3.317c4.71-2.286,9.181-5.024,13.803-7.475c1.588-0.842,3.193-1.65,4.832-2.391
			c2.849-1.285,5.796-2.366,8.849-3.013c1.825-0.384,3.69-0.614,5.556-0.656c1.818-0.043,3.637,0.094,5.433,0.389
			c1.967,0.323,3.904,0.837,5.792,1.485c2.146,0.735,4.227,1.64,6.265,2.629"/>
		<path fill="none" stroke="#000000" stroke-width="3.3798" stroke-linecap="round" stroke-linejoin="round" d="M312.07,118.835
			c0.845-0.122,1.696-0.209,2.551-0.26c0.817-0.046,1.638-0.06,2.456-0.036c1.698,0.045,3.39,0.247,5.053,0.58
			c1.793,0.358,3.552,0.868,5.274,1.483c1.951,0.699,3.851,1.532,5.714,2.436"/>
		<path fill="none" stroke="#000000" stroke-width="3.3798" stroke-linecap="round" stroke-linejoin="round" d="M308.073,119.677"/>
		<path fill="none" stroke="#000000" stroke-width="3.3798" stroke-linecap="round" stroke-linejoin="round" d="M283.206,131.767"/>
		<path fill="none" stroke="#000000" stroke-width="3.3798" stroke-linecap="round" stroke-linejoin="round" d="M282.107,132.302
			c0.165-0.078,0.332-0.158,0.497-0.239"/>
		<path fill="none" stroke="#000000" stroke-width="3.3798" stroke-linecap="round" stroke-linejoin="round" d="M279.268,133.576
			c0.266-0.111,0.532-0.224,0.8-0.34"/>
		<path fill="none" stroke="#000000" stroke-width="3.3798" stroke-linecap="round" stroke-linejoin="round" d="M277.912,134.119
			c0.02-0.006,0.036-0.014,0.057-0.021"/>
		<path fill="none" stroke="#000000" stroke-width="3.3798" stroke-linecap="round" stroke-linejoin="round" d="M227.334,120.956
			c1.617,0.626,3.202,1.319,4.76,2.083"/>
		<path fill="none" stroke="#000000" stroke-width="3.3798" stroke-linecap="round" stroke-linejoin="round" d="M226.38,120.601
			c0.019,0.008,0.037,0.014,0.057,0.021"/>
		<path fill="none" stroke="#000000" stroke-width="3.3798" stroke-linecap="round" stroke-linejoin="round" d="M222.739,119.487
			c0.217,0.055,0.43,0.111,0.644,0.169"/>
		<path fill="none" stroke="#000000" stroke-width="3.3798" stroke-linecap="round" stroke-linejoin="round" d="M221.739,119.251
			c0.218,0.047,0.433,0.097,0.646,0.149"/>
		<path fill="none" stroke="#000000" stroke-width="3.3798" stroke-linecap="round" stroke-linejoin="round" d="M220.743,119.047
			c0.214,0.042,0.429,0.084,0.645,0.128"/>
		<path fill="none" stroke="#000000" stroke-width="3.3798" stroke-linecap="round" stroke-linejoin="round" d="M218.646,118.728
			c0.582,0.068,1.163,0.154,1.744,0.255"/>
		<path fill="none" stroke="#000000" stroke-width="3.3798" stroke-linecap="round" stroke-linejoin="round" d="M217.548,118.619
			c0.28,0.022,0.562,0.05,0.844,0.08"/>
		<path fill="none" stroke="#000000" stroke-width="3.3798" stroke-linecap="round" stroke-linejoin="round" d="M216.449,118.553
			c0.313,0.013,0.628,0.031,0.943,0.055"/>
		<path fill="none" stroke="#000000" stroke-width="3.3798" stroke-linecap="round" stroke-linejoin="round" d="M215.35,118.529
			c0.347,0,0.696,0.008,1.043,0.021"/>
		<path fill="none" stroke="#000000" stroke-width="3.3798" stroke-linecap="round" stroke-linejoin="round" d="M214.35,118.542
			c0.017,0,0.029,0,0.046,0"/>
		<path fill="none" stroke="#000000" stroke-width="3.3798" stroke-linecap="round" stroke-linejoin="round" d="M213.353,118.59
			c0.014,0,0.028,0,0.045-0.001"/>
		<path fill="none" stroke="#000000" stroke-width="3.3798" stroke-linecap="round" stroke-linejoin="round" d="M210.156,118.979
			c0.744-0.131,1.492-0.234,2.243-0.309"/>
		<path fill="none" stroke="#000000" stroke-width="3.3798" stroke-linecap="round" stroke-linejoin="round" d="M208.956,119.212
			c0.017-0.002,0.031-0.006,0.047-0.01"/>
		<path fill="none" stroke="#000000" stroke-width="3.3798" stroke-linecap="round" stroke-linejoin="round" d="M207.759,119.492
			c0.016-0.004,0.029-0.008,0.046-0.012"/>
		<path fill="none" stroke="#000000" stroke-width="3.3798" stroke-linecap="round" stroke-linejoin="round" d="M202.966,121.039
			c1.182-0.462,2.378-0.868,3.596-1.224"/>
		<path fill="none" stroke="#000000" stroke-width="3.3798" stroke-linecap="round" stroke-linejoin="round" d="M185.833,129.864
			c4.115-2.23,8.129-4.638,12.339-6.703"/>
		<path fill="none" stroke="#000000" stroke-width="3.3798" stroke-linecap="round" stroke-linejoin="round" d="M181.837,131.938
			c1.332-0.657,2.646-1.34,3.953-2.05"/>
		<path fill="none" stroke="#000000" stroke-width="3.3798" stroke-linecap="round" stroke-linejoin="round" d="M181.581,132.062
			c0.073-0.035,0.143-0.069,0.212-0.102"/>
		<path fill="none" stroke="#000000" stroke-width="3.3798" stroke-linecap="round" stroke-linejoin="round" d="M76.73,133.779
			c2.738-1.144,7.075-3.426,9.67-4.864"/>
		<path fill="none" stroke="#000000" stroke-width="3.3798" stroke-linecap="round" stroke-linejoin="round" d="M16.807,118.753
			c4.768,0.593,8.989,2.22,13.242,4.286"/>
		<path fill="none" stroke="#000000" stroke-width="3.3798" stroke-linecap="round" stroke-linejoin="round" d="M12.413,118.54
			c0.014,0,0.03,0,0.046-0.002"/>
		<path fill="none" stroke="#000000" stroke-width="3.3798" stroke-linecap="round" stroke-linejoin="round" d="M11.215,118.597
			c0.015,0,0.03-0.001,0.046-0.002"/>
		<path fill="none" stroke="#000000" stroke-width="3.3798" stroke-linecap="round" stroke-linejoin="round" d="M10.017,118.705
			c0.015,0,0.03-0.003,0.045-0.004"/>
		<path fill="none" stroke="#000000" stroke-width="3.3798" stroke-linecap="round" stroke-linejoin="round" d="M308.073,119.677
			c1.316-0.364,2.644-0.644,3.997-0.842"/>
		<path fill="none" stroke="#000000" stroke-width="3.3798" stroke-linecap="round" stroke-linejoin="round" d="M282.604,132.062
			c0.202-0.098,4.12-2.1,4.321-2.199"/>
		<path fill="none" stroke="#000000" stroke-width="3.3798" stroke-linecap="round" stroke-linejoin="round" d="M280.067,133.236
			c0.684-0.3,1.363-0.61,2.04-0.934"/>
		<path fill="none" stroke="#000000" stroke-width="3.3798" stroke-linecap="round" stroke-linejoin="round" d="M277.969,134.098
			c0.436-0.168,0.867-0.341,1.299-0.522"/>
		<path fill="none" stroke="#000000" stroke-width="3.3798" stroke-linecap="round" stroke-linejoin="round" d="M272.786,136.019
			c1.287-0.361,3.882-1.416,5.126-1.9"/>
		<path fill="none" stroke="#000000" stroke-width="3.3798" stroke-linecap="round" stroke-linejoin="round" d="M226.437,120.623
			c0.3,0.107,0.601,0.219,0.897,0.333"/>
		<path fill="none" stroke="#000000" stroke-width="3.3798" stroke-linecap="round" stroke-linejoin="round" d="M223.383,119.657
			c1.014,0.275,2.011,0.591,2.997,0.944"/>
		<path fill="none" stroke="#000000" stroke-width="3.3798" stroke-linecap="round" stroke-linejoin="round" d="M222.385,119.401
			c0.119,0.029,0.237,0.058,0.354,0.086"/>
		<path fill="none" stroke="#000000" stroke-width="3.3798" stroke-linecap="round" stroke-linejoin="round" d="M221.388,119.175
			c0.117,0.026,0.236,0.051,0.352,0.076"/>
		<path fill="none" stroke="#000000" stroke-width="3.3798" stroke-linecap="round" stroke-linejoin="round" d="M220.39,118.983
			c0.115,0.021,0.234,0.042,0.354,0.064"/>
		<path fill="none" stroke="#000000" stroke-width="3.3798" stroke-linecap="round" stroke-linejoin="round" d="M218.392,118.699
			c0.084,0.009,0.168,0.018,0.254,0.029"/>
		<path fill="none" stroke="#000000" stroke-width="3.3798" stroke-linecap="round" stroke-linejoin="round" d="M217.393,118.608
			c0.052,0.002,0.103,0.007,0.155,0.011"/>
		<path fill="none" stroke="#000000" stroke-width="3.3798" stroke-linecap="round" stroke-linejoin="round" d="M216.393,118.55
			c0.02,0.002,0.036,0.002,0.057,0.003"/>
		<path fill="none" stroke="#000000" stroke-width="3.3798" stroke-linecap="round" stroke-linejoin="round" d="M214.396,118.541
			c0.317-0.01,0.636-0.014,0.954-0.012"/>
		<path fill="none" stroke="#000000" stroke-width="3.3798" stroke-linecap="round" stroke-linejoin="round" d="M213.397,118.589
			c0.316-0.021,0.636-0.036,0.952-0.047"/>
		<path fill="none" stroke="#000000" stroke-width="3.3798" stroke-linecap="round" stroke-linejoin="round" d="M212.399,118.67
			c0.316-0.032,0.633-0.058,0.953-0.078"/>
		<path fill="none" stroke="#000000" stroke-width="3.3798" stroke-linecap="round" stroke-linejoin="round" d="M209.003,119.202
			c0.383-0.081,0.767-0.155,1.153-0.223"/>
		<path fill="none" stroke="#000000" stroke-width="3.3798" stroke-linecap="round" stroke-linejoin="round" d="M207.805,119.48
			c0.383-0.096,0.768-0.186,1.151-0.268"/>
		<path fill="none" stroke="#000000" stroke-width="3.3798" stroke-linecap="round" stroke-linejoin="round" d="M206.562,119.815
			c0.398-0.114,0.798-0.222,1.197-0.323"/>
		<path fill="none" stroke="#000000" stroke-width="3.3798" stroke-linecap="round" stroke-linejoin="round" d="M198.172,123.161
			c1.569-0.777,3.163-1.482,4.794-2.123"/>
		<path fill="none" stroke="#000000" stroke-width="3.3798" stroke-linecap="round" stroke-linejoin="round" d="M185.79,129.888
			c0.013-0.008,0.027-0.017,0.043-0.024"/>
		<path fill="none" stroke="#000000" stroke-width="3.3798" stroke-linecap="round" stroke-linejoin="round" d="M181.793,131.96
			c0.015-0.008,0.029-0.015,0.044-0.022"/>
		<path fill="none" stroke="#000000" stroke-width="3.3798" stroke-linecap="round" stroke-linejoin="round" d="M181.581,132.062"/>
		<path fill="none" stroke="#000000" stroke-width="3.3798" stroke-linecap="round" stroke-linejoin="round" d="M72.68,135.209
			c1.374-0.412,2.722-0.887,4.051-1.431"/>
		<path fill="none" stroke="#000000" stroke-width="3.3798" stroke-linecap="round" stroke-linejoin="round" d="M12.459,118.538
			c1.458-0.037,2.9,0.034,4.348,0.215"/>
		<path fill="none" stroke="#000000" stroke-width="3.3798" stroke-linecap="round" stroke-linejoin="round" d="M11.261,118.595
			c0.383-0.026,0.767-0.045,1.152-0.055"/>
		<path fill="none" stroke="#000000" stroke-width="3.3798" stroke-linecap="round" stroke-linejoin="round" d="M10.062,118.7
			c0.384-0.042,0.769-0.075,1.153-0.103"/>
		<path fill="none" stroke="#000000" stroke-width="3.3798" stroke-linecap="round" stroke-linejoin="round" d="M8.862,118.856
			c0.384-0.058,0.767-0.109,1.154-0.151"/>
		<path fill="none" stroke="#000000" stroke-width="3.3798" stroke-linecap="round" stroke-linejoin="round" d="M206.623,135.427
			c-2.842,0.813-9.747,3.727-12.402,5.019"/>
		<path fill="none" stroke="#000000" stroke-width="3.3798" stroke-linecap="round" stroke-linejoin="round" d="M308.012,135.323
			c-2.955,0.814-5.791,1.998-8.548,3.335c-4.77,2.316-9.297,5.096-13.983,7.57c-1.574,0.832-3.165,1.63-4.792,2.36"/>
		<path fill="none" stroke="#000000" stroke-width="3.3798" stroke-linecap="round" stroke-linejoin="round" d="M408.759,135.399
			c-2.863,0.814-5.612,1.967-8.286,3.267c-4.761,2.313-9.284,5.088-13.961,7.56c-1.576,0.833-3.169,1.629-4.795,2.36
			c-2.826,1.269-5.754,2.335-8.787,2.967c-1.774,0.371-3.583,0.592-5.396,0.639c-1.872,0.05-3.746-0.089-5.592-0.396
			c-1.969-0.328-3.904-0.848-5.792-1.499c-2.121-0.73-4.179-1.627-6.195-2.607"/>
		<path fill="none" stroke="#000000" stroke-width="3.3798" stroke-linecap="round" stroke-linejoin="round" d="M510.23,135.276
			c-2.986,0.807-5.849,1.992-8.628,3.336c-4.785,2.316-9.327,5.106-14.023,7.588c-1.574,0.833-3.166,1.631-4.791,2.362
			c-2.84,1.279-5.784,2.352-8.831,2.989c-1.806,0.377-3.647,0.602-5.495,0.645c-1.822,0.041-3.65-0.097-5.453-0.393
			c-1.98-0.329-3.931-0.85-5.832-1.504c-2.122-0.731-4.182-1.628-6.2-2.609"/>
		<path fill="none" stroke="#000000" stroke-width="3.3798" stroke-linecap="round" stroke-linejoin="round" d="M610.898,135.374
			c-2.899,0.814-5.681,1.979-8.387,3.294c-4.727,2.298-9.219,5.051-13.862,7.508c-1.574,0.833-3.169,1.634-4.793,2.367
			c-2.828,1.275-5.756,2.348-8.787,2.989c-1.839,0.391-3.715,0.622-5.597,0.665c-1.83,0.041-3.663-0.099-5.469-0.398
			c-1.944-0.324-3.852-0.833-5.715-1.469c-2.153-0.736-4.243-1.646-6.289-2.638"/>
		<path fill="none" stroke="#000000" stroke-width="3.3798" stroke-linecap="round" stroke-linejoin="round" d="M689.619,146.204
			c-1.557,0.823-3.127,1.611-4.733,2.334c-2.878,1.299-5.859,2.388-8.947,3.026c-1.781,0.368-3.597,0.587-5.415,0.629
			c-1.864,0.043-3.732-0.099-5.571-0.41"/>
		<path fill="none" stroke="#000000" stroke-width="3.3798" stroke-linecap="round" stroke-linejoin="round" d="M703.501,138.685"/>
		<path fill="none" stroke="#000000" stroke-width="3.3798" stroke-linecap="round" stroke-linejoin="round" d="M812.979,135.363
			c-2.906,0.813-5.695,1.981-8.41,3.299c-4.739,2.304-9.243,5.063-13.9,7.528"/>
		<path fill="none" stroke="#000000" stroke-width="3.3798" stroke-linecap="round" stroke-linejoin="round" d="M801.733,124.473
			c1.562-0.824,3.141-1.613,4.751-2.338c2.793-1.251,5.681-2.304,8.671-2.938c1.837-0.39,3.713-0.621,5.595-0.663
			c1.85-0.043,3.705,0.099,5.531,0.407c1.935,0.324,3.837,0.833,5.693,1.47c2.141,0.736,4.219,1.64,6.257,2.627"/>
		<path fill="none" stroke="#000000" stroke-width="3.3798" stroke-linecap="round" stroke-linejoin="round" d="M707.51,121.263"/>
		<path fill="none" stroke="#000000" stroke-width="3.3798" stroke-linecap="round" stroke-linejoin="round" d="M699.922,124.895
			c1.509-0.816,3.04-1.59,4.593-2.323"/>
		<path fill="none" stroke="#000000" stroke-width="3.3798" stroke-linecap="round" stroke-linejoin="round" d="M692.315,129.114
			c2.128-1.192,4.258-2.379,6.392-3.563"/>
		<path fill="none" stroke="#000000" stroke-width="3.3798" stroke-linecap="round" stroke-linejoin="round" d="M687.339,131.748
			c0.864-0.432,1.725-0.876,2.579-1.333"/>
		<path fill="none" stroke="#000000" stroke-width="3.3798" stroke-linecap="round" stroke-linejoin="round" d="M679.946,134.855
			c0.499-0.163,0.99-0.337,1.482-0.518"/>
		<path fill="none" stroke="#000000" stroke-width="3.3798" stroke-linecap="round" stroke-linejoin="round" d="M632.993,121.586
			c0.671,0.282,1.336,0.578,1.996,0.886"/>
		<path fill="none" stroke="#000000" stroke-width="3.3798" stroke-linecap="round" stroke-linejoin="round" d="M628.999,120.105
			c0.203,0.065,0.409,0.131,0.614,0.201"/>
		<path fill="none" stroke="#000000" stroke-width="3.3798" stroke-linecap="round" stroke-linejoin="round" d="M624.019,118.906
			c1.561,0.255,3.084,0.613,4.594,1.08"/>
		<path fill="none" stroke="#000000" stroke-width="3.3798" stroke-linecap="round" stroke-linejoin="round" d="M622.406,118.691
			c0.137,0.014,0.275,0.031,0.414,0.048"/>
		<path fill="none" stroke="#000000" stroke-width="3.3798" stroke-linecap="round" stroke-linejoin="round" d="M621.208,118.589
			c0.137,0.008,0.275,0.02,0.414,0.03"/>
		<path fill="none" stroke="#000000" stroke-width="3.3798" stroke-linecap="round" stroke-linejoin="round" d="M620.008,118.535
			c0.139,0.004,0.277,0.008,0.416,0.014"/>
		<path fill="none" stroke="#000000" stroke-width="3.3798" stroke-linecap="round" stroke-linejoin="round" d="M616.029,118.72
			c0.531-0.062,1.064-0.107,1.598-0.141"/>
		<path fill="none" stroke="#000000" stroke-width="3.3798" stroke-linecap="round" stroke-linejoin="round" d="M595.257,126.897
			c5.875-3.288,11.562-6.475,18.376-7.805"/>
		<path fill="none" stroke="#000000" stroke-width="3.3798" stroke-linecap="round" stroke-linejoin="round" d="M530.526,121.004
			c1.574,0.613,3.119,1.291,4.637,2.035"/>
		<path fill="none" stroke="#000000" stroke-width="3.3798" stroke-linecap="round" stroke-linejoin="round" d="M529.526,120.631
			c0.139,0.05,0.276,0.099,0.415,0.151"/>
		<path fill="none" stroke="#000000" stroke-width="3.3798" stroke-linecap="round" stroke-linejoin="round" d="M528.527,120.285
			c0.137,0.046,0.277,0.092,0.414,0.141"/>
		<path fill="none" stroke="#000000" stroke-width="3.3798" stroke-linecap="round" stroke-linejoin="round" d="M527.529,119.967
			c0.139,0.043,0.277,0.085,0.414,0.128"/>
		<path fill="none" stroke="#000000" stroke-width="3.3798" stroke-linecap="round" stroke-linejoin="round" d="M526.532,119.677
			c0.137,0.039,0.274,0.078,0.413,0.115"/>
		<path fill="none" stroke="#000000" stroke-width="3.3798" stroke-linecap="round" stroke-linejoin="round" d="M525.532,119.42
			c0.139,0.033,0.275,0.067,0.412,0.103"/>
		<path fill="none" stroke="#000000" stroke-width="3.3798" stroke-linecap="round" stroke-linejoin="round" d="M524.532,119.192
			c0.139,0.03,0.277,0.06,0.416,0.092"/>
		<path fill="none" stroke="#000000" stroke-width="3.3798" stroke-linecap="round" stroke-linejoin="round" d="M523.535,118.998
			c0.136,0.023,0.275,0.049,0.414,0.078"/>
		<path fill="none" stroke="#000000" stroke-width="3.3798" stroke-linecap="round" stroke-linejoin="round" d="M91.593,141.718
			c-4.678,2.281-3.434,2.007-8.029,4.444c-1.568,0.831-3.154,1.629-4.773,2.36c-2.852,1.29-5.807,2.372-8.867,3.018
			c-1.825,0.385-3.689,0.614-5.555,0.657c-1.853,0.041-3.706-0.101-5.533-0.408c-1.906-0.319-3.781-0.819-5.612-1.442
			c-2.17-0.74-4.276-1.654-6.338-2.656"/>
		<path fill="none" stroke="#000000" stroke-width="3.3798" stroke-linecap="round" stroke-linejoin="round" d="M12.16,148.192
			c-0.034,0.016-0.068,0.031-0.102,0.047"/>
		<path fill="none" stroke="#000000" stroke-width="3.3798" stroke-linecap="round" stroke-linejoin="round" d="M35.528,136.314
			c-6.37,2.322-12.003,5.878-17.878,9.075"/>
		<path fill="none" stroke="#000000" stroke-width="3.3798" stroke-linecap="round" stroke-linejoin="round" d="M80.969,147.887
			c-0.137-0.065-0.273-0.129-0.409-0.197"/>
		<path fill="none" stroke="#000000" stroke-width="3.3798" stroke-linecap="round" stroke-linejoin="round" d="M84.665,149.518
			c-0.234-0.093-0.468-0.188-0.7-0.285"/>
		<path fill="none" stroke="#000000" stroke-width="3.3798" stroke-linecap="round" stroke-linejoin="round" d="M98.268,152.189
			c-2.182,0.068-4.369-0.125-6.514-0.537c-2.391-0.46-4.727-1.199-6.989-2.096"/>
		<path fill="none" stroke="#000000" stroke-width="3.3798" stroke-linecap="round" stroke-linejoin="round" d="M194.221,151.896"/>
		<path fill="none" stroke="#000000" stroke-width="3.3798" stroke-linecap="round" stroke-linejoin="round" d="M211.398,149.418
			c-4.29,1.739-8.485,2.817-13.182,2.782"/>
		<path fill="none" stroke="#000000" stroke-width="3.3798" stroke-linecap="round" stroke-linejoin="round" d="M219.39,145.556
			c-1.578,0.861-3.174,1.677-4.793,2.452"/>
		<path fill="none" stroke="#000000" stroke-width="3.3798" stroke-linecap="round" stroke-linejoin="round" d="M224.98,142.447
			c-0.931,0.521-1.861,1.043-2.795,1.566"/>
		<path fill="none" stroke="#000000" stroke-width="3.3798" stroke-linecap="round" stroke-linejoin="round" d="M293.692,151.632
			c-3.403-0.67-6.555-1.839-9.688-3.279"/>
		<path fill="none" stroke="#000000" stroke-width="3.3798" stroke-linecap="round" stroke-linejoin="round" d="M296.488,152.05
			c-0.399-0.042-0.799-0.089-1.198-0.148"/>
		<path fill="none" stroke="#000000" stroke-width="3.3798" stroke-linecap="round" stroke-linejoin="round" d="M297.688,152.148
			c-0.3-0.018-0.599-0.042-0.897-0.069"/>
		<path fill="none" stroke="#000000" stroke-width="3.3798" stroke-linecap="round" stroke-linejoin="round" d="M298.888,152.196
			c-0.334-0.007-0.667-0.019-0.999-0.036"/>
		<path fill="none" stroke="#000000" stroke-width="3.3798" stroke-linecap="round" stroke-linejoin="round" d="M311.671,149.717
			c-3.121,1.206-6.236,2.057-9.59,2.364"/>
		<path fill="none" stroke="#000000" stroke-width="3.3798" stroke-linecap="round" stroke-linejoin="round" d="M341.171,135.469
			c-0.594,0.172-1.185,0.361-1.769,0.563c-0.664,0.226-1.318,0.469-1.969,0.724c-1.421,0.56-2.817,1.186-4.192,1.853
			c-5.124,2.479-9.964,5.498-15.019,8.108c-2.011,1.036-4.052,2.009-6.152,2.844"/>
		<path fill="none" stroke="#000000" stroke-width="3.3798" stroke-linecap="round" stroke-linejoin="round" d="M442.7,135.326
			c-2.959,0.813-5.792,1.999-8.55,3.337c-4.741,2.304-9.243,5.063-13.902,7.527c-1.601,0.847-3.218,1.66-4.873,2.402
			c-2.839,1.274-5.781,2.342-8.826,2.971c-1.788,0.369-3.61,0.589-5.436,0.63c-1.832,0.042-3.667-0.096-5.473-0.396
			c-1.934-0.32-3.835-0.825-5.693-1.459c-2.165-0.738-4.265-1.651-6.32-2.649"/>
		<path fill="none" stroke="#000000" stroke-width="3.3798" stroke-linecap="round" stroke-linejoin="round" d="M522.535,145.513
			c-1.838,1-3.71,1.965-5.614,2.841c-1.591,0.731-3.21,1.402-4.866,1.969c-2.885,0.987-5.894,1.665-8.934,1.835
			c-2.959,0.167-5.947-0.146-8.83-0.843c-3.346-0.807-6.547-2.131-9.64-3.626"/>
		<path fill="none" stroke="#000000" stroke-width="3.3798" stroke-linecap="round" stroke-linejoin="round" d="M527.329,142.851
			c-0.113,0.063-0.226,0.126-0.338,0.19"/>
		<path fill="none" stroke="#000000" stroke-width="3.3798" stroke-linecap="round" stroke-linejoin="round" d="M539.715,136.666
			c-1.631,0.639-3.225,1.346-4.796,2.121"/>
		<path fill="none" stroke="#000000" stroke-width="3.3798" stroke-linecap="round" stroke-linejoin="round" d="M540.712,136.29
			c-0.313,0.113-0.626,0.23-0.938,0.351"/>
		<path fill="none" stroke="#000000" stroke-width="3.3798" stroke-linecap="round" stroke-linejoin="round" d="M606.825,151.877"/>
		<path fill="none" stroke="#000000" stroke-width="3.3798" stroke-linecap="round" stroke-linejoin="round" d="M687.581,148.114
			c-0.295-0.139-0.591-0.281-0.885-0.424"/>
		<path fill="none" stroke="#000000" stroke-width="3.3798" stroke-linecap="round" stroke-linejoin="round" d="M692.975,150.326
			c-0.021-0.008-0.04-0.014-0.06-0.021"/>
		<path fill="none" stroke="#000000" stroke-width="3.3798" stroke-linecap="round" stroke-linejoin="round" d="M664.827,120.852
			c1.713,0.654,3.386,1.381,5.031,2.188"/>
		<path fill="none" stroke="#000000" stroke-width="3.3798" stroke-linecap="round" stroke-linejoin="round" d="M658.235,118.998
			c0.309,0.055,0.615,0.115,0.925,0.179"/>
		<path fill="none" stroke="#000000" stroke-width="3.3798" stroke-linecap="round" stroke-linejoin="round" d="M657.237,118.835
			c0.309,0.045,0.615,0.095,0.922,0.148"/>
		<path fill="none" stroke="#000000" stroke-width="3.3798" stroke-linecap="round" stroke-linejoin="round" d="M656.14,118.696
			c0.34,0.038,0.68,0.08,1.023,0.129"/>
		<path fill="none" stroke="#000000" stroke-width="3.3798" stroke-linecap="round" stroke-linejoin="round" d="M655.041,118.6
			c0.34,0.023,0.683,0.054,1.022,0.088"/>
		<path fill="none" stroke="#000000" stroke-width="3.3798" stroke-linecap="round" stroke-linejoin="round" d="M653.941,118.543
			c0.34,0.012,0.682,0.028,1.023,0.051"/>
		<path fill="none" stroke="#000000" stroke-width="3.3798" stroke-linecap="round" stroke-linejoin="round" d="M652.843,118.529
			c0.341-0.003,0.682,0,1.022,0.011"/>
		<path fill="none" stroke="#000000" stroke-width="3.3798" stroke-linecap="round" stroke-linejoin="round" d="M652.044,118.545
			c0.24-0.008,0.481-0.014,0.723-0.016"/>
		<path fill="none" stroke="#000000" stroke-width="3.3798" stroke-linecap="round" stroke-linejoin="round" d="M651.245,118.584
			c0.24-0.016,0.481-0.028,0.723-0.037"/>
		<path fill="none" stroke="#000000" stroke-width="3.3798" stroke-linecap="round" stroke-linejoin="round" d="M650.446,118.644
			c0.241-0.022,0.481-0.04,0.723-0.056"/>
		<path fill="none" stroke="#000000" stroke-width="3.3798" stroke-linecap="round" stroke-linejoin="round" d="M649.647,118.727
			c0.241-0.029,0.481-0.054,0.723-0.077"/>
		<path fill="none" stroke="#000000" stroke-width="3.3798" stroke-linecap="round" stroke-linejoin="round" d="M648.449,118.891
			c0.371-0.059,0.746-0.11,1.122-0.156"/>
		<path fill="none" stroke="#000000" stroke-width="3.3798" stroke-linecap="round" stroke-linejoin="round" d="M647.248,119.103
			c0.374-0.073,0.749-0.14,1.124-0.2"/>
		<path fill="none" stroke="#000000" stroke-width="3.3798" stroke-linecap="round" stroke-linejoin="round" d="M646.052,119.364
			c0.371-0.088,0.747-0.17,1.123-0.246"/>
		<path fill="none" stroke="#000000" stroke-width="3.3798" stroke-linecap="round" stroke-linejoin="round" d="M644.775,119.689
			c0.399-0.109,0.799-0.213,1.202-0.308"/>
		<path fill="none" stroke="#000000" stroke-width="3.3798" stroke-linecap="round" stroke-linejoin="round" d="M642.854,120.272
			c0.308-0.1,0.614-0.2,0.923-0.293"/>
		<path fill="none" stroke="#000000" stroke-width="3.3798" stroke-linecap="round" stroke-linejoin="round" d="M635.988,123.134
			c2.206-1.098,4.46-2.039,6.791-2.837"/>
		<path fill="none" stroke="#000000" stroke-width="3.3798" stroke-linecap="round" stroke-linejoin="round" d="M634.965,123.644
			c0.008-0.004,0.019-0.008,0.024-0.011"/>
		<path fill="none" stroke="#000000" stroke-width="3.3798" stroke-linecap="round" stroke-linejoin="round" d="M627.676,127.601
			c0.106-0.06,0.214-0.121,0.323-0.182"/>
		<path fill="none" stroke="#000000" stroke-width="3.3798" stroke-linecap="round" stroke-linejoin="round" d="M618.81,132.321
			c1.373-0.658,2.73-1.348,4.072-2.07"/>
		<path fill="none" stroke="#000000" stroke-width="3.3798" stroke-linecap="round" stroke-linejoin="round" d="M564.88,121.273
			c0.026,0.009,0.052,0.021,0.078,0.03"/>
		<path fill="none" stroke="#000000" stroke-width="3.3798" stroke-linecap="round" stroke-linejoin="round" d="M561.66,120.109
			c0.344,0.109,0.684,0.222,1.023,0.338"/>
		<path fill="none" stroke="#000000" stroke-width="3.3798" stroke-linecap="round" stroke-linejoin="round" d="M558.165,119.184
			c1.157,0.245,2.294,0.545,3.42,0.9"/>
		<path fill="none" stroke="#000000" stroke-width="3.3798" stroke-linecap="round" stroke-linejoin="round" d="M556.967,118.955
			c0.376,0.063,0.749,0.135,1.122,0.212"/>
		<path fill="none" stroke="#000000" stroke-width="3.3798" stroke-linecap="round" stroke-linejoin="round" d="M555.769,118.775
			c0.375,0.049,0.75,0.104,1.123,0.167"/>
		<path fill="none" stroke="#000000" stroke-width="3.3798" stroke-linecap="round" stroke-linejoin="round" d="M554.771,118.662
			c0.309,0.029,0.614,0.063,0.923,0.103"/>
		<path fill="none" stroke="#000000" stroke-width="3.3798" stroke-linecap="round" stroke-linejoin="round" d="M553.772,118.584
			c0.307,0.017,0.613,0.042,0.922,0.071"/>
		<path fill="none" stroke="#000000" stroke-width="3.3798" stroke-linecap="round" stroke-linejoin="round" d="M552.772,118.54
			c0.307,0.008,0.617,0.021,0.924,0.039"/>
		<path fill="none" stroke="#000000" stroke-width="3.3798" stroke-linecap="round" stroke-linejoin="round" d="M551.773,118.529
			c0.309-0.004,0.615,0,0.923,0.007"/>
		<path fill="none" stroke="#000000" stroke-width="3.3798" stroke-linecap="round" stroke-linejoin="round" d="M550.773,118.555
			c0.309-0.014,0.617-0.022,0.924-0.026"/>
		<path fill="none" stroke="#000000" stroke-width="3.3798" stroke-linecap="round" stroke-linejoin="round" d="M549.775,118.614
			c0.309-0.023,0.615-0.042,0.924-0.056"/>
		<path fill="none" stroke="#000000" stroke-width="3.3798" stroke-linecap="round" stroke-linejoin="round" d="M548.778,118.708
			c0.307-0.034,0.614-0.062,0.923-0.087"/>
		<path fill="none" stroke="#000000" stroke-width="3.3798" stroke-linecap="round" stroke-linejoin="round" d="M542.91,119.931
			c1.9-0.579,3.818-0.98,5.792-1.214"/>
		<path fill="none" stroke="#000000" stroke-width="3.3798" stroke-linecap="round" stroke-linejoin="round" d="M527.529,127.111
			c2.555-1.461,5.15-2.843,7.789-4.146"/>
		<path fill="none" stroke="#000000" stroke-width="3.3798" stroke-linecap="round" stroke-linejoin="round" d="M510.228,135.273
			c4.375-1.269,8.344-3.239,12.308-5.389"/>
		<path fill="none" stroke="#000000" stroke-width="3.3798" stroke-linecap="round" stroke-linejoin="round" d="M408.759,135.399
			c2.973-0.821,5.82-2.013,8.588-3.36c4.702-2.286,9.168-5.021,13.785-7.467c1.6-0.848,3.218-1.663,4.872-2.405
			c2.809-1.265,5.717-2.328,8.727-2.965c1.832-0.39,3.703-0.622,5.576-0.666c1.856-0.043,3.718,0.098,5.55,0.407
			c1.908,0.319,3.784,0.818,5.614,1.441c2.172,0.74,4.279,1.654,6.341,2.658"/>
		<path fill="none" stroke="#000000" stroke-width="3.3798" stroke-linecap="round" stroke-linejoin="round" d="M312.07,133.932
			c2.05-0.814,4.045-1.761,6.007-2.769c3.916-2.015,7.703-4.278,11.585-6.354c1.576-0.842,3.169-1.656,4.792-2.403
			c3.076-1.416,6.269-2.607,9.589-3.273c1.812-0.367,3.663-0.576,5.515-0.603c1.793-0.025,3.585,0.123,5.353,0.423
			c1.899,0.323,3.77,0.824,5.593,1.448c2.151,0.737,4.241,1.646,6.287,2.638"/>
		<path fill="none" stroke="#000000" stroke-width="3.3798" stroke-linecap="round" stroke-linejoin="round" d="M308.012,135.322
			c1.246-0.357,2.466-0.771,3.672-1.24"/>
		<path fill="none" stroke="#000000" stroke-width="3.3798" stroke-linecap="round" stroke-linejoin="round" d="M257.356,119.738
			c0.326,0.092,0.656,0.188,0.981,0.291"/>
		<path fill="none" stroke="#000000" stroke-width="3.3798" stroke-linecap="round" stroke-linejoin="round" d="M236.183,121.219
			c0.66-0.264,1.327-0.513,1.997-0.748"/>
		<path fill="none" stroke="#000000" stroke-width="3.3798" stroke-linecap="round" stroke-linejoin="round" d="M228.592,124.833
			c1.058-0.566,2.122-1.116,3.198-1.645"/>
		<path fill="none" stroke="#000000" stroke-width="3.3798" stroke-linecap="round" stroke-linejoin="round" d="M221.387,128.831
			c1.465-0.818,2.931-1.638,4.393-2.458"/>
		<path fill="none" stroke="#000000" stroke-width="3.3798" stroke-linecap="round" stroke-linejoin="round" d="M206.623,135.425
			c1.354-0.375,2.684-0.815,3.993-1.325"/>
		<path fill="none" stroke="#000000" stroke-width="3.3798" stroke-linecap="round" stroke-linejoin="round" d="M63.606,122.983
			c0.04,0.018,0.079,0.037,0.116,0.057"/>
		<path fill="none" stroke="#000000" stroke-width="3.3798" stroke-linecap="round" stroke-linejoin="round" d="M54.42,119.5
			c1.627,0.417,3.214,0.932,4.776,1.546"/>
		<path fill="none" stroke="#000000" stroke-width="3.3798" stroke-linecap="round" stroke-linejoin="round" d="M50.824,118.798
			c0.4,0.054,0.8,0.116,1.197,0.186"/>
		<path fill="none" stroke="#000000" stroke-width="3.3798" stroke-linecap="round" stroke-linejoin="round" d="M49.825,118.679
			c0.094,0.009,0.189,0.019,0.283,0.03"/>
		<path fill="none" stroke="#000000" stroke-width="3.3798" stroke-linecap="round" stroke-linejoin="round" d="M48.827,118.595
			c0.061,0.004,0.122,0.008,0.183,0.012"/>
		<path fill="none" stroke="#000000" stroke-width="3.3798" stroke-linecap="round" stroke-linejoin="round" d="M47.828,118.543
			c0.027,0.001,0.056,0.001,0.084,0.002"/>
		<path fill="none" stroke="#000000" stroke-width="3.3798" stroke-linecap="round" stroke-linejoin="round" d="M37.541,120.01
			c0.426-0.131,0.854-0.255,1.283-0.372"/>
		<path fill="none" stroke="#000000" stroke-width="3.3798" stroke-linecap="round" stroke-linejoin="round" d="M34.844,120.944
			c0.3-0.115,0.599-0.228,0.898-0.334"/>
		<path fill="none" stroke="#000000" stroke-width="3.3798" stroke-linecap="round" stroke-linejoin="round" d="M24.658,125.862
			c1.314-0.729,2.64-1.436,3.979-2.121"/>
		<path fill="none" stroke="#000000" stroke-width="3.3798" stroke-linecap="round" stroke-linejoin="round" d="M8.862,133.985
			c2.748-1.112,5.407-2.375,8.007-3.801"/>
		<path fill="none" stroke="#000000" stroke-width="3.3798" stroke-linecap="round" stroke-linejoin="round" d="M4.868,135.343
			c0.374-0.104,0.743-0.216,1.114-0.333"/>
		<path fill="none" stroke="#000000" stroke-width="3.3798" stroke-linecap="round" stroke-linejoin="round" d="M311.684,134.082
			c0.131-0.049,0.258-0.099,0.387-0.15"/>
		<path fill="none" stroke="#000000" stroke-width="3.3798" stroke-linecap="round" stroke-linejoin="round" d="M258.338,120.029
			c2.56,0.817,5.023,1.815,7.43,3.01"/>
		<path fill="none" stroke="#000000" stroke-width="3.3798" stroke-linecap="round" stroke-linejoin="round" d="M238.18,120.471
			c0.834-0.29,1.674-0.553,2.521-0.787c0.772-0.213,1.552-0.4,2.337-0.559c1.593-0.319,3.21-0.519,4.836-0.579
			c1.558-0.058,3.122,0.014,4.672,0.207c1.625,0.204,3.234,0.542,4.811,0.984"/>
		<path fill="none" stroke="#000000" stroke-width="3.3798" stroke-linecap="round" stroke-linejoin="round" d="M231.79,123.189
			c1.438-0.714,2.902-1.37,4.393-1.97"/>
		<path fill="none" stroke="#000000" stroke-width="3.3798" stroke-linecap="round" stroke-linejoin="round" d="M225.779,126.373
			c0.936-0.521,1.872-1.033,2.812-1.539"/>
		<path fill="none" stroke="#000000" stroke-width="3.3798" stroke-linecap="round" stroke-linejoin="round" d="M210.616,134.1
			c3.757-1.45,7.267-3.322,10.771-5.27"/>
		<path fill="none" stroke="#000000" stroke-width="3.3798" stroke-linecap="round" stroke-linejoin="round" d="M59.196,121.047
			c1.497,0.587,2.965,1.231,4.41,1.937"/>
		<path fill="none" stroke="#000000" stroke-width="3.3798" stroke-linecap="round" stroke-linejoin="round" d="M52.021,118.984
			c0.808,0.142,1.604,0.314,2.398,0.517"/>
		<path fill="none" stroke="#000000" stroke-width="3.3798" stroke-linecap="round" stroke-linejoin="round" d="M50.108,118.708
			c0.238,0.026,0.478,0.057,0.716,0.088"/>
		<path fill="none" stroke="#000000" stroke-width="3.3798" stroke-linecap="round" stroke-linejoin="round" d="M49.01,118.607
			c0.272,0.019,0.545,0.043,0.815,0.072"/>
		<path fill="none" stroke="#000000" stroke-width="3.3798" stroke-linecap="round" stroke-linejoin="round" d="M47.912,118.546
			c0.305,0.012,0.609,0.026,0.915,0.049"/>
		<path fill="none" stroke="#000000" stroke-width="3.3798" stroke-linecap="round" stroke-linejoin="round" d="M38.824,119.638
			c2.979-0.826,5.913-1.184,9.004-1.095"/>
		<path fill="none" stroke="#000000" stroke-width="3.3798" stroke-linecap="round" stroke-linejoin="round" d="M35.742,120.609
			c0.596-0.213,1.194-0.413,1.799-0.6"/>
		<path fill="none" stroke="#000000" stroke-width="3.3798" stroke-linecap="round" stroke-linejoin="round" d="M28.638,123.741
			c2.022-1.042,4.085-1.974,6.206-2.797"/>
		<path fill="none" stroke="#000000" stroke-width="3.3798" stroke-linecap="round" stroke-linejoin="round" d="M16.869,130.185
			c2.604-1.427,5.201-2.867,7.789-4.323"/>
		<path fill="none" stroke="#000000" stroke-width="3.3798" stroke-linecap="round" stroke-linejoin="round" d="M5.982,135.01
			c0.972-0.309,1.932-0.65,2.88-1.025"/>
		<path fill="none" stroke="#000000" stroke-width="3.3798" stroke-linecap="round" stroke-linejoin="round" d="M12.059,148.24
			c-1.052,0.489-2.117,0.948-3.196,1.375"/>
		<path fill="none" stroke="#000000" stroke-width="3.3798" stroke-linecap="round" stroke-linejoin="round" d="M17.65,145.39
			c-1.802,0.992-3.632,1.924-5.49,2.803"/>
		<path fill="none" stroke="#000000" stroke-width="3.3798" stroke-linecap="round" stroke-linejoin="round" d="M38.763,135.283
			c-1.093,0.299-2.169,0.644-3.234,1.031"/>
		<path fill="none" stroke="#000000" stroke-width="3.3798" stroke-linecap="round" stroke-linejoin="round" d="M83.965,149.233
			c-1.01-0.423-2.009-0.87-2.996-1.346"/>
		<path fill="none" stroke="#000000" stroke-width="3.3798" stroke-linecap="round" stroke-linejoin="round" d="M84.765,149.557
			c-0.034-0.013-0.067-0.026-0.1-0.04"/>
		<path fill="none" stroke="#000000" stroke-width="3.3798" stroke-linecap="round" stroke-linejoin="round" d="M198.217,152.2
			c-1.341-0.01-2.667-0.11-3.996-0.304"/>
		<path fill="none" stroke="#000000" stroke-width="3.3798" stroke-linecap="round" stroke-linejoin="round" d="M214.597,148.008
			c-1.053,0.5-2.118,0.972-3.198,1.41"/>
		<path fill="none" stroke="#000000" stroke-width="3.3798" stroke-linecap="round" stroke-linejoin="round" d="M222.186,144.013
			c-0.928,0.521-1.86,1.036-2.796,1.543"/>
		<path fill="none" stroke="#000000" stroke-width="3.3798" stroke-linecap="round" stroke-linejoin="round" d="M225.779,142.001
			c-0.266,0.149-0.531,0.296-0.799,0.446"/>
		<path fill="none" stroke="#000000" stroke-width="3.3798" stroke-linecap="round" stroke-linejoin="round" d="M284.004,148.353
			c-0.468-0.214-0.935-0.437-1.398-0.663"/>
		<path fill="none" stroke="#000000" stroke-width="3.3798" stroke-linecap="round" stroke-linejoin="round" d="M295.29,151.902
			c-0.535-0.075-1.066-0.167-1.598-0.271"/>
		<path fill="none" stroke="#000000" stroke-width="3.3798" stroke-linecap="round" stroke-linejoin="round" d="M296.79,152.079
			c-0.101-0.008-0.2-0.019-0.302-0.029"/>
		<path fill="none" stroke="#000000" stroke-width="3.3798" stroke-linecap="round" stroke-linejoin="round" d="M297.889,152.161
			c-0.067-0.004-0.134-0.008-0.201-0.012"/>
		<path fill="none" stroke="#000000" stroke-width="3.3798" stroke-linecap="round" stroke-linejoin="round" d="M302.081,152.081
			c-1.064,0.098-2.126,0.136-3.193,0.116"/>
		<path fill="none" stroke="#000000" stroke-width="3.3798" stroke-linecap="round" stroke-linejoin="round" d="M312.07,149.561
			c-0.136,0.051-0.268,0.103-0.399,0.156"/>
		<path fill="none" stroke="#000000" stroke-width="3.3798" stroke-linecap="round" stroke-linejoin="round" d="M812.979,135.363
			c2.893-0.811,5.671-1.971,8.368-3.28c4.736-2.298,9.233-5.054,13.883-7.516c1.605-0.853,3.232-1.668,4.893-2.415
			c2.832-1.272,5.769-2.342,8.808-2.976c1.834-0.383,3.704-0.607,5.575-0.645c1.818-0.036,3.641,0.105,5.433,0.406
			c1.954,0.327,3.878,0.843,5.755,1.488c2.125,0.732,4.188,1.631,6.211,2.612"/>
		<path fill="none" stroke="#000000" stroke-width="3.3798" stroke-linecap="round" stroke-linejoin="round" d="M659.16,119.177
			c1.937,0.415,3.815,0.97,5.667,1.675"/>
		<path fill="none" stroke="#000000" stroke-width="3.3798" stroke-linecap="round" stroke-linejoin="round" d="M658.159,118.984
			c0.025,0.004,0.052,0.01,0.076,0.014"/>
		<path fill="none" stroke="#000000" stroke-width="3.3798" stroke-linecap="round" stroke-linejoin="round" d="M657.163,118.825
			c0.022,0.004,0.048,0.008,0.074,0.011"/>
		<path fill="none" stroke="#000000" stroke-width="3.3798" stroke-linecap="round" stroke-linejoin="round" d="M656.063,118.688
			c0.023,0.003,0.05,0.006,0.076,0.008"/>
		<path fill="none" stroke="#000000" stroke-width="3.3798" stroke-linecap="round" stroke-linejoin="round" d="M654.965,118.595
			c0.026,0,0.05,0.002,0.076,0.005"/>
		<path fill="none" stroke="#000000" stroke-width="3.3798" stroke-linecap="round" stroke-linejoin="round" d="M653.865,118.54
			c0.025,0.001,0.05,0.002,0.076,0.004"/>
		<path fill="none" stroke="#000000" stroke-width="3.3798" stroke-linecap="round" stroke-linejoin="round" d="M652.767,118.529
			c0.024,0,0.051,0,0.076,0"/>
		<path fill="none" stroke="#000000" stroke-width="3.3798" stroke-linecap="round" stroke-linejoin="round" d="M651.968,118.547
			c0.026-0.001,0.05-0.002,0.076-0.002"/>
		<path fill="none" stroke="#000000" stroke-width="3.3798" stroke-linecap="round" stroke-linejoin="round" d="M651.169,118.588
			c0.026-0.001,0.05-0.003,0.076-0.004"/>
		<path fill="none" stroke="#000000" stroke-width="3.3798" stroke-linecap="round" stroke-linejoin="round" d="M650.37,118.65
			c0.026-0.002,0.05-0.004,0.076-0.006"/>
		<path fill="none" stroke="#000000" stroke-width="3.3798" stroke-linecap="round" stroke-linejoin="round" d="M649.571,118.735
			c0.025-0.002,0.05-0.005,0.076-0.008"/>
		<path fill="none" stroke="#000000" stroke-width="3.3798" stroke-linecap="round" stroke-linejoin="round" d="M648.372,118.903
			c0.026-0.004,0.051-0.008,0.077-0.013"/>
		<path fill="none" stroke="#000000" stroke-width="3.3798" stroke-linecap="round" stroke-linejoin="round" d="M647.175,119.118
			c0.023-0.004,0.05-0.009,0.073-0.015"/>
		<path fill="none" stroke="#000000" stroke-width="3.3798" stroke-linecap="round" stroke-linejoin="round" d="M645.978,119.381
			c0.022-0.005,0.049-0.012,0.074-0.017"/>
		<path fill="none" stroke="#000000" stroke-width="3.3798" stroke-linecap="round" stroke-linejoin="round" d="M643.777,119.979
			c0.332-0.102,0.665-0.199,0.998-0.29"/>
		<path fill="none" stroke="#000000" stroke-width="3.3798" stroke-linecap="round" stroke-linejoin="round" d="M642.779,120.297
			c0.026-0.008,0.049-0.017,0.075-0.025"/>
		<path fill="none" stroke="#000000" stroke-width="3.3798" stroke-linecap="round" stroke-linejoin="round" d="M634.989,123.632
			c0.332-0.168,0.664-0.333,0.999-0.499"/>
		<path fill="none" stroke="#000000" stroke-width="3.3798" stroke-linecap="round" stroke-linejoin="round" d="M627.999,127.419
			c2.295-1.309,4.617-2.566,6.966-3.776"/>
		<path fill="none" stroke="#000000" stroke-width="3.3798" stroke-linecap="round" stroke-linejoin="round" d="M622.882,130.25
			c1.605-0.868,3.204-1.749,4.794-2.649"/>
		<path fill="none" stroke="#000000" stroke-width="3.3798" stroke-linecap="round" stroke-linejoin="round" d="M610.898,135.374
			c2.734-0.794,5.354-1.803,7.911-3.053"/>
		<path fill="none" stroke="#000000" stroke-width="3.3798" stroke-linecap="round" stroke-linejoin="round" d="M564.958,121.303
			c1.313,0.536,2.604,1.113,3.878,1.736"/>
		<path fill="none" stroke="#000000" stroke-width="3.3798" stroke-linecap="round" stroke-linejoin="round" d="M562.684,120.447
			c0.739,0.257,1.472,0.532,2.196,0.826"/>
		<path fill="none" stroke="#000000" stroke-width="3.3798" stroke-linecap="round" stroke-linejoin="round" d="M561.585,120.084
			c0.026,0.009,0.053,0.017,0.075,0.025"/>
		<path fill="none" stroke="#000000" stroke-width="3.3798" stroke-linecap="round" stroke-linejoin="round" d="M558.089,119.167
			c0.026,0.005,0.05,0.011,0.076,0.016"/>
		<path fill="none" stroke="#000000" stroke-width="3.3798" stroke-linecap="round" stroke-linejoin="round" d="M556.892,118.942
			c0.025,0.005,0.051,0.009,0.075,0.013"/>
		<path fill="none" stroke="#000000" stroke-width="3.3798" stroke-linecap="round" stroke-linejoin="round" d="M555.693,118.765
			c0.026,0.003,0.051,0.006,0.075,0.01"/>
		<path fill="none" stroke="#000000" stroke-width="3.3798" stroke-linecap="round" stroke-linejoin="round" d="M554.694,118.655
			c0.025,0.001,0.052,0.004,0.076,0.007"/>
		<path fill="none" stroke="#000000" stroke-width="3.3798" stroke-linecap="round" stroke-linejoin="round" d="M553.696,118.578
			c0.023,0.002,0.049,0.002,0.076,0.006"/>
		<path fill="none" stroke="#000000" stroke-width="3.3798" stroke-linecap="round" stroke-linejoin="round" d="M552.696,118.537
			c0.026,0,0.049,0.001,0.076,0.003"/>
		<path fill="none" stroke="#000000" stroke-width="3.3798" stroke-linecap="round" stroke-linejoin="round" d="M551.697,118.529
			c0.026,0,0.052,0,0.076,0"/>
		<path fill="none" stroke="#000000" stroke-width="3.3798" stroke-linecap="round" stroke-linejoin="round" d="M550.699,118.558
			c0.026,0,0.051-0.002,0.074-0.003"/>
		<path fill="none" stroke="#000000" stroke-width="3.3798" stroke-linecap="round" stroke-linejoin="round" d="M549.701,118.621
			c0.024-0.002,0.051-0.004,0.074-0.007"/>
		<path fill="none" stroke="#000000" stroke-width="3.3798" stroke-linecap="round" stroke-linejoin="round" d="M548.702,118.717
			c0.026-0.002,0.05-0.005,0.076-0.008"/>
		<path fill="none" stroke="#000000" stroke-width="3.3798" stroke-linecap="round" stroke-linejoin="round" d="M535.318,122.964
			c2.459-1.216,4.971-2.219,7.592-3.034"/>
		<path fill="none" stroke="#000000" stroke-width="3.3798" stroke-linecap="round" stroke-linejoin="round" d="M522.535,129.884
			c1.67-0.912,3.337-1.838,4.994-2.773"/>
		<path fill="none" stroke="#000000" stroke-width="3.3798" stroke-linecap="round" stroke-linejoin="round" d="M526.991,143.041
			c-1.479,0.835-2.964,1.66-4.456,2.473"/>
		<path fill="none" stroke="#000000" stroke-width="3.3798" stroke-linecap="round" stroke-linejoin="round" d="M534.919,138.787
			c-2.567,1.285-5.096,2.638-7.59,4.064"/>
		<path fill="none" stroke="#000000" stroke-width="3.3798" stroke-linecap="round" stroke-linejoin="round" d="M539.774,136.641
			c-0.02,0.007-0.041,0.017-0.06,0.024"/>
		<path fill="none" stroke="#000000" stroke-width="3.3798" stroke-linecap="round" stroke-linejoin="round" d="M543.709,135.33
			c-1.012,0.281-2.011,0.601-2.997,0.96"/>
		<path fill="none" stroke="#000000" stroke-width="3.3798" stroke-linecap="round" stroke-linejoin="round" d="M606.825,151.879"/>
		<path fill="none" stroke="#000000" stroke-width="3.3798" stroke-linecap="round" stroke-linejoin="round" d="M692.915,150.305
			c-1.82-0.636-3.592-1.364-5.334-2.191"/>
		<path fill="none" stroke="#000000" stroke-width="3.3798" stroke-linecap="round" stroke-linejoin="round" d="M692.975,150.326"/>
		<path fill="none" stroke="#000000" stroke-width="3.3798" stroke-linecap="round" stroke-linejoin="round" d="M846.516,135.403
			c-2.899,0.824-5.684,1.996-8.39,3.316c-4.686,2.284-9.138,5.012-13.74,7.448c-1.59,0.842-3.195,1.648-4.836,2.387
			c-2.827,1.274-5.754,2.344-8.788,2.983c-1.772,0.375-3.581,0.603-5.395,0.653c-1.87,0.053-3.746-0.081-5.591-0.384
			c-1.956-0.321-7.535-2.541-9.408-3.181"/>
		<path fill="none" stroke="#000000" stroke-width="3.3798" stroke-linecap="round" stroke-linejoin="round" d="M880.901,135.403
			c-2.899,0.824-5.682,1.996-8.389,3.316c-4.686,2.284-9.14,5.012-13.742,7.448c-1.589,0.842-3.193,1.648-4.835,2.387
			c-2.825,1.274-5.753,2.344-8.786,2.983c-1.772,0.375-3.581,0.603-5.395,0.653c-1.872,0.053-3.746-0.081-5.592-0.384
			c-1.957-0.321-3.878-0.831-5.754-1.473c-2.157-0.737-4.253-1.648-6.305-2.644"/>
		<path d="M252.359,125.488"/>
		<path d="M234.305,91.022c7.202,0.041,14.404,0.08,21.607,0.084c3.403,0.001,6.784,0,10.183-0.248
			c3.411-0.25,9.777-2.617,12.111-0.141c7.879,8.355,18.734,13.353,25.344,22.951c2.457,3.57,5.731,8.92,3.759,13.05
			c-2.278,4.775,2.877,8.014,2.471,12.431c-0.983,10.664-16.826,5.013-20.756-0.403c-1.483-2.043-5.131-4.973-5.6-7.367
			c-0.419-2.151-1.115-4.274-2.115-6.225c-3.949-7.709-12.265-6.535-20.744-6.23l0,0c-1.964,0.085-13.073,1.361-12.879-2.667
			c0.313-6.478,18.787-5.092,22.146-4.264c13.237,3.238,19.18,17.85,31.766,21.702c-0.238-4.344,0.501-8.024,1.374-12.236
			c0.968-4.666-1.15-5.627-4.328-8.722c-5.592-5.442-11.694-10.083-17.691-15.053c-1.464-1.213-4.574-5.172-6.473-4.896
			c-5.515,0.803-11.04,1.586-16.529,2.545C250.791,96.582,239.309,97.542,234.305,91.022"/>
		<path fill-rule="evenodd" clip-rule="evenodd" d="M22.587,45.835c0,0,22.639,6.872,26.832,7.865s19.587,4.476,21.596,4.929
			c2.009,0.455,16.826,3.943,18.612,4.399c1.787,0.456,23.243,6.919,31.066,9.534c7.824,2.615,14.67,4.51,23.215,7.113
			c8.547,2.601,18.942,5.862,23.569,8.903c4.628,3.041,8.41,5.23,10.843,9.35c2.433,4.121,5.636,9.474,5.106,14.354
			c-0.528,4.88,0.386,5.411-1.106,5.382c-1.495-0.029-3.812-1.113-4.734-2.712s-0.619-4.405-1.114-7.045
			c-0.495-2.64-2.993-10.664-6.682-12.881c-3.691-2.215-5.741-4.079-14.649-4.371c-8.907-0.292-12.821-2.379-16.371-3.813
			c-3.548-1.434-15.117-6.905-21.698-9.057c-6.581-2.153-21.483-5.646-25.483-6.398c-3.998-0.752-19.605-3.581-24.196-4.763
			c-4.59-1.183-10.162-1.786-13.289-4.228c-3.127-2.442-6.646-4.592-9.403-5.614c-2.758-1.021-13.467-4.495-16.062-6.099
			C26.04,49.076,22.587,45.835,22.587,45.835z"/>
		<path fill-rule="evenodd" clip-rule="evenodd" d="M163.731,109.844c4.693-6.173,13.555,9.62,16.18,13.234
			c4.852,6.675,9.334,13.352,13.45,20.491c5.193,9.01,8.677,18.107,2.603,27.824c-5.395,8.626-16.039-5.982-20.743-7.389
			c-3.033,6.766-11.485,6.969-17.819,6.672c-5.014-0.236-10.001-0.829-14.988-1.358c-1.711-0.183-3.431-0.383-5.15-0.439
			c-2.328-0.074-1.483-1.35-3.071-3.234c5.377-0.604,10.499-3.38,14.771-6.565c3.663,6.047,15.823,2.368,21.335,1.642
			c-1.842-1.938-2.72-6.319,0.161-7.809c2.03-1.047,6.348,5.286,8.953,6.198c3.483,1.221,8.078,1.617,10.58-1.672
			c0.366-1.147-0.871-3.428-1.282-4.385C182.152,137.76,171.188,124.665,163.731,109.844"/>
		<path fill-rule="evenodd" clip-rule="evenodd" d="M12.739,103.278c0,0,4.236-1.01,18.769,1.908
			c14.532,2.917,28.914,5.919,32.213,6.526c3.3,0.606,10.716,1.618,13.01,3.105c2.293,1.49,8.223,7.249,10.464,11.045
			c2.241,3.797,10.195,20.194,13.063,25c2.87,4.806,7.063,12.206,12.596,14.782c0,0,2.949-1.234,5.291,0.381
			c2.342,1.614,4.567,0.777,6.198-0.381c0,0,1.646,0.901,2.386,1.125c0.743,0.223,3.497,0.483,2.539,3.799
			c0,0-5.189,3.845-15.216-0.332c0,0-6.826-2.703-12.687-7.874c-5.859-5.172-20.178-37.479-21.336-39.39
			c0,0-18.983-4.668-21.336-4.924c-2.352-0.255-10.203-0.06-14.069,0.105c-3.866,0.164-14.836-2.447-17.114-3.387
			c-2.278-0.942-12.271-2.909-13.13-4.924C14.38,109.844,11.568,104.463,12.739,103.278z"/>
		<path fill-rule="evenodd" clip-rule="evenodd" d="M29.15,4.037c-1.641,0-3.282,0-4.922,0c5.976,15.62,24.842,11.412,37.748,14.771
			c26.36,6.863,54.702,23.177,80.42,36.106c26.896,13.523,54.159,20.441,83.703,31.184c-3.925-14.107-25.041-12.819-45.954-18.053
			c-19.959-4.996-37.217-18.601-55.803-27.901c-19.957-9.988-38.06-24.411-54.161-27.901C54.456,8.833,41.772,13.507,29.15,4.037z"
			/>
		<path d="M224.459,134.247c2.382-0.417,3.93,0.455,6.047,1.283c3.509,1.373,3.502,0.332,4.574-2.455
			c1.382-3.583,4.047-5.928,8.011-5.847c2.06,0.042,6.484,2.967,5.986,5.378c0.902-4.36,11.2-5.685,14.214-4.629
			c1.155,0.405,3.809,0.63,4.356,2.019c0.646,1.637,1.498,5.71,4.406,4.251c-0.716,3.763,5.512,7.518,3.281,11.49
			c5.007-0.467,8.22-5.344,13.514-2.415c2.748,1.204,7.824,2.853,7.824,6.062c0,0.871,0.488,4.552-0.426,4.588
			c-2.574,0.104-4.717-1.054-7.149-1.58c-2.703-0.586-5.703-1.406-5.512,1.892c0.144,2.499,0.653,4.509,2.222,6.458
			c3.172,3.943,9.499,5.308,14.146,3.05c0.794-0.904,0.463-4.624,0.987-5.944c0.901-2.266,4.913-2.829,5.563-0.031
			c1.223,5.256-1.672,14.375-7.735,14.522c-7.921,0.19-10.619-5.104-16.866-8.547c0.796,2.835-1.687,9.749-4.816,10.14
			c-6.283,0.784-12.209-2.55-16.521-6.859c-3.096,3.761-8.405,4.113-12.898,4.141c-2.6,0.017-5.22-0.397-7.73-1.044
			c-4.906-1.266-8.337-4.492-12.812-6.291C218.254,160.314,218.854,139.999,224.459,134.247 M235.945,137.53
			c4.703,8.303,6.377,32.841,21.338,26.261c-2.716-5.596-5.944-11.089-7.615-17.108c-0.725-2.606,0.489-8.805-1.913-9.631
			C243.758,135.674,239.995,136.954,235.945,137.53 M265.309,139.986c-2.916-4.152-5.866-5.608-8.253-0.149
			c-1.396,3.19,0.134,7.606,1.274,10.645c2.151,5.744,6.688,16.027,14.726,14.85C279.368,164.41,266.677,142.396,265.309,139.986
			 M235.945,142.454c-2.071,0.04-3.987-1.985-5.878-1.736c-1.903,0.25-2.585,4.137-2.743,5.606
			c-0.526,4.908-0.759,12.084,4.914,13.89c5.924,1.885,5.174-0.83,4.338-5.571C235.871,150.646,235.833,146.5,235.945,142.454"/>
		<path d="M630.613,125.488"/>
		<path d="M648.667,91.022c-7.202,0.041-14.403,0.08-21.605,0.084c-3.404,0.001-6.786,0-10.184-0.248
			c-3.41-0.25-9.775-2.617-12.112-0.141c-7.875,8.355-18.733,13.353-25.342,22.951c-2.459,3.57-5.732,8.92-3.759,13.05
			c2.277,4.775-2.877,8.014-2.471,12.431c0.982,10.664,16.824,5.013,20.754-0.403c1.483-2.043,5.134-4.973,5.6-7.367
			c0.421-2.151,1.119-4.274,2.119-6.225c3.945-7.709,12.265-6.535,20.74-6.23l0,0c1.964,0.085,13.074,1.361,12.879-2.667
			c-0.312-6.478-18.786-5.092-22.146-4.264c-13.235,3.238-19.18,17.85-31.764,21.702c0.236-4.344-0.503-8.024-1.374-12.236
			c-0.967-4.666,1.15-5.627,4.327-8.722c5.591-5.442,11.695-10.083,17.694-15.053c1.462-1.213,4.573-5.172,6.469-4.896
			c5.518,0.803,11.041,1.586,16.531,2.545C632.181,96.582,643.663,97.542,648.667,91.022"/>
		<path fill-rule="evenodd" clip-rule="evenodd" d="M860.388,45.835c0,0-22.642,6.872-26.833,7.865
			c-4.192,0.993-19.588,4.476-21.595,4.929c-2.01,0.455-16.826,3.943-18.615,4.399c-1.787,0.456-23.239,6.919-31.066,9.534
			c-7.824,2.615-14.668,4.51-23.213,7.113c-8.547,2.601-18.942,5.862-23.569,8.903c-4.63,3.041-8.412,5.23-10.843,9.35
			c-2.433,4.121-5.636,9.474-5.107,14.354c0.527,4.88-0.385,5.411,1.108,5.382c1.492-0.029,3.812-1.113,4.733-2.712
			s0.62-4.405,1.115-7.045c0.492-2.64,2.99-10.664,6.679-12.881c3.692-2.215,5.745-4.079,14.651-4.371
			c8.907-0.292,12.821-2.379,16.369-3.813c3.549-1.434,15.119-6.905,21.698-9.057c6.583-2.153,21.487-5.646,25.484-6.398
			c3.998-0.752,19.606-3.581,24.194-4.763c4.592-1.183,10.164-1.786,13.292-4.228c3.127-2.442,6.646-4.592,9.403-5.614
			c2.758-1.021,13.468-4.495,16.062-6.099C856.933,49.076,860.388,45.835,860.388,45.835z"/>
		<path fill-rule="evenodd" clip-rule="evenodd" d="M719.24,109.844c-4.693-6.173-13.554,9.62-16.178,13.234
			c-4.852,6.675-9.336,13.352-13.45,20.491c-5.195,9.01-8.679,18.107-2.604,27.824c5.396,8.626,16.039-5.982,20.742-7.389
			c3.033,6.766,11.486,6.969,17.821,6.672c5.012-0.236,9.999-0.829,14.988-1.358c1.711-0.183,3.428-0.383,5.15-0.439
			c2.33-0.074,1.483-1.35,3.073-3.234c-5.381-0.604-10.501-3.38-14.772-6.565c-3.665,6.047-15.821,2.368-21.336,1.642
			c1.843-1.938,2.723-6.319-0.162-7.809c-2.026-1.047-6.347,5.286-8.953,6.198c-3.481,1.221-8.074,1.617-10.58-1.672
			c-0.364-1.147,0.872-3.428,1.282-4.385C700.819,137.76,711.784,124.665,719.24,109.844"/>
		<path fill-rule="evenodd" clip-rule="evenodd" d="M870.235,103.278c0,0-4.238-1.01-18.771,1.908
			c-14.53,2.917-28.915,5.919-32.214,6.526c-3.299,0.606-10.715,1.618-13.009,3.105c-2.292,1.49-8.224,7.249-10.463,11.045
			c-2.243,3.797-10.195,20.194-13.065,25c-2.868,4.806-7.063,12.206-12.595,14.782c0,0-2.948-1.234-5.291,0.381
			c-2.342,1.614-4.568,0.777-6.198-0.381c0,0-1.645,0.901-2.387,1.125c-0.741,0.223-3.495,0.483-2.538,3.799
			c0,0,5.19,3.845,15.216-0.332c0,0,6.825-2.703,12.686-7.874c5.86-5.172,20.18-37.479,21.337-39.39c0,0,18.983-4.668,21.336-4.924
			c2.353-0.255,10.202-0.06,14.071,0.105c3.864,0.164,14.834-2.447,17.111-3.387c2.279-0.942,12.273-2.909,13.132-4.924
			C868.594,109.844,871.403,104.463,870.235,103.278z"/>
		<path fill-rule="evenodd" clip-rule="evenodd" d="M853.823,4.037c1.639,0,3.281,0,4.923,0
			c-5.979,15.62-24.842,11.412-37.749,14.771c-26.363,6.863-54.704,23.177-80.42,36.106c-26.896,13.523-54.161,20.441-83.705,31.184
			c3.928-14.107,25.042-12.819,45.956-18.053c19.957-4.996,37.219-18.601,55.802-27.901c19.958-9.988,38.059-24.411,54.16-27.901
			C828.518,8.833,841.202,13.507,853.823,4.037z"/>
		<path d="M663.758,132.499c5.607,5.751,6.208,26.067-2.664,29.63c-4.474,1.795-7.905,5.027-12.812,6.289
			c-2.512,0.647-5.131,1.063-7.729,1.046c-4.494-0.03-9.805-0.379-12.9-4.141c-4.311,4.309-10.238,7.641-16.52,6.855
			c-3.129-0.39-5.612-7.301-4.815-10.138c-6.25,3.442-8.948,8.736-16.869,8.547c-6.063-0.144-8.956-9.267-7.733-14.523
			c0.65-2.796,4.66-2.234,5.563,0.033c0.524,1.32,0.192,5.04,0.986,5.943c4.649,2.257,10.973,0.894,14.145-3.048
			c1.569-1.949,2.078-3.96,2.225-6.458c0.191-3.298-2.809-2.479-5.514-1.891c-2.434,0.525-4.576,1.684-7.15,1.579
			c-0.913-0.035-0.426-3.718-0.426-4.588c0-3.208,5.076-4.857,7.826-6.062c5.294-2.928,8.505,1.948,13.512,2.415
			c-2.23-3.971,3.999-7.728,3.281-11.489c2.909,1.459,3.763-2.615,4.408-4.252c0.546-1.387,3.201-1.613,4.356-2.017
			c3.012-1.055,13.31,0.268,14.214,4.628c-0.498-2.412,3.925-5.337,5.985-5.378c3.963-0.081,6.628,2.264,8.009,5.847
			c1.076,2.787,1.066,3.829,4.575,2.455C659.828,132.954,661.378,132.082,663.758,132.499 M652.271,135.782
			c-4.048-0.576-7.812-1.856-11.81-0.478c-2.402,0.827-1.188,7.024-1.911,9.631c-1.673,6.019-4.898,11.512-7.616,17.107
			C645.895,168.623,647.568,144.085,652.271,135.782 M622.907,138.238c-1.364,2.41-14.057,24.423-7.746,25.345
			c8.039,1.175,12.575-9.106,14.728-14.849c1.14-3.039,2.668-7.454,1.272-10.645C628.774,132.629,625.824,134.086,622.907,138.238
			 M652.271,140.705c0.112,4.046,0.076,8.193-0.629,12.188c-0.837,4.744-1.588,7.455,4.339,5.57c5.67-1.804,5.438-8.98,4.911-13.889
			c-0.158-1.469-0.84-5.356-2.741-5.605C656.26,138.72,654.343,140.746,652.271,140.705"/>
		<path fill="#666666" d="M457.523,203.478c16.593,28.661,38.955,54.767,59.146,80.948c-11.076-7.339-39.41-7.887-45.708-17.635
			c-7.342-11.364-14.68-22.727-22.02-34.088c-4.045,12.719-8.09,25.442-12.135,38.161c-4.408,13.864-25.394,19.687-36.343,30.261
			c8.71-23.386,17.329-46.82,25.344-70.453c4.406-12.991,8.167-18.646,1.534-30.562c-6.858-12.323-22.008-32.042-22.008-46.27
			c0,0,9.806-2.668,11.968-3.907l9.04,3.196c5.918,11.214,13.694,22.124,15.873,25.761c4.086-12.225,10.979-25.02,13.193-37.695
			c2.329-13.316-8.649-21.066-20.175-20.612l-0.954-0.02c0,0-4.488-0.825-5.812-2.033c-1.324-1.21-8.998-1.941-8.998-1.941
			c11.463-12.242,28.267-15.168,44.16,5.002C480.984,143.612,463.204,180.276,457.523,203.478"/>
	</g>
	<g id="text-shadow" display="none">
		
			<text transform="matrix(1 0 0 1 308.0796 57.917)" display="inline" fill="#808080" font-family="'Swiss721BT-Black'" font-size="75.2511">OneRope</text>
		
			<text transform="matrix(1 0 0 1 263.3159 1138)" display="inline" fill="#CCC49F" font-family="'Swiss721BT-Black'" font-size="75.2511">OneRope</text>
		
			<text transform="matrix(1 0 0 1 325.334 82.7598)" display="inline" fill="#808080" font-family="'Swiss721BT-Black'" font-size="24">multiplayer games</text>
	</g>
	<g id="Text" display="none">
		
			<text transform="matrix(1 0 0 1 262.3159 1138)" display="inline" fill="#CCC49F" font-family="'Swiss721BT-Black'" font-size="75.2511">OneRope</text>
	</g>
</g>
<g id="Layer_1" display="none">
</g>
</svg>
