<?xml version="1.0" encoding="utf-8"?>
<!-- Generator: Adobe Illustrator 16.0.4, SVG Export Plug-In . SVG Version: 6.00 Build 0)  -->
<!DOCTYPE svg PUBLIC "-//W3C//DTD SVG 1.1//EN" "http://www.w3.org/Graphics/SVG/1.1/DTD/svg11.dtd">
<svg version="1.1"
	 id="svg2" xmlns:dc="http://purl.org/dc/elements/1.1/" xmlns:cc="http://creativecommons.org/ns#" xmlns:rdf="http://www.w3.org/1999/02/22-rdf-syntax-ns#" xmlns:svg="http://www.w3.org/2000/svg" xmlns:sodipodi="http://sodipodi.sourceforge.net/DTD/sodipodi-0.dtd" xmlns:inkscape="http://www.inkscape.org/namespaces/inkscape" sodipodi:docname="2015-05-12.Roulette.svg" inkscape:version="0.91 r13725"
	 xmlns="http://www.w3.org/2000/svg" xmlns:xlink="http://www.w3.org/1999/xlink" x="0px" y="0px" width="400px" height="400px"
	 viewBox="-386.52 413.48 400 400" enable-background="new -386.52 413.48 400 400" xml:space="preserve">
<sodipodi:namedview  inkscape:cy="395.5281" inkscape:cx="390.8399" inkscape:zoom="0.96700394" objecttolerance="10" guidetolerance="10" gridtolerance="10" borderopacity="1" bordercolor="#666666" pagecolor="#ffffff" id="namedview403" inkscape:window-maximized="1" fit-margin-bottom="0" fit-margin-right="0" inkscape:window-y="41" inkscape:window-x="42" inkscape:window-height="1017" inkscape:window-width="1878" inkscape:current-layer="figure_1" inkscape:pageopacity="0" inkscape:pageshadow="2" fit-margin-top="0" fit-margin-left="0" showgrid="false">
	</sodipodi:namedview>
<g id="patch_2">
	<path id="path14" inkscape:connector-curvature="0" fill="#CCCCCC" stroke="#000000" d="M-25.211,616.852
		c0-4.477-0.186-8.951-0.555-13.411c-0.37-4.461-0.922-8.904-1.66-13.319l-24.028,4.009c0.626,3.754,1.097,7.531,1.412,11.322
		c0.314,3.792,0.471,7.595,0.471,11.399H-25.211L-25.211,616.852z"/>
</g>
<g id="patch_3">
	<path id="path17" inkscape:connector-curvature="0" stroke="#000000" d="M-27.426,590.122c-0.737-4.416-1.657-8.798-2.755-13.137
		c-1.099-4.339-2.376-8.631-3.83-12.864l-23.04,7.909c1.236,3.599,2.322,7.246,3.255,10.935c0.934,3.689,1.716,7.414,2.341,11.167
		L-27.426,590.122L-27.426,590.122z"/>
</g>
<g id="patch_4">
	<path id="path20" inkscape:connector-curvature="0" fill="#CCCCCC" stroke="#000000" d="M-34.011,564.121
		c-1.454-4.234-3.082-8.405-4.879-12.504c-1.798-4.1-3.765-8.123-5.895-12.059l-21.424,11.595c1.81,3.345,3.482,6.765,5.01,10.248
		c1.529,3.485,2.912,7.03,4.147,10.629L-34.011,564.121z"/>
</g>
<g id="patch_5">
	<path id="path23" inkscape:connector-curvature="0" stroke="#000000" d="M-44.785,539.558c-2.13-3.938-4.423-7.783-6.871-11.531
		c-2.449-3.746-5.05-7.391-7.799-10.923l-19.225,14.961c2.337,3.003,4.549,6.101,6.629,9.285c2.081,3.186,4.03,6.456,5.841,9.803
		L-44.785,539.558z"/>
</g>
<g id="patch_6">
	<path id="path26" inkscape:connector-curvature="0" fill="#CCCCCC" stroke="#000000" d="M-59.454,517.104
		c-2.75-3.533-5.644-6.949-8.676-10.243c-3.031-3.293-6.198-6.459-9.491-9.491l-16.499,17.923c2.8,2.576,5.491,5.268,8.068,8.066
		c2.576,2.8,5.037,5.704,7.373,8.706L-59.454,517.104z"/>
</g>
<g id="patch_7">
	<path id="path29" inkscape:connector-curvature="0" stroke="#000000" d="M-77.621,497.37c-3.292-3.031-6.709-5.926-10.242-8.674
		c-3.532-2.75-7.178-5.352-10.924-7.801l-13.324,20.395c3.186,2.081,6.284,4.292,9.286,6.629c3.003,2.337,5.907,4.797,8.706,7.374
		L-77.621,497.37z"/>
</g>
<g id="patch_8">
	<path id="path32" inkscape:connector-curvature="0" fill="#CCCCCC" stroke="#000000" d="M-98.787,480.895
		c-3.748-2.447-7.594-4.739-11.531-6.87c-3.936-2.13-7.96-4.097-12.059-5.896l-9.785,22.309c3.485,1.528,6.904,3.2,10.25,5.011
		c3.346,1.811,6.616,3.76,9.801,5.841L-98.787,480.895z"/>
</g>
<g id="patch_9">
	<path id="path35" inkscape:connector-curvature="0" stroke="#000000" d="M-122.376,468.129c-4.099-1.797-8.271-3.425-12.503-4.878
		c-4.234-1.454-8.525-2.732-12.865-3.831l-5.98,23.615c3.689,0.935,7.336,2.02,10.935,3.255c3.599,1.235,7.144,2.619,10.628,4.147
		L-122.376,468.129L-122.376,468.129z"/>
</g>
<g id="patch_10">
	<path id="path38" inkscape:connector-curvature="0" fill="#CCCCCC" stroke="#000000" d="M-147.745,459.42
		c-4.34-1.099-8.722-2.018-13.136-2.755c-4.416-0.736-8.859-1.29-13.319-1.66l-2.012,24.277c3.792,0.314,7.569,0.785,11.322,1.412
		c3.752,0.625,7.477,1.406,11.166,2.341L-147.745,459.42z"/>
</g>
<g id="patch_11">
	<path id="path41" inkscape:connector-curvature="0" fill="#666666" stroke="#000000" d="M-174.2,455.005
		c-4.461-0.369-8.936-0.554-13.411-0.554c-4.476,0-8.95,0.185-13.411,0.554l2.011,24.277c3.792-0.313,7.595-0.471,11.399-0.471
		c3.805,0,7.608,0.157,11.399,0.471L-174.2,455.005L-174.2,455.005z"/>
</g>
<g id="patch_12">
	<path id="path44" inkscape:connector-curvature="0" fill="#CCCCCC" stroke="#000000" d="M-201.022,455.005
		c-4.46,0.37-8.904,0.924-13.319,1.66c-4.415,0.737-8.797,1.656-13.136,2.755l5.979,23.615c3.688-0.935,7.414-1.716,11.167-2.341
		c3.752-0.627,7.53-1.098,11.321-1.412L-201.022,455.005L-201.022,455.005z"/>
</g>
<g id="patch_13">
	<path id="path47" inkscape:connector-curvature="0" stroke="#000000" d="M-227.478,459.42c-4.339,1.099-8.631,2.377-12.864,3.831
		c-4.234,1.453-8.405,3.081-12.505,4.878l9.785,22.309c3.485-1.528,7.03-2.912,10.629-4.147c3.598-1.235,7.247-2.32,10.935-3.255
		L-227.478,459.42z"/>
</g>
<g id="patch_14">
	<path id="path50" inkscape:connector-curvature="0" fill="#CCCCCC" stroke="#000000" d="M-252.847,468.129
		c-4.099,1.799-8.122,3.766-12.058,5.896c-3.937,2.131-7.783,4.423-11.531,6.87l13.324,20.395c3.186-2.081,6.455-4.03,9.801-5.841
		c3.346-1.811,6.765-3.482,10.249-5.011L-252.847,468.129z"/>
</g>
<g id="patch_15">
	<path id="path53" inkscape:connector-curvature="0" stroke="#000000" d="M-276.436,480.895c-3.747,2.449-7.392,5.051-10.924,7.801
		c-3.532,2.748-6.949,5.643-10.243,8.674l16.499,17.923c2.799-2.577,5.704-5.037,8.706-7.374c3.002-2.337,6.1-4.548,9.285-6.629
		L-276.436,480.895z"/>
</g>
<g id="patch_16">
	<path id="path56" inkscape:connector-curvature="0" fill="#CCCCCC" stroke="#000000" d="M-297.603,497.37
		c-3.292,3.032-6.459,6.198-9.491,9.491s-5.926,6.71-8.675,10.243l19.224,14.961c2.337-3.002,4.797-5.906,7.374-8.706
		c2.577-2.799,5.268-5.49,8.067-8.066L-297.603,497.37z"/>
</g>
<g id="patch_17">
	<path id="path59" inkscape:connector-curvature="0" stroke="#000000" d="M-315.769,517.104c-2.749,3.532-5.351,7.177-7.799,10.923
		c-2.447,3.748-4.74,7.594-6.87,11.531l21.424,11.595c1.811-3.347,3.759-6.617,5.84-9.803c2.081-3.185,4.293-6.282,6.629-9.285
		L-315.769,517.104L-315.769,517.104z"/>
</g>
<g id="patch_18">
	<path id="path62" inkscape:connector-curvature="0" fill="#CCCCCC" stroke="#000000" d="M-330.438,539.558
		c-2.131,3.936-4.097,7.959-5.896,12.059c-1.797,4.099-3.426,8.27-4.879,12.504l23.04,7.909c1.235-3.599,2.62-7.144,4.147-10.629
		c1.529-3.483,3.201-6.903,5.011-10.248L-330.438,539.558z"/>
</g>
<g id="patch_19">
	<path id="path65" inkscape:connector-curvature="0" stroke="#000000" d="M-341.212,564.121c-1.453,4.233-2.731,8.525-3.83,12.864
		c-1.099,4.339-2.018,8.721-2.755,13.137l24.028,4.01c0.625-3.753,1.407-7.478,2.341-11.167c0.934-3.688,2.02-7.336,3.255-10.935
		L-341.212,564.121L-341.212,564.121z"/>
</g>
<g id="patch_20">
	<path id="path68" inkscape:connector-curvature="0" fill="#CCCCCC" stroke="#000000" d="M-347.797,590.122
		c-0.737,4.415-1.291,8.858-1.66,13.319c-0.37,4.46-0.555,8.935-0.555,13.411h24.36c0-3.805,0.158-7.607,0.472-11.399
		c0.314-3.791,0.785-7.568,1.412-11.321L-347.797,590.122z"/>
</g>
<g id="patch_21">
	<path id="path71" inkscape:connector-curvature="0" stroke="#000000" d="M-350.012,616.852c0,4.477,0.185,8.949,0.555,13.411
		c0.37,4.46,0.923,8.903,1.66,13.319l24.028-4.01c-0.626-3.753-1.098-7.53-1.412-11.321c-0.314-3.792-0.472-7.595-0.472-11.399
		H-350.012L-350.012,616.852z"/>
</g>
<g id="patch_22">
	<path id="path74" inkscape:connector-curvature="0" fill="#CCCCCC" stroke="#000000" d="M-347.797,643.583
		c0.737,4.414,1.656,8.797,2.755,13.136c1.099,4.34,2.376,8.632,3.83,12.865l23.04-7.91c-1.235-3.599-2.321-7.246-3.255-10.935
		c-0.935-3.688-1.716-7.414-2.341-11.166L-347.797,643.583z"/>
</g>
<g id="patch_23">
	<path id="path77" inkscape:connector-curvature="0" stroke="#000000" d="M-341.212,669.583c1.454,4.233,3.082,8.404,4.879,12.504
		c1.798,4.099,3.765,8.122,5.896,12.059l21.424-11.595c-1.811-3.346-3.482-6.765-5.011-10.249
		c-1.527-3.484-2.912-7.029-4.147-10.629L-341.212,669.583L-341.212,669.583z"/>
</g>
<g id="patch_24">
	<path id="path80" inkscape:connector-curvature="0" fill="#CCCCCC" stroke="#000000" d="M-330.438,694.146
		c2.13,3.937,4.423,7.782,6.87,11.53c2.448,3.746,5.05,7.392,7.799,10.924l19.224-14.962c-2.336-3.003-4.548-6.101-6.629-9.285
		c-2.081-3.186-4.029-6.455-5.84-9.802L-330.438,694.146L-330.438,694.146z"/>
</g>
<g id="patch_25">
	<path id="path83" inkscape:connector-curvature="0" stroke="#000000" d="M-315.769,716.6c2.75,3.532,5.644,6.949,8.675,10.243
		c3.031,3.292,6.198,6.459,9.491,9.489l16.499-17.922c-2.799-2.576-5.491-5.268-8.067-8.067c-2.577-2.798-5.037-5.702-7.374-8.705
		L-315.769,716.6L-315.769,716.6z"/>
</g>
<g id="patch_26">
	<path id="path86" inkscape:connector-curvature="0" fill="#CCCCCC" stroke="#000000" d="M-297.603,736.333
		c3.293,3.032,6.71,5.927,10.243,8.677c3.532,2.748,7.177,5.351,10.924,7.798l13.324-20.393c-3.185-2.081-6.283-4.294-9.285-6.63
		c-3.002-2.336-5.907-4.797-8.706-7.374L-297.603,736.333L-297.603,736.333z"/>
</g>
<g id="patch_27">
	<path id="path89" inkscape:connector-curvature="0" stroke="#000000" d="M-276.436,752.807c3.747,2.449,7.595,4.741,11.531,6.872
		c3.936,2.129,7.959,4.097,12.058,5.895l9.785-22.309c-3.484-1.527-6.903-3.2-10.249-5.01c-3.347-1.812-6.616-3.761-9.801-5.841
		L-276.436,752.807L-276.436,752.807z"/>
</g>
<g id="patch_28">
	<path id="path92" inkscape:connector-curvature="0" fill="#CCCCCC" stroke="#000000" d="M-252.847,765.574
		c4.1,1.797,8.271,3.426,12.505,4.879c4.233,1.454,8.525,2.732,12.864,3.83l5.979-23.614c-3.688-0.935-7.336-2.021-10.935-3.256
		c-3.599-1.235-7.144-2.619-10.629-4.147L-252.847,765.574L-252.847,765.574z"/>
</g>
<g id="patch_29">
	<path id="path95" inkscape:connector-curvature="0" stroke="#000000" d="M-227.478,774.283c4.339,1.099,8.721,2.019,13.136,2.755
		c4.416,0.737,8.859,1.29,13.319,1.66l2.011-24.276c-3.791-0.315-7.568-0.786-11.321-1.413c-3.752-0.625-7.478-1.406-11.167-2.34
		L-227.478,774.283L-227.478,774.283z"/>
</g>
<g id="patch_30">
	<path id="path98" inkscape:connector-curvature="0" fill="#666666" stroke="#000000" d="M-201.022,778.698
		c4.461,0.369,8.936,0.555,13.411,0.555c4.476,0,8.95-0.186,13.411-0.555l-2.012-24.276c-3.791,0.312-7.595,0.471-11.399,0.471
		c-3.805,0-7.608-0.158-11.4-0.471L-201.022,778.698L-201.022,778.698z"/>
</g>
<g id="patch_31">
	<path id="path101" inkscape:connector-curvature="0" stroke="#000000" d="M-174.2,778.698c4.46-0.37,8.904-0.923,13.319-1.66
		c4.415-0.736,8.796-1.656,13.136-2.755l-5.98-23.614c-3.688,0.934-7.414,1.715-11.166,2.34c-3.753,0.627-7.531,1.098-11.322,1.413
		L-174.2,778.698z"/>
</g>
<g id="patch_32">
	<path id="path104" inkscape:connector-curvature="0" fill="#CCCCCC" stroke="#000000" d="M-147.745,774.283
		c4.339-1.098,8.631-2.376,12.865-3.83c4.233-1.453,8.405-3.082,12.503-4.879l-9.785-22.309c-3.484,1.528-7.029,2.912-10.628,4.147
		c-3.599,1.235-7.246,2.321-10.935,3.256L-147.745,774.283L-147.745,774.283z"/>
</g>
<g id="patch_33">
	<path id="path107" inkscape:connector-curvature="0" stroke="#000000" d="M-122.376,765.574c4.099-1.798,8.123-3.766,12.059-5.895
		c3.937-2.131,7.783-4.423,11.531-6.872l-13.324-20.393c-3.185,2.08-6.455,4.029-9.801,5.841c-3.346,1.81-6.765,3.482-10.25,5.01
		L-122.376,765.574L-122.376,765.574z"/>
</g>
<g id="patch_34">
	<path id="path110" inkscape:connector-curvature="0" fill="#CCCCCC" stroke="#000000" d="M-98.787,752.807
		c3.746-2.447,7.392-5.05,10.924-7.798c3.532-2.75,6.949-5.645,10.242-8.677l-16.499-17.922c-2.798,2.577-5.703,5.038-8.706,7.374
		c-3.002,2.336-6.1,4.549-9.286,6.63L-98.787,752.807L-98.787,752.807z"/>
</g>
<g id="patch_35">
	<path id="path113" inkscape:connector-curvature="0" stroke="#000000" d="M-77.621,736.333c3.293-3.03,6.46-6.197,9.491-9.489
		c3.032-3.294,5.926-6.711,8.676-10.243l-19.225-14.962c-2.336,3.002-4.797,5.907-7.373,8.705c-2.577,2.8-5.268,5.491-8.068,8.067
		L-77.621,736.333L-77.621,736.333z"/>
</g>
<g id="patch_36">
	<path id="path116" inkscape:connector-curvature="0" fill="#CCCCCC" stroke="#000000" d="M-59.454,716.6
		c2.749-3.532,5.35-7.178,7.799-10.924c2.448-3.748,4.74-7.594,6.871-11.53l-21.424-11.595c-1.811,3.347-3.76,6.616-5.841,9.802
		c-2.081,3.185-4.292,6.282-6.629,9.285L-59.454,716.6L-59.454,716.6z"/>
</g>
<g id="patch_37">
	<path id="path119" inkscape:connector-curvature="0" stroke="#000000" d="M-44.785,694.146c2.13-3.937,4.097-7.96,5.895-12.059
		c1.798-4.1,3.427-8.271,4.879-12.504l-23.04-7.91c-1.235,3.599-2.619,7.145-4.147,10.629c-1.528,3.484-3.2,6.903-5.01,10.249
		L-44.785,694.146z"/>
</g>
<g id="patch_38">
	<path id="path122" inkscape:connector-curvature="0" fill="#CCCCCC" stroke="#000000" d="M-34.011,669.583
		c1.454-4.233,2.731-8.525,3.83-12.865c1.098-4.339,2.018-8.722,2.755-13.136l-24.028-4.01c-0.625,3.752-1.407,7.478-2.341,11.166
		c-0.934,3.688-2.02,7.336-3.255,10.935L-34.011,669.583z"/>
</g>
<g id="patch_39">
	<path id="path125" inkscape:connector-curvature="0" stroke="#000000" d="M-27.426,643.583c0.737-4.416,1.29-8.859,1.66-13.319
		c0.369-4.462,0.555-8.936,0.555-13.411h-24.361c0,3.805-0.157,7.607-0.471,11.399c-0.315,3.791-0.786,7.568-1.412,11.321
		L-27.426,643.583L-27.426,643.583z"/>
</g>
<g id="matplotlib.axis_1">
</g>
<g id="matplotlib.axis_2">
</g>
<g id="text_1">
	<g id="g134" transform="matrix(0.24,0,0,-0.24,672.72614,380.55344)">
		<g id="use136">
			<path id="BitstreamVeraSans-Roman-31" inkscape:connector-curvature="0" fill="#FFFFFF" d="M-2982.945-942.919h8.37v28.91
				l-9.108-1.827v4.671l9.062,1.827h5.123v-33.582h8.374v-4.309h-21.82V-942.919z"/>
		</g>
		<g id="use138">
			<path id="BitstreamVeraSans-Roman-38" inkscape:connector-curvature="0" fill="#FFFFFF" d="M-2939.813-929.235
				c-2.435,0-4.352-0.651-5.747-1.957c-1.392-1.302-2.085-3.097-2.085-5.375c0-2.283,0.694-4.077,2.085-5.383
				c1.396-1.306,3.312-1.957,5.747-1.957s4.358,0.655,5.76,1.965c1.41,1.318,2.112,3.109,2.112,5.375
				c0,2.279-0.698,4.073-2.094,5.375C-2935.427-929.886-2937.352-929.235-2939.813-929.235 M-2944.934-927.058
				c-2.199,0.541-3.912,1.562-5.139,3.072c-1.227,1.51-1.835,3.345-1.835,5.514c0,3.023,1.074,5.416,3.231,7.178
				c2.161,1.758,5.115,2.641,8.864,2.641c3.778,0,6.738-0.883,8.887-2.641c2.148-1.762,3.223-4.154,3.223-7.178
				c0-2.169-0.614-4.004-1.845-5.514c-1.221-1.51-2.926-2.531-5.103-3.072c2.464-0.574,4.388-1.701,5.764-3.377
				c1.379-1.676,2.067-3.719,2.067-6.132c0-3.678-1.121-6.498-3.357-8.459c-2.242-1.961-5.452-2.942-9.635-2.942
				c-4.169,0-7.379,0.981-9.629,2.942c-2.242,1.961-3.363,4.781-3.363,8.459c0,2.413,0.692,4.456,2.081,6.132
				C-2949.333-928.759-2947.406-927.632-2944.934-927.058 M-2946.812-918.961c0-1.961,0.612-3.491,1.835-4.59
				c1.231-1.099,2.952-1.648,5.164-1.648c2.203,0,3.925,0.549,5.17,1.648c1.243,1.099,1.864,2.629,1.864,4.59
				c0,1.965-0.621,3.499-1.864,4.594c-1.245,1.099-2.966,1.652-5.17,1.652c-2.211,0-3.933-0.553-5.164-1.652
				C-2946.2-915.461-2946.812-916.995-2946.812-918.961"/>
		</g>
	</g>
</g>
<g id="text_2">
	<g id="g144" transform="matrix(0.24,0,0,-0.24,664.75246,333.46639)">
		<g id="use146">
			<path id="BitstreamVeraSans-Roman-33" inkscape:connector-curvature="0" fill="#FFFFFF" d="M-2952.348-1021.028
				c2.454-0.525,4.364-1.619,5.74-3.28c1.383-1.656,2.073-3.703,2.073-6.14c0-3.735-1.286-6.628-3.857-8.679
				c-2.572-2.051-6.226-3.072-10.964-3.072c-1.585,0-3.223,0.159-4.905,0.472c-1.682,0.313-3.422,0.785-5.21,1.412v4.944
				c1.416-0.826,2.968-1.453,4.661-1.872c1.691-0.423,3.463-0.639,5.308-0.639c3.21,0,5.658,0.639,7.341,1.904
				c1.685,1.265,2.525,3.113,2.525,5.53c0,2.234-0.781,3.984-2.346,5.241s-3.74,1.888-6.527,1.888h-4.419v4.216h4.622
				c2.517,0,4.441,0.5,5.78,1.51s2.006,2.462,2.006,4.354c0,1.945-0.688,3.434-2.071,4.476c-1.375,1.046-3.347,1.567-5.918,1.567
				c-1.408,0-2.917-0.155-4.525-0.464c-1.607-0.301-3.375-0.773-5.304-1.412v4.561c1.949,0.541,3.778,0.948,5.473,1.221
				c1.701,0.273,3.302,0.403,4.81,0.403c3.89,0,6.968-0.887,9.233-2.657c2.266-1.762,3.404-4.15,3.404-7.157
				c0-2.104-0.6-3.874-1.807-5.322C-2948.427-1019.466-2950.136-1020.471-2952.348-1021.028"/>
		</g>
		<g id="use148">
			<path id="BitstreamVeraSans-Roman-31_1_" inkscape:connector-curvature="0" fill="#FFFFFF" d="M-2933.923-1037.146h8.374v28.906
				l-9.115-1.827v4.667l9.064,1.831h5.127v-33.577h8.368v-4.313h-21.818V-1037.146z"/>
		</g>
	</g>
</g>
<g id="text_3">
	<g id="g154" transform="matrix(0.24,0,0,-0.24,649.39066,288.31485)">
		<g id="use156">
			<path id="BitstreamVeraSans-Roman-31_2_" inkscape:connector-curvature="0" fill="#FFFFFF" d="M-2936.247-1127.503h8.37v28.906
				l-9.111-1.827v4.667l9.064,1.831h5.123v-33.577h8.372v-4.313h-21.818V-1127.503z"/>
		</g>
		<g id="use158">
			<path id="BitstreamVeraSans-Roman-39" inkscape:connector-curvature="0" fill="#FFFFFF" d="M-2903.923-1131.027v4.667
				c1.292-0.61,2.594-1.078,3.908-1.396c1.32-0.317,2.618-0.48,3.888-0.48c3.383,0,5.967,1.139,7.747,3.41
				c1.786,2.275,2.81,5.729,3.062,10.372c-0.981-1.461-2.224-2.576-3.733-3.357c-1.506-0.777-3.172-1.168-4.995-1.168
				c-3.79,0-6.789,1.147-8.997,3.434c-2.212,2.299-3.316,5.432-3.316,9.412c0,3.89,1.15,7.007,3.451,9.359
				c2.301,2.352,5.363,3.528,9.188,3.528c4.386,0,7.731-1.681,10.036-5.042c2.309-3.357,3.467-8.232,3.467-14.624
				c0-5.973-1.42-10.738-4.254-14.303c-2.834-3.56-6.638-5.339-11.428-5.339c-1.284,0-2.592,0.126-3.912,0.378
				C-2901.125-1131.918-2902.496-1131.535-2903.923-1131.027 M-2893.719-1114.966c2.301,0,4.12,0.785,5.465,2.356
				c1.349,1.575,2.02,3.735,2.02,6.478c0,2.726-0.671,4.875-2.02,6.458c-1.345,1.579-3.164,2.372-5.465,2.372
				s-4.124-0.793-5.467-2.372c-1.343-1.583-2.016-3.731-2.016-6.458c0-2.742,0.673-4.903,2.016-6.478
				C-2897.844-1114.181-2896.021-1114.966-2893.719-1114.966"/>
		</g>
	</g>
</g>
<g id="text_4">
	<g id="g161" transform="matrix(0.24,0,0,-0.24,633.77795,246.33042)">
		<g id="use163">
			<path id="BitstreamVeraSans-Roman-38_1_" inkscape:connector-curvature="0" fill="#FFFFFF" d="M-2894.934-1197.84
				c-2.438,0-4.352-0.651-5.748-1.957c-1.392-1.302-2.089-3.097-2.089-5.375c0-2.283,0.698-4.081,2.089-5.383
				c1.396-1.306,3.31-1.957,5.748-1.957c2.437,0,4.356,0.651,5.758,1.965c1.408,1.314,2.11,3.105,2.11,5.375
				c0,2.279-0.698,4.073-2.094,5.375C-2890.552-1198.491-2892.477-1197.84-2894.934-1197.84 M-2900.059-1195.663
				c-2.195,0.541-3.908,1.562-5.139,3.068c-1.223,1.51-1.835,3.353-1.835,5.513c0,3.027,1.078,5.42,3.231,7.182
				c2.161,1.758,5.117,2.637,8.868,2.637c3.774,0,6.734-0.879,8.881-2.637c2.155-1.762,3.229-4.155,3.229-7.182
				c0-2.161-0.616-4.004-1.845-5.513c-1.223-1.506-2.926-2.527-5.106-3.068c2.468-0.578,4.388-1.701,5.764-3.377
				c1.384-1.672,2.071-3.715,2.071-6.132c0-3.678-1.119-6.494-3.361-8.459c-2.242-1.961-5.453-2.942-9.631-2.942
				c-4.173,0-7.383,0.981-9.629,2.942c-2.242,1.965-3.363,4.781-3.363,8.459c0,2.417,0.694,4.46,2.077,6.132
				C-2904.458-1197.364-2902.527-1196.241-2900.059-1195.663 M-2901.933-1187.57c0-1.961,0.612-3.487,1.835-4.586
				c1.227-1.099,2.948-1.648,5.164-1.648c2.205,0,3.927,0.549,5.166,1.648c1.245,1.099,1.868,2.625,1.868,4.586
				c0,1.965-0.623,3.499-1.868,4.602c-1.239,1.095-2.96,1.644-5.166,1.644c-2.216,0-3.937-0.549-5.164-1.644
				C-2901.321-1184.07-2901.933-1185.604-2901.933-1187.57"/>
		</g>
	</g>
</g>
<g id="text_5">
	<g id="g169" transform="matrix(0.24,0,0,-0.24,597.70658,208.65832)">
		<g id="use171">
			<path id="BitstreamVeraSans-Roman-31_3_" inkscape:connector-curvature="0" fill="#FFFFFF" d="M-2832.817-1286.911h8.37v28.906
				l-9.111-1.823v4.667l9.066,1.827h5.121v-33.578h8.374v-4.313h-21.82V-1286.911z"/>
		</g>
		<g id="use173">
			<path id="BitstreamVeraSans-Roman-32" inkscape:connector-curvature="0" fill="#FFFFFF" d="M-2796.228-1286.911h17.891v-4.313
				h-24.052v4.313c1.939,2.014,4.592,4.712,7.947,8.105c3.363,3.394,5.471,5.583,6.335,6.567c1.64,1.843,2.783,3.402,3.434,4.679
				c0.655,1.274,0.981,2.531,0.981,3.764c0,2.014-0.706,3.658-2.12,4.923c-1.412,1.274-3.251,1.908-5.518,1.908
				c-1.609,0-3.308-0.281-5.093-0.834c-1.782-0.562-3.688-1.408-5.719-2.543v5.18c2.065,0.826,3.992,1.453,5.782,1.876
				c1.796,0.423,3.442,0.635,4.932,0.635c3.925,0,7.05-0.981,9.385-2.95c2.336-1.957,3.501-4.578,3.501-7.857
				c0-1.558-0.291-3.04-0.879-4.435c-0.58-1.392-1.642-3.036-3.182-4.928c-0.421-0.496-1.768-1.912-4.039-4.256
				C-2788.902-1279.42-2792.094-1282.7-2796.228-1286.911"/>
		</g>
	</g>
</g>
<g id="text_6">
	<g id="g176" transform="matrix(0.24,0,0,-0.24,561.78762,176.32617)">
		<g id="use178">
			<path id="BitstreamVeraSans-Roman-32_1_" inkscape:connector-curvature="0" fill="#FFFFFF" d="M-2757.413-1351.613h17.889v-4.317
				h-24.052v4.317c1.945,2.014,4.592,4.712,7.951,8.101c3.361,3.394,5.473,5.583,6.331,6.572c1.64,1.843,2.787,3.402,3.438,4.675
				c0.653,1.278,0.983,2.535,0.983,3.768c0,2.014-0.708,3.658-2.12,4.924c-1.412,1.274-3.257,1.908-5.524,1.908
				c-1.607,0-3.304-0.277-5.092-0.834c-1.782-0.562-3.685-1.408-5.715-2.543v5.18c2.061,0.83,3.99,1.453,5.782,1.876
				c1.798,0.423,3.438,0.635,4.927,0.635c3.925,0,7.056-0.985,9.391-2.946c2.329-1.961,3.497-4.586,3.497-7.865
				c0-1.558-0.293-3.04-0.877-4.431c-0.578-1.392-1.64-3.036-3.184-4.932c-0.423-0.492-1.77-1.912-4.036-4.252
				C-2750.085-1344.126-2753.281-1347.406-2757.413-1351.613"/>
		</g>
		<g id="use180">
			<path id="BitstreamVeraSans-Roman-39_1_" inkscape:connector-curvature="0" fill="#FFFFFF" d="M-2728.611-1355.141v4.671
				c1.29-0.61,2.592-1.074,3.906-1.396c1.32-0.321,2.62-0.48,3.892-0.48c3.384,0,5.963,1.139,7.743,3.414
				c1.79,2.271,2.808,5.725,3.064,10.364c-0.983-1.453-2.226-2.572-3.735-3.349c-1.508-0.781-3.172-1.172-4.995-1.172
				c-3.79,0-6.789,1.147-8.997,3.438c-2.208,2.291-3.316,5.432-3.316,9.407c0,3.886,1.152,7.007,3.453,9.355
				c2.301,2.36,5.363,3.536,9.186,3.536c4.384,0,7.731-1.68,10.036-5.046c2.313-3.353,3.469-8.232,3.469-14.624
				c0-5.973-1.418-10.738-4.254-14.298c-2.836-3.564-6.643-5.347-11.43-5.347c-1.286,0-2.592,0.126-3.912,0.382
				C-2725.818-1356.028-2727.187-1355.65-2728.611-1355.141 M-2718.41-1339.077c2.301,0,4.124,0.785,5.463,2.356
				c1.351,1.575,2.022,3.731,2.022,6.478c0,2.722-0.671,4.879-2.022,6.453c-1.339,1.587-3.162,2.372-5.463,2.372
				s-4.124-0.785-5.465-2.372c-1.345-1.575-2.014-3.731-2.014-6.453c0-2.747,0.669-4.903,2.014-6.478
				C-2722.534-1338.291-2720.711-1339.077-2718.41-1339.077"/>
		</g>
	</g>
</g>
<g id="text_7">
	<g id="g186" transform="matrix(0.24,0,0,-0.24,522.06286,150.21589)">
		<g id="use188">
			<path id="BitstreamVeraSans-Roman-33_1_" inkscape:connector-curvature="0" fill="#FFFFFF" d="M-2666.798-1387.746
				c2.454-0.525,4.364-1.624,5.74-3.284c1.384-1.656,2.073-3.703,2.073-6.14c0-3.735-1.286-6.624-3.859-8.679
				c-2.57-2.043-6.226-3.068-10.962-3.068c-1.585,0-3.223,0.159-4.905,0.472c-1.682,0.313-3.422,0.781-5.21,1.412v4.944
				c1.416-0.826,2.968-1.453,4.661-1.876c1.691-0.419,3.463-0.631,5.308-0.631c3.21,0,5.658,0.631,7.343,1.896
				c1.683,1.27,2.525,3.113,2.525,5.53c0,2.238-0.783,3.984-2.348,5.241c-1.566,1.261-3.739,1.892-6.527,1.892h-4.419v4.215h4.622
				c2.517,0,4.441,0.505,5.782,1.51c1.336,1.005,2.004,2.454,2.004,4.35c0,1.945-0.69,3.438-2.073,4.476
				c-1.375,1.042-3.345,1.567-5.916,1.567c-1.408,0-2.917-0.155-4.525-0.46c-1.607-0.305-3.377-0.777-5.304-1.416v4.565
				c1.949,0.541,3.778,0.948,5.473,1.217c1.699,0.269,3.302,0.407,4.81,0.407c3.89,0,6.968-0.883,9.233-2.653
				c2.266-1.766,3.404-4.154,3.404-7.166c0-2.096-0.6-3.874-1.807-5.314C-2662.878-1386.187-2664.587-1387.188-2666.798-1387.746"/>
		</g>
		<g id="use190">
			<path id="BitstreamVeraSans-Roman-35" inkscape:connector-curvature="0" fill="#FFFFFF" d="M-2649.212-1370.29h20.123v-4.317
				h-15.43v-9.281c0.74,0.252,1.485,0.444,2.226,0.566c0.747,0.13,1.493,0.187,2.242,0.187c4.23,0,7.574-1.156,10.044-3.475
				c2.474-2.315,3.713-5.452,3.713-9.412c0-4.077-1.272-7.247-3.811-9.509c-2.537-2.258-6.116-3.385-10.734-3.385
				c-1.591,0-3.215,0.134-4.865,0.403c-1.644,0.273-3.349,0.68-5.109,1.221v5.155c1.522-0.826,3.096-1.444,4.72-1.851
				c1.626-0.407,3.339-0.606,5.147-0.606c2.928,0,5.245,0.765,6.95,2.303c1.713,1.538,2.568,3.63,2.568,6.27
				c0,2.637-0.854,4.72-2.568,6.262c-1.705,1.542-4.022,2.315-6.95,2.315c-1.371,0-2.736-0.155-4.102-0.456
				c-1.359-0.301-2.747-0.777-4.167-1.424V-1370.29z"/>
		</g>
	</g>
</g>
<g id="text_8">
	<g id="g196" transform="matrix(0.24,0,0,-0.24,478.49743,131.0397)">
		<g id="use198">
			<path id="BitstreamVeraSans-Roman-31_4_" inkscape:connector-curvature="0" fill="#FFFFFF" d="M-2594.256-1442.244h8.37v28.91
				l-9.111-1.827v4.671l9.064,1.827h5.123v-33.582h8.374v-4.309h-21.82V-1442.244z"/>
		</g>
		<g id="use200">
			<path id="BitstreamVeraSans-Roman-30" inkscape:connector-curvature="0" fill="#FFFFFF" d="M-2551.122-1412.04
				c-2.637,0-4.62-1.302-5.953-3.898c-1.327-2.596-1.988-6.498-1.988-11.715c0-5.188,0.661-9.086,1.988-11.682
				c1.333-2.6,3.316-3.898,5.953-3.898c2.659,0,4.651,1.298,5.975,3.898c1.333,2.596,2,6.494,2,11.682c0,5.217-0.667,9.119-2,11.715
				C-2546.471-1413.342-2548.463-1412.04-2551.122-1412.04 M-2551.122-1407.979c4.248,0,7.497-1.685,9.735-5.046
				c2.24-3.353,3.361-8.228,3.361-14.628c0-6.372-1.121-11.243-3.361-14.608c-2.238-3.353-5.487-5.033-9.735-5.033
				c-4.244,0-7.489,1.681-9.729,5.033c-2.242,3.365-3.363,8.236-3.363,14.608c0,6.401,1.121,11.275,3.363,14.628
				C-2558.611-1409.663-2555.366-1407.979-2551.122-1407.979"/>
		</g>
	</g>
</g>
<g id="text_9">
	<g id="g206" transform="matrix(0.24,0,0,-0.24,432.01008,119.32068)">
		<g id="use208">
			<path id="BitstreamVeraSans-Roman-32_2_" inkscape:connector-curvature="0" fill="#FFFFFF" d="M-2497.704-1465.695h17.889v-4.309
				h-24.052v4.309c1.947,2.014,4.594,4.72,7.951,8.105c3.363,3.394,5.475,5.583,6.331,6.571c1.642,1.835,2.787,3.398,3.434,4.675
				c0.655,1.278,0.985,2.531,0.985,3.768c0,2.014-0.706,3.654-2.118,4.923c-1.412,1.27-3.255,1.904-5.524,1.904
				c-1.607,0-3.304-0.277-5.09-0.834c-1.782-0.557-3.684-1.408-5.715-2.543v5.184c2.059,0.826,3.988,1.453,5.78,1.872
				c1.798,0.423,3.44,0.635,4.93,0.635c3.924,0,7.053-0.985,9.387-2.95c2.332-1.957,3.499-4.578,3.499-7.857
				c0-1.558-0.293-3.035-0.877-4.435c-0.58-1.392-1.642-3.031-3.184-4.928c-0.423-0.492-1.768-1.912-4.035-4.256
				C-2490.375-1458.204-2493.572-1461.479-2497.704-1465.695"/>
		</g>
		<g id="use210">
			<path id="BitstreamVeraSans-Roman-37" inkscape:connector-curvature="0" fill="#FFFFFF" d="M-2470.344-1432.117h24.361v-2.181
				l-13.757-35.706h-5.351l12.941,33.569h-18.194V-1432.117z"/>
		</g>
	</g>
</g>
<g id="text_10">
	<g id="g213" transform="matrix(0.24,0,0,-0.24,384.11812,115.3785)">
		<g id="use215">
			<path id="BitstreamVeraSans-Roman-30_1_" inkscape:connector-curvature="0" fill="#FFFFFF" d="M-2395.316-1443.379
				c-2.637,0-4.62-1.302-5.953-3.902c-1.326-2.596-1.99-6.494-1.99-11.711c0-5.188,0.663-9.086,1.99-11.682
				c1.333-2.6,3.316-3.898,5.953-3.898c2.657,0,4.651,1.298,5.975,3.898c1.333,2.596,2,6.494,2,11.682c0,5.216-0.667,9.115-2,11.711
				C-2390.665-1444.682-2392.659-1443.379-2395.316-1443.379 M-2395.316-1439.323c4.248,0,7.493-1.681,9.735-5.042
				c2.242-3.357,3.363-8.232,3.363-14.628c0-6.376-1.121-11.247-3.363-14.608c-2.242-3.353-5.487-5.033-9.735-5.033
				c-4.244,0-7.487,1.68-9.729,5.033c-2.242,3.361-3.363,8.232-3.363,14.608c0,6.396,1.121,11.271,3.363,14.628
				C-2402.803-1441.003-2399.56-1439.323-2395.316-1439.323"/>
		</g>
		<g id="use217">
			<path id="BitstreamVeraSans-Roman-30_2_" inkscape:connector-curvature="0" fill="#FFFFFF" d="M-2362.251-1443.379
				c-2.635,0-4.62-1.302-5.951-3.902c-1.329-2.596-1.992-6.494-1.992-11.711c0-5.188,0.663-9.086,1.992-11.682
				c1.331-2.6,3.316-3.898,5.951-3.898c2.659,0,4.653,1.298,5.975,3.898c1.333,2.596,2.002,6.494,2.002,11.682
				c0,5.216-0.669,9.115-2.002,11.711C-2357.598-1444.682-2359.592-1443.379-2362.251-1443.379 M-2362.251-1439.323
				c4.25,0,7.493-1.681,9.735-5.042c2.242-3.357,3.363-8.232,3.363-14.628c0-6.376-1.121-11.247-3.363-14.608
				c-2.242-3.353-5.485-5.033-9.735-5.033c-4.242,0-7.487,1.68-9.727,5.033c-2.244,3.361-3.363,8.232-3.363,14.608
				c0,6.396,1.119,11.271,3.363,14.628C-2369.738-1441.003-2366.493-1439.323-2362.251-1439.323"/>
		</g>
	</g>
</g>
<g id="text_11">
	<g id="g220" transform="matrix(0.24,0,0,-0.24,345.01617,119.32068)">
		<g id="use222">
			<path id="BitstreamVeraSans-Roman-31_5_" inkscape:connector-curvature="0" fill="#FFFFFF" d="M-2327.136-1465.695h8.372v28.914
				l-9.111-1.831v4.671l9.062,1.823h5.125v-33.578h8.372v-4.309h-21.82V-1465.695z"/>
		</g>
	</g>
</g>
<g id="text_12">
	<g id="g225" transform="matrix(0.24,0,0,-0.24,290.95756,131.0397)">
		<g id="use227">
			<path id="BitstreamVeraSans-Roman-31_6_" inkscape:connector-curvature="0" fill="#FFFFFF" d="M-2218.953-1442.244h8.372v28.91
				l-9.113-1.827v4.671l9.064,1.827h5.125v-33.582h8.372v-4.309h-21.82V-1442.244z"/>
		</g>
		<g id="use229">
			<path id="BitstreamVeraSans-Roman-33_2_" inkscape:connector-curvature="0" fill="#FFFFFF" d="M-2171.248-1426.122
				c2.454-0.525,4.368-1.62,5.744-3.28c1.379-1.656,2.069-3.707,2.069-6.14c0-3.735-1.286-6.628-3.855-8.683
				c-2.574-2.043-6.226-3.068-10.964-3.068c-1.585,0-3.223,0.159-4.905,0.472c-1.683,0.313-3.422,0.785-5.212,1.412v4.948
				c1.416-0.83,2.97-1.457,4.661-1.88c1.695-0.419,3.465-0.631,5.31-0.631c3.21,0,5.658,0.631,7.341,1.9
				c1.685,1.27,2.527,3.109,2.527,5.53c0,2.238-0.783,3.979-2.348,5.237c-1.564,1.261-3.741,1.892-6.527,1.892h-4.419v4.215h4.62
				c2.517,0,4.443,0.5,5.782,1.514c1.336,1.005,2.006,2.454,2.006,4.35c0,1.941-0.692,3.434-2.071,4.476
				c-1.375,1.042-3.349,1.567-5.918,1.567c-1.41,0-2.917-0.155-4.525-0.464c-1.609-0.305-3.375-0.773-5.304-1.412v4.561
				c1.949,0.545,3.774,0.948,5.475,1.221c1.699,0.269,3.3,0.407,4.808,0.407c3.892,0,6.97-0.887,9.232-2.657
				c2.267-1.766,3.402-4.15,3.402-7.161c0-2.104-0.6-3.874-1.803-5.322C-2167.325-1424.564-2169.032-1425.565-2171.248-1426.122"/>
		</g>
	</g>
</g>
<g id="text_13">
	<g id="g235" transform="matrix(0.24,0,0,-0.24,246.63088,150.21589)">
		<g id="use237">
			<path id="BitstreamVeraSans-Roman-33_3_" inkscape:connector-curvature="0" fill="#FFFFFF" d="M-2115.606-1387.746
				c2.451-0.525,4.366-1.624,5.74-3.284c1.381-1.656,2.073-3.703,2.073-6.14c0-3.735-1.286-6.624-3.86-8.679
				c-2.569-2.043-6.226-3.068-10.962-3.068c-1.585,0-3.22,0.159-4.905,0.472c-1.682,0.313-3.422,0.781-5.212,1.412v4.944
				c1.418-0.826,2.972-1.453,4.661-1.876c1.695-0.419,3.465-0.631,5.31-0.631c3.21,0,5.658,0.631,7.343,1.896
				c1.683,1.27,2.525,3.113,2.525,5.53c0,2.238-0.781,3.984-2.346,5.241c-1.565,1.261-3.741,1.892-6.531,1.892h-4.417v4.215h4.62
				c2.517,0,4.443,0.505,5.782,1.51c1.336,1.005,2.006,2.454,2.006,4.35c0,1.945-0.689,3.438-2.071,4.476
				c-1.375,1.042-3.349,1.567-5.92,1.567c-1.408,0-2.913-0.155-4.521-0.46c-1.609-0.305-3.377-0.777-5.304-1.416v4.565
				c1.949,0.541,3.774,0.948,5.473,1.217c1.701,0.269,3.302,0.407,4.808,0.407c3.892,0,6.97-0.883,9.232-2.653
				c2.269-1.766,3.404-4.154,3.404-7.166c0-2.096-0.602-3.874-1.803-5.314C-2111.686-1386.187-2113.391-1387.188-2115.606-1387.746"
				/>
		</g>
		<g id="use239">
			<path id="BitstreamVeraSans-Roman-36" inkscape:connector-curvature="0" fill="#FFFFFF" d="M-2086.472-1387.197
				c-2.299,0-4.124-0.789-5.473-2.36c-1.343-1.571-2.012-3.727-2.012-6.466c0-2.726,0.669-4.879,2.012-6.462
				c1.349-1.583,3.174-2.372,5.473-2.372c2.301,0,4.122,0.789,5.465,2.372s2.016,3.735,2.016,6.462c0,2.739-0.673,4.895-2.016,6.466
				S-2084.171-1387.197-2086.472-1387.197 M-2076.295-1371.128v-4.667c-1.29,0.61-2.588,1.07-3.898,1.388
				c-1.31,0.33-2.61,0.488-3.898,0.488c-3.381,0-5.969-1.139-7.755-3.426c-1.78-2.283-2.8-5.737-3.052-10.352
				c0.995,1.469,2.246,2.6,3.75,3.385c1.512,0.781,3.172,1.176,4.979,1.176c3.807,0,6.812-1.156,9.023-3.467
				c2.208-2.303,3.314-5.444,3.314-9.42c0-3.894-1.152-7.015-3.452-9.371c-2.301-2.348-5.363-3.524-9.186-3.524
				c-4.384,0-7.735,1.676-10.05,5.033c-2.319,3.365-3.477,8.232-3.477,14.608c0,5.99,1.422,10.763,4.264,14.327
				c2.84,3.564,6.655,5.343,11.44,5.343c1.288,0,2.588-0.126,3.898-0.378C-2079.087-1370.241-2077.72-1370.623-2076.295-1371.128"/>
		</g>
	</g>
</g>
<g id="text_14">
	<g id="g245" transform="matrix(0.24,0,0,-0.24,206.548,176.32617)">
		<g id="use247">
			<path id="BitstreamVeraSans-Roman-32_3_" inkscape:connector-curvature="0" fill="#FFFFFF" d="M-2046.511-1351.613h17.889v-4.317
				h-24.052v4.317c1.943,2.014,4.592,4.712,7.951,8.101c3.361,3.394,5.473,5.583,6.333,6.572c1.64,1.843,2.783,3.402,3.434,4.675
				c0.655,1.278,0.983,2.535,0.983,3.768c0,2.014-0.706,3.658-2.12,4.924c-1.412,1.274-3.253,1.908-5.522,1.908
				c-1.609,0-3.306-0.277-5.092-0.834c-1.78-0.562-3.685-1.408-5.715-2.543v5.18c2.063,0.83,3.988,1.453,5.78,1.876
				c1.799,0.423,3.442,0.635,4.932,0.635c3.925,0,7.054-0.985,9.387-2.946c2.332-1.961,3.497-4.586,3.497-7.865
				c0-1.558-0.289-3.04-0.877-4.431c-0.578-1.392-1.64-3.036-3.182-4.932c-0.421-0.492-1.768-1.912-4.036-4.252
				C-2039.183-1344.126-2042.379-1347.406-2046.511-1351.613"/>
		</g>
		<g id="use249">
			<path id="BitstreamVeraSans-Roman-34" inkscape:connector-curvature="0" fill="#FFFFFF" d="M-2003.772-1322.5l-12.946-20.231
				h12.946V-1322.5z M-2005.121-1318.036h6.447v-24.695h5.41v-4.264h-5.41v-8.936h-5.098v8.936h-17.102v4.948L-2005.121-1318.036z"
				/>
		</g>
	</g>
</g>
<g id="text_15">
	<g id="g252" transform="matrix(0.24,0,0,-0.24,179.38529,208.65833)">
		<g id="use254">
			<path id="BitstreamVeraSans-Roman-33_4_" inkscape:connector-curvature="0" fill="#FFFFFF" d="M-1981.034-1270.794
				c2.452-0.525,4.364-1.619,5.739-3.28c1.381-1.656,2.073-3.703,2.073-6.14c0-3.735-1.288-6.628-3.859-8.679
				c-2.572-2.047-6.226-3.072-10.962-3.072c-1.587,0-3.221,0.159-4.905,0.472c-1.685,0.317-3.422,0.785-5.212,1.412v4.948
				c1.418-0.83,2.97-1.457,4.661-1.876c1.693-0.419,3.465-0.635,5.31-0.635c3.21,0,5.658,0.635,7.341,1.9
				c1.685,1.265,2.527,3.109,2.527,5.53c0,2.238-0.783,3.984-2.348,5.237c-1.564,1.265-3.741,1.896-6.529,1.896h-4.419v4.215h4.622
				c2.517,0,4.443,0.5,5.782,1.51c1.337,1.001,2.006,2.454,2.006,4.35c0,1.945-0.692,3.438-2.073,4.472
				c-1.373,1.046-3.347,1.571-5.918,1.571c-1.408,0-2.915-0.155-4.525-0.464c-1.607-0.301-3.375-0.773-5.3-1.412v4.565
				c1.947,0.537,3.772,0.944,5.471,1.217c1.701,0.269,3.304,0.407,4.81,0.407c3.892,0,6.97-0.883,9.233-2.653
				c2.268-1.766,3.404-4.154,3.404-7.166c0-2.1-0.604-3.874-1.805-5.318C-1977.113-1269.232-1978.82-1270.237-1981.034-1270.794"/>
		</g>
	</g>
</g>
<g id="text_16">
	<g id="g257" transform="matrix(0.24,0,0,-0.24,142.9183,246.33042)">
		<g id="use259">
			<path id="BitstreamVeraSans-Roman-31_7_" inkscape:connector-curvature="0" fill="#FFFFFF" d="M-1922.7-1211.524h8.372v28.91
				l-9.111-1.827v4.671l9.062,1.827h5.125v-33.582h8.372v-4.309h-21.82V-1211.524z"/>
		</g>
		<g id="use261">
			<path id="BitstreamVeraSans-Roman-35_1_" inkscape:connector-curvature="0" fill="#FFFFFF" d="M-1890.469-1177.943h20.121v-4.321
				h-15.43v-9.281c0.743,0.252,1.485,0.443,2.228,0.566c0.747,0.126,1.493,0.191,2.24,0.191c4.228,0,7.577-1.16,10.044-3.479
				c2.476-2.315,3.711-5.453,3.711-9.412c0-4.077-1.267-7.247-3.809-9.509c-2.537-2.258-6.116-3.385-10.734-3.385
				c-1.591,0-3.213,0.134-4.865,0.407c-1.646,0.269-3.349,0.675-5.109,1.217v5.156c1.524-0.826,3.094-1.44,4.718-1.847
				c1.624-0.411,3.341-0.61,5.149-0.61c2.928,0,5.247,0.765,6.952,2.307c1.709,1.534,2.566,3.621,2.566,6.266
				c0,2.637-0.857,4.724-2.566,6.262c-1.705,1.542-4.024,2.315-6.952,2.315c-1.369,0-2.736-0.155-4.102-0.456
				c-1.357-0.305-2.747-0.777-4.165-1.424V-1177.943z"/>
		</g>
	</g>
</g>
<g id="text_17">
	<g id="g264" transform="matrix(0.24,0,0,-0.24,119.41934,288.31485)">
		<g id="use266">
			<path id="BitstreamVeraSans-Roman-33_5_" inkscape:connector-curvature="0" fill="#FFFFFF" d="M-1861.032-1111.385
				c2.454-0.525,4.366-1.615,5.741-3.28c1.381-1.656,2.071-3.703,2.071-6.14c0-3.735-1.286-6.628-3.857-8.683
				c-2.572-2.043-6.226-3.064-10.962-3.064c-1.589,0-3.221,0.155-4.905,0.468c-1.685,0.313-3.422,0.785-5.214,1.412v4.948
				c1.42-0.83,2.972-1.453,4.663-1.876c1.693-0.427,3.463-0.635,5.308-0.635c3.21,0,5.66,0.635,7.343,1.9
				c1.682,1.27,2.527,3.113,2.527,5.53c0,2.238-0.783,3.984-2.35,5.237c-1.562,1.266-3.74,1.892-6.529,1.892h-4.417v4.216h4.62
				c2.519,0,4.446,0.505,5.782,1.51c1.339,1.009,2.006,2.462,2.006,4.354c0,1.941-0.69,3.434-2.071,4.476
				c-1.373,1.046-3.347,1.562-5.92,1.562c-1.406,0-2.913-0.151-4.523-0.46c-1.607-0.301-3.375-0.777-5.302-1.412v4.561
				c1.949,0.545,3.774,0.948,5.473,1.221c1.699,0.269,3.304,0.403,4.808,0.403c3.894,0,6.97-0.883,9.235-2.653
				c2.268-1.766,3.402-4.15,3.402-7.161c0-2.104-0.602-3.874-1.802-5.322C-1857.109-1109.827-1858.816-1110.828-1861.032-1111.385"
				/>
		</g>
		<g id="use268">
			<path id="BitstreamVeraSans-Roman-34_1_" inkscape:connector-curvature="0" fill="#FFFFFF" d="M-1829.412-1098.393
				l-12.944-20.227h12.944V-1098.393z M-1830.76-1093.925h6.449v-24.695h5.408v-4.264h-5.408v-8.932h-5.1v8.932h-17.102v4.944
				L-1830.76-1093.925z"/>
		</g>
	</g>
</g>
<g id="text_18">
	<g id="g271" transform="matrix(0.24,0,0,-0.24,104.41192,333.4664)">
		<g id="use273">
			<path id="BitstreamVeraSans-Roman-32_4_" inkscape:connector-curvature="0" fill="#FFFFFF" d="M-1842.117-1037.146h17.889v-4.313
				h-24.052v4.313c1.943,2.014,4.594,4.716,7.949,8.101c3.361,3.394,5.475,5.587,6.335,6.571c1.642,1.839,2.785,3.398,3.434,4.679
				c0.655,1.278,0.983,2.531,0.983,3.764c0,2.018-0.708,3.658-2.12,4.924c-1.412,1.274-3.253,1.908-5.522,1.908
				c-1.607,0-3.304-0.277-5.09-0.838c-1.782-0.557-3.688-1.404-5.719-2.543v5.18c2.065,0.834,3.992,1.457,5.784,1.88
				c1.796,0.419,3.44,0.631,4.93,0.631c3.925,0,7.054-0.981,9.387-2.946c2.332-1.961,3.497-4.582,3.497-7.861
				c0-1.558-0.291-3.036-0.875-4.431c-0.58-1.396-1.642-3.04-3.184-4.932c-0.421-0.492-1.768-1.908-4.036-4.252
				C-1834.791-1029.659-1837.985-1032.934-1842.117-1037.146"/>
		</g>
		<g id="use275">
			<path id="BitstreamVeraSans-Roman-32_5_" inkscape:connector-curvature="0" fill="#FFFFFF" d="M-1809.05-1037.146h17.887v-4.313
				h-24.05v4.313c1.941,2.014,4.592,4.716,7.949,8.101c3.361,3.394,5.473,5.587,6.333,6.571c1.642,1.839,2.787,3.398,3.436,4.679
				c0.653,1.278,0.983,2.531,0.983,3.764c0,2.018-0.708,3.658-2.12,4.924c-1.414,1.274-3.253,1.908-5.522,1.908
				c-1.607,0-3.306-0.277-5.092-0.838c-1.782-0.557-3.687-1.404-5.717-2.543v5.18c2.063,0.834,3.99,1.457,5.782,1.88
				c1.797,0.419,3.44,0.631,4.93,0.631c3.925,0,7.056-0.981,9.387-2.946c2.333-1.961,3.499-4.582,3.499-7.861
				c0-1.558-0.291-3.036-0.877-4.431c-0.578-1.396-1.64-3.04-3.184-4.932c-0.421-0.492-1.766-1.908-4.036-4.252
				C-1801.722-1029.659-1804.92-1032.934-1809.05-1037.146"/>
		</g>
	</g>
</g>
<g id="text_19">
	<g id="g278" transform="matrix(0.24,0,0,-0.24,104.08261,380.55344)">
		<g id="use280">
			<path id="BitstreamVeraSans-Roman-35_2_" inkscape:connector-curvature="0" fill="#FFFFFF" d="M-1845.817-909.337h20.121v-4.321
				h-15.428v-9.281c0.74,0.256,1.483,0.443,2.224,0.566c0.749,0.126,1.493,0.191,2.242,0.191c4.228,0,7.574-1.16,10.044-3.475
				c2.474-2.319,3.711-5.457,3.711-9.416c0-4.073-1.27-7.243-3.807-9.505c-2.541-2.262-6.12-3.389-10.736-3.389
				c-1.591,0-3.213,0.134-4.865,0.407c-1.646,0.269-3.349,0.675-5.109,1.217v5.159c1.522-0.83,3.094-1.444,4.718-1.851
				s3.341-0.61,5.147-0.61c2.93,0,5.247,0.769,6.952,2.303c1.711,1.542,2.568,3.63,2.568,6.27c0,2.637-0.857,4.724-2.568,6.262
				c-1.705,1.542-4.022,2.315-6.952,2.315c-1.367,0-2.734-0.151-4.1-0.456c-1.359-0.301-2.747-0.777-4.165-1.424V-909.337z"/>
		</g>
	</g>
</g>
<g id="text_20">
	<g id="g283" transform="matrix(0.24,0,0,-0.24,96.816982,428.29157)">
		<g id="use285">
			<path id="BitstreamVeraSans-Roman-31_8_" inkscape:connector-curvature="0" fill="#FFFFFF" d="M-1830.442-847.383h8.372v28.906
				l-9.11-1.827v4.671l9.062,1.827h5.125v-33.577h8.372v-4.313h-21.82V-847.383z"/>
		</g>
		<g id="use287">
			<path id="BitstreamVeraSans-Roman-37_1_" inkscape:connector-curvature="0" fill="#FFFFFF" d="M-1799.56-813.806h24.361v-2.185
				l-13.757-35.706h-5.349l12.944,33.569h-18.199V-813.806z"/>
		</g>
	</g>
</g>
<g id="text_21">
	<g id="g290" transform="matrix(0.24,0,0,-0.24,104.44755,475.37861)">
		<g id="use292">
			<path id="BitstreamVeraSans-Roman-33_6_" inkscape:connector-curvature="0" fill="#FFFFFF" d="M-1831.069-737.035
				c2.452-0.525,4.364-1.62,5.741-3.28c1.379-1.656,2.069-3.707,2.069-6.144c0-3.731-1.286-6.624-3.857-8.675
				c-2.57-2.047-6.226-3.072-10.962-3.072c-1.587,0-3.223,0.159-4.903,0.472c-1.687,0.317-3.422,0.785-5.214,1.416v4.944
				c1.418-0.83,2.97-1.453,4.659-1.876c1.697-0.423,3.467-0.635,5.312-0.635c3.21,0,5.658,0.635,7.34,1.9
				c1.685,1.266,2.525,3.109,2.525,5.526c0,2.238-0.781,3.988-2.346,5.245c-1.565,1.257-3.741,1.888-6.529,1.888h-4.417v4.216h4.62
				c2.519,0,4.445,0.505,5.782,1.51c1.337,1.009,2.006,2.458,2.006,4.358c0,1.937-0.692,3.43-2.071,4.472
				c-1.375,1.046-3.349,1.562-5.92,1.562c-1.408,0-2.915-0.151-4.525-0.46c-1.605-0.301-3.373-0.773-5.302-1.412v4.565
				c1.949,0.537,3.774,0.944,5.475,1.217c1.699,0.269,3.302,0.407,4.806,0.407c3.892,0,6.972-0.887,9.235-2.657
				c2.268-1.762,3.402-4.154,3.402-7.166c0-2.096-0.6-3.87-1.803-5.314C-1827.147-735.477-1828.858-736.478-1831.069-737.035"/>
		</g>
		<g id="use294">
			<path id="BitstreamVeraSans-Roman-32_6_" inkscape:connector-curvature="0" fill="#FFFFFF" d="M-1809.121-753.157h17.889v-4.309
				h-24.054v4.309c1.945,2.018,4.594,4.72,7.951,8.105c3.361,3.398,5.473,5.587,6.333,6.571c1.64,1.839,2.787,3.398,3.434,4.679
				c0.655,1.274,0.983,2.531,0.983,3.768c0,2.01-0.706,3.65-2.118,4.919c-1.414,1.274-3.253,1.904-5.524,1.904
				c-1.605,0-3.304-0.277-5.09-0.834c-1.782-0.553-3.687-1.404-5.717-2.543v5.184c2.063,0.826,3.992,1.453,5.782,1.876
				c1.798,0.423,3.44,0.635,4.927,0.635c3.927,0,7.054-0.985,9.389-2.95c2.334-1.961,3.499-4.578,3.499-7.861
				c0-1.558-0.293-3.035-0.877-4.431c-0.58-1.392-1.642-3.035-3.184-4.932c-0.421-0.492-1.766-1.908-4.034-4.256
				C-1801.795-745.666-1804.991-748.941-1809.121-753.157"/>
		</g>
	</g>
</g>
<g id="text_22">
	<g id="g297" transform="matrix(0.24,0,0,-0.24,119.50747,520.53016)">
		<g id="use299">
			<path id="BitstreamVeraSans-Roman-32_7_" inkscape:connector-curvature="0" fill="#FFFFFF" d="M-1872.326-662.796h17.891v-4.313
				h-24.052v4.313c1.943,2.01,4.592,4.712,7.949,8.105c3.361,3.389,5.473,5.583,6.333,6.567c1.64,1.839,2.785,3.398,3.436,4.679
				c0.653,1.274,0.983,2.531,0.983,3.764c0,2.014-0.708,3.654-2.122,4.919c-1.412,1.274-3.253,1.912-5.52,1.912
				c-1.609,0-3.308-0.281-5.092-0.838c-1.782-0.557-3.687-1.404-5.717-2.539v5.18c2.063,0.826,3.99,1.453,5.78,1.872
				c1.799,0.423,3.442,0.635,4.932,0.635c3.925,0,7.054-0.981,9.387-2.95c2.332-1.953,3.499-4.578,3.499-7.853
				c0-1.562-0.291-3.04-0.877-4.439c-0.58-1.392-1.642-3.031-3.184-4.928c-0.421-0.492-1.768-1.908-4.034-4.256
				C-1864.998-655.305-1868.192-658.584-1872.326-662.796"/>
		</g>
		<g id="use301">
			<path id="BitstreamVeraSans-Roman-30_3_" inkscape:connector-curvature="0" fill="#FFFFFF" d="M-1832.712-632.599
				c-2.639,0-4.622-1.298-5.953-3.894c-1.327-2.596-1.99-6.498-1.99-11.711c0-5.196,0.663-9.09,1.99-11.686
				c1.331-2.6,3.314-3.902,5.953-3.902c2.657,0,4.649,1.302,5.975,3.902c1.331,2.596,1.998,6.49,1.998,11.686
				c0,5.212-0.667,9.115-1.998,11.711C-1828.064-633.897-1830.055-632.599-1832.712-632.599 M-1832.712-628.539
				c4.248,0,7.495-1.68,9.735-5.042c2.242-3.357,3.361-8.228,3.361-14.624c0-6.38-1.119-11.247-3.361-14.608
				c-2.24-3.361-5.487-5.037-9.735-5.037c-4.246,0-7.489,1.676-9.731,5.037c-2.24,3.361-3.361,8.228-3.361,14.608
				c0,6.396,1.121,11.267,3.361,14.624C-1840.201-630.219-1836.958-628.539-1832.712-628.539"/>
		</g>
	</g>
</g>
<g id="text_23">
	<g id="g304" transform="matrix(0.24,0,0,-0.24,150.19706,562.51459)">
		<g id="use306">
			<path id="BitstreamVeraSans-Roman-37_2_" inkscape:connector-curvature="0" fill="#FFFFFF" d="M-1939.449-545.201h24.361v-2.185
				l-13.757-35.706h-5.351l12.944,33.569h-18.197V-545.201z"/>
		</g>
	</g>
</g>
<g id="text_24">
	<g id="g309" transform="matrix(0.24,0,0,-0.24,172.29967,600.18668)">
		<g id="use311">
			<path id="BitstreamVeraSans-Roman-31_9_" inkscape:connector-curvature="0" fill="#FFFFFF" d="M-1981.497-503.387h8.372v28.906
				l-9.11-1.823v4.663l9.062,1.831h5.125v-33.577h8.372v-4.317h-21.82V-503.387z"/>
		</g>
		<g id="use313">
			<path id="BitstreamVeraSans-Roman-31_10_" inkscape:connector-curvature="0" fill="#FFFFFF" d="M-1948.43-503.387h8.372v28.906
				l-9.113-1.823v4.663l9.064,1.831h5.123v-33.577h8.372v-4.317h-21.818V-503.387z"/>
		</g>
	</g>
</g>
<g id="text_25">
	<g id="g316" transform="matrix(0.24,0,0,-0.24,206.70738,632.51883)">
		<g id="use318">
			<path id="BitstreamVeraSans-Roman-33_7_" inkscape:connector-curvature="0" fill="#FFFFFF" d="M-2035.712-422.568
				c2.454-0.521,4.366-1.619,5.741-3.284c1.381-1.656,2.071-3.699,2.071-6.14c0-3.735-1.286-6.624-3.857-8.675
				c-2.572-2.047-6.226-3.072-10.962-3.072c-1.587,0-3.221,0.159-4.905,0.472c-1.682,0.317-3.42,0.781-5.214,1.412v4.948
				c1.42-0.83,2.972-1.457,4.663-1.876c1.693-0.419,3.463-0.635,5.31-0.635c3.21,0,5.658,0.635,7.341,1.9
				c1.685,1.266,2.525,3.109,2.525,5.526c0,2.238-0.781,3.984-2.346,5.241c-1.567,1.261-3.741,1.892-6.529,1.892h-4.417v4.22h4.618
				c2.519,0,4.448,0.5,5.782,1.506c1.339,1.005,2.006,2.458,2.006,4.354c0,1.941-0.688,3.434-2.071,4.472
				c-1.375,1.046-3.347,1.567-5.918,1.567c-1.408,0-2.915-0.155-4.523-0.46c-1.607-0.305-3.377-0.773-5.304-1.416v4.57
				c1.951,0.537,3.774,0.944,5.475,1.217c1.697,0.269,3.302,0.407,4.806,0.407c3.894,0,6.97-0.883,9.232-2.657
				c2.271-1.766,3.404-4.154,3.404-7.161c0-2.1-0.6-3.874-1.805-5.318C-2031.79-421.009-2033.499-422.006-2035.712-422.568"/>
		</g>
		<g id="use320">
			<path id="BitstreamVeraSans-Roman-30_4_" inkscape:connector-curvature="0" fill="#FFFFFF" d="M-2007.217-408.489
				c-2.637,0-4.62-1.294-5.953-3.898c-1.326-2.592-1.99-6.498-1.99-11.707c0-5.192,0.663-9.09,1.99-11.686
				c1.333-2.6,3.316-3.898,5.953-3.898c2.657,0,4.651,1.298,5.977,3.898c1.331,2.596,1.996,6.494,1.996,11.686
				c0,5.208-0.665,9.115-1.996,11.707C-2002.566-409.783-2004.56-408.489-2007.217-408.489 M-2007.217-404.424
				c4.248,0,7.495-1.681,9.735-5.046c2.242-3.357,3.361-8.232,3.361-14.624c0-6.376-1.119-11.247-3.361-14.608
				c-2.24-3.357-5.487-5.037-9.735-5.037c-4.246,0-7.487,1.68-9.729,5.037c-2.242,3.361-3.363,8.232-3.363,14.608
				c0,6.392,1.121,11.267,3.363,14.624C-2014.704-406.104-2011.463-404.424-2007.217-404.424"/>
		</g>
	</g>
</g>
<g id="text_26">
	<g id="g323" transform="matrix(0.24,0,0,-0.24,246.59527,658.62912)">
		<g id="use325">
			<path id="BitstreamVeraSans-Roman-32_8_" inkscape:connector-curvature="0" fill="#FFFFFF" d="M-2126.651-386.435h17.889v-4.317
				h-24.052v4.317c1.941,2.014,4.592,4.716,7.949,8.101c3.361,3.398,5.473,5.583,6.333,6.571c1.64,1.843,2.785,3.402,3.434,4.675
				c0.657,1.278,0.985,2.535,0.985,3.768c0,2.014-0.706,3.658-2.122,4.924c-1.412,1.274-3.251,1.908-5.52,1.908
				c-1.609,0-3.306-0.277-5.092-0.838c-1.782-0.557-3.687-1.404-5.717-2.539v5.18c2.061,0.83,3.99,1.457,5.782,1.88
				c1.797,0.419,3.44,0.631,4.93,0.631c3.925,0,7.054-0.985,9.387-2.946c2.332-1.961,3.499-4.582,3.499-7.865
				c0-1.558-0.293-3.035-0.877-4.431c-0.578-1.392-1.64-3.035-3.182-4.932c-0.425-0.488-1.77-1.912-4.038-4.252
				C-2119.323-378.944-2122.521-382.223-2126.651-386.435"/>
		</g>
		<g id="use327">
			<path id="BitstreamVeraSans-Roman-36_1_" inkscape:connector-curvature="0" fill="#FFFFFF" d="M-2086.398-369.76
				c-2.301,0-4.126-0.789-5.475-2.364c-1.341-1.575-2.012-3.731-2.012-6.466c0-2.722,0.671-4.879,2.012-6.466
				c1.349-1.579,3.174-2.368,5.475-2.368s4.122,0.789,5.465,2.368c1.343,1.587,2.014,3.743,2.014,6.466
				c0,2.734-0.671,4.891-2.014,6.466S-2084.097-369.76-2086.398-369.76 M-2076.224-353.696v-4.671
				c-1.29,0.61-2.588,1.074-3.898,1.396c-1.31,0.326-2.61,0.484-3.898,0.484c-3.383,0-5.969-1.143-7.755-3.426
				c-1.78-2.283-2.798-5.733-3.054-10.352c0.997,1.473,2.248,2.6,3.754,3.385c1.51,0.785,3.17,1.176,4.979,1.176
				c3.804,0,6.812-1.16,9.019-3.467c2.211-2.307,3.314-5.448,3.314-9.42c0-3.894-1.15-7.015-3.451-9.371
				c-2.301-2.348-5.363-3.524-9.184-3.524c-4.385,0-7.737,1.68-10.055,5.033c-2.317,3.361-3.475,8.232-3.475,14.608
				c0,5.99,1.422,10.763,4.262,14.327c2.844,3.56,6.657,5.343,11.444,5.343c1.288,0,2.586-0.13,3.896-0.382
				C-2079.015-352.813-2077.648-353.191-2076.224-353.696"/>
		</g>
	</g>
</g>
<g id="text_27">
	<g id="g330" transform="matrix(0.24,0,0,-0.24,297.91195,677.8053)">
		<g id="use332">
			<path id="BitstreamVeraSans-Roman-39_2_" inkscape:connector-curvature="0" fill="#FFFFFF" d="M-2233.61-351.582v4.667
				c1.29-0.61,2.59-1.078,3.906-1.4c1.321-0.313,2.619-0.476,3.89-0.476c3.383,0,5.965,1.139,7.747,3.41
				c1.786,2.275,2.808,5.733,3.06,10.368c-0.979-1.453-2.224-2.572-3.733-3.353c-1.506-0.777-3.17-1.168-4.995-1.168
				c-3.79,0-6.787,1.147-8.999,3.438c-2.208,2.295-3.312,5.428-3.312,9.408c0,3.886,1.149,7.007,3.45,9.355
				c2.301,2.356,5.363,3.532,9.184,3.532c4.386,0,7.733-1.68,10.038-5.042c2.311-3.357,3.467-8.228,3.467-14.624
				c0-5.969-1.416-10.738-4.254-14.303c-2.832-3.556-6.641-5.343-11.426-5.343c-1.288,0-2.594,0.13-3.914,0.387
				C-2230.817-352.473-2232.186-352.095-2233.61-351.582 M-2223.411-335.522c2.301,0,4.124,0.785,5.467,2.356
				c1.347,1.579,2.02,3.735,2.02,6.478c0,2.726-0.673,4.879-2.02,6.458c-1.343,1.579-3.166,2.368-5.467,2.368
				c-2.301,0-4.12-0.789-5.463-2.368s-2.016-3.731-2.016-6.458c0-2.742,0.673-4.899,2.016-6.478
				C-2227.531-334.737-2225.712-335.522-2223.411-335.522"/>
		</g>
	</g>
</g>
<g id="text_28">
	<g id="g335" transform="matrix(0.24,0,0,-0.24,336.65556,689.52432)">
		<g id="use337">
			<path id="BitstreamVeraSans-Roman-32_9_" inkscape:connector-curvature="0" fill="#FFFFFF" d="M-2306.879-324.608h17.889v-4.313
				h-24.054v4.313c1.943,2.014,4.594,4.72,7.951,8.105c3.361,3.389,5.473,5.583,6.333,6.567c1.64,1.839,2.785,3.402,3.434,4.679
				c0.657,1.278,0.983,2.535,0.983,3.768c0,2.014-0.706,3.654-2.12,4.919c-1.412,1.274-3.251,1.908-5.522,1.908
				c-1.605,0-3.304-0.277-5.09-0.838c-1.782-0.557-3.688-1.4-5.717-2.539v5.18c2.063,0.83,3.99,1.457,5.782,1.876
				c1.796,0.419,3.44,0.631,4.927,0.631c3.927,0,7.054-0.981,9.389-2.946c2.333-1.957,3.499-4.582,3.499-7.857
				c0-1.562-0.293-3.035-0.877-4.435c-0.58-1.396-1.642-3.036-3.184-4.932c-0.421-0.492-1.768-1.908-4.037-4.252
				C-2299.552-317.117-2302.749-320.392-2306.879-324.608"/>
		</g>
		<g id="use339">
			<path id="BitstreamVeraSans-Roman-38_2_" inkscape:connector-curvature="0" fill="#FFFFFF" d="M-2267.269-310.924
				c-2.435,0-4.352-0.651-5.748-1.961c-1.392-1.302-2.089-3.092-2.089-5.375s0.698-4.073,2.089-5.383
				c1.396-1.302,3.312-1.957,5.748-1.957s4.356,0.655,5.758,1.965c1.408,1.318,2.112,3.109,2.112,5.375
				c0,2.283-0.698,4.073-2.095,5.375C-2262.886-311.575-2264.811-310.924-2267.269-310.924 M-2272.394-308.751
				c-2.197,0.541-3.91,1.567-5.139,3.068c-1.223,1.514-1.835,3.353-1.835,5.518c0,3.023,1.076,5.42,3.233,7.178
				c2.161,1.758,5.115,2.637,8.866,2.637c3.774,0,6.736-0.879,8.885-2.637s3.223-4.154,3.223-7.178c0-2.165-0.614-4.004-1.843-5.518
				c-1.223-1.501-2.926-2.527-5.106-3.068c2.468-0.57,4.388-1.693,5.766-3.373c1.379-1.676,2.069-3.719,2.069-6.136
				c0-3.67-1.121-6.494-3.361-8.464c-2.242-1.957-5.452-2.938-9.631-2.938c-4.173,0-7.383,0.981-9.631,2.938
				c-2.24,1.969-3.363,4.793-3.363,8.464c0,2.417,0.696,4.46,2.081,6.136C-2276.792-310.444-2274.86-309.321-2272.394-308.751
				 M-2274.27-300.649c0-1.961,0.612-3.491,1.837-4.59c1.227-1.103,2.948-1.648,5.164-1.648c2.203,0,3.925,0.545,5.166,1.648
				c1.243,1.099,1.868,2.629,1.868,4.59s-0.625,3.495-1.868,4.59c-1.241,1.103-2.962,1.652-5.166,1.652
				c-2.216,0-3.937-0.549-5.164-1.652C-2273.657-297.154-2274.27-298.688-2274.27-300.649"/>
		</g>
	</g>
</g>
<g id="text_29">
	<g id="g342" transform="matrix(0.24,0,0,-0.24,391.75314,693.4665)">
		<g id="use344">
			<path id="BitstreamVeraSans-Roman-30_5_" inkscape:connector-curvature="0" fill="#FFFFFF" d="M-2410.595-286.519
				c-2.637,0-4.621-1.298-5.953-3.898c-1.326-2.592-1.988-6.498-1.988-11.711c0-5.192,0.661-9.086,1.988-11.682
				c1.333-2.6,3.316-3.902,5.953-3.902c2.659,0,4.651,1.302,5.975,3.902c1.333,2.596,2,6.49,2,11.682c0,5.212-0.667,9.119-2,11.711
				C-2405.944-287.817-2407.936-286.519-2410.595-286.519 M-2410.595-282.458c4.25,0,7.493-1.685,9.735-5.046
				c2.242-3.353,3.363-8.232,3.363-14.624c0-6.376-1.121-11.247-3.363-14.608c-2.242-3.357-5.485-5.033-9.735-5.033
				c-4.244,0-7.487,1.676-9.727,5.033c-2.242,3.361-3.363,8.232-3.363,14.608c0,6.392,1.121,11.271,3.363,14.624
				C-2418.082-284.142-2414.839-282.458-2410.595-282.458"/>
		</g>
	</g>
</g>
<g id="text_30">
	<g id="g347" transform="matrix(0.24,0,0,-0.24,439.82134,689.52431)">
		<g id="use349">
			<path id="BitstreamVeraSans-Roman-32_10_" inkscape:connector-curvature="0" fill="#FFFFFF" d="M-2513.333-324.608h17.887v-4.313
				h-24.052v4.313c1.945,2.014,4.592,4.72,7.949,8.105c3.363,3.389,5.475,5.583,6.337,6.567c1.642,1.839,2.783,3.402,3.434,4.679
				c0.655,1.278,0.981,2.535,0.981,3.768c0,2.014-0.706,3.654-2.12,4.919c-1.412,1.274-3.253,1.908-5.521,1.908
				c-1.607,0-3.304-0.277-5.09-0.838c-1.784-0.557-3.687-1.4-5.717-2.539v5.18c2.065,0.83,3.988,1.457,5.782,1.876
				c1.797,0.419,3.438,0.631,4.928,0.631c3.925,0,7.054-0.981,9.389-2.946c2.333-1.957,3.497-4.582,3.497-7.857
				c0-1.562-0.291-3.035-0.875-4.435c-0.58-1.396-1.642-3.036-3.186-4.932c-0.417-0.492-1.762-1.908-4.034-4.252
				C-2506.007-317.117-2509.205-320.392-2513.333-324.608"/>
		</g>
	</g>
</g>
<g id="text_31">
	<g id="g352" transform="matrix(0.24,0,0,-0.24,478.37369,677.8053)">
		<g id="use354">
			<path id="BitstreamVeraSans-Roman-31_11_" inkscape:connector-curvature="0" fill="#FFFFFF" d="M-2594.01-348.063h8.374v28.91
				l-9.115-1.827v4.671l9.066,1.827h5.123v-33.582h8.372v-4.309h-21.82V-348.063z"/>
		</g>
		<g id="use356">
			<path id="BitstreamVeraSans-Roman-34_2_" inkscape:connector-curvature="0" fill="#FFFFFF" d="M-2547.747-318.949l-12.943-20.231
				h12.943V-318.949z M-2549.096-314.481h6.449v-24.699h5.408v-4.26h-5.408v-8.931h-5.101v8.931h-17.1v4.948L-2549.096-314.481z"/>
		</g>
	</g>
</g>
<g id="text_32">
	<g id="g359" transform="matrix(0.24,0,0,-0.24,522.06287,658.62911)">
		<g id="use361">
			<path id="BitstreamVeraSans-Roman-33_8_" inkscape:connector-curvature="0" fill="#FFFFFF" d="M-2666.797-370.318
				c2.454-0.521,4.364-1.611,5.74-3.276c1.384-1.66,2.073-3.707,2.073-6.14c0-3.735-1.286-6.628-3.859-8.683
				c-2.57-2.047-6.226-3.068-10.962-3.068c-1.585,0-3.223,0.155-4.905,0.468c-1.682,0.313-3.422,0.789-5.21,1.412v4.948
				c1.416-0.826,2.968-1.453,4.661-1.876c1.691-0.423,3.463-0.631,5.308-0.631c3.21,0,5.658,0.631,7.343,1.9
				c1.683,1.265,2.525,3.109,2.525,5.53c0,2.238-0.783,3.975-2.348,5.233c-1.566,1.266-3.739,1.896-6.527,1.896h-4.419v4.211h4.622
				c2.517,0,4.441,0.505,5.782,1.514c1.336,1.005,2.004,2.462,2.004,4.354c0,1.941-0.69,3.434-2.073,4.472
				c-1.375,1.042-3.345,1.567-5.916,1.567c-1.408,0-2.917-0.151-4.525-0.46c-1.607-0.305-3.377-0.777-5.304-1.42v4.569
				c1.949,0.545,3.778,0.944,5.473,1.221c1.699,0.269,3.302,0.403,4.81,0.403c3.89,0,6.968-0.887,9.233-2.657
				c2.266-1.766,3.404-4.15,3.404-7.161c0-2.1-0.6-3.874-1.807-5.318C-2662.876-368.755-2664.585-369.76-2666.797-370.318"/>
		</g>
		<g id="use363">
			<path id="BitstreamVeraSans-Roman-35_3_" inkscape:connector-curvature="0" fill="#FFFFFF" d="M-2649.21-352.858h20.123v-4.321
				h-15.43v-9.281c0.74,0.256,1.485,0.443,2.226,0.574c0.747,0.118,1.493,0.183,2.242,0.183c4.23,0,7.574-1.16,10.044-3.475
				c2.474-2.319,3.713-5.457,3.713-9.412c0-4.077-1.272-7.251-3.811-9.509c-2.537-2.254-6.116-3.385-10.734-3.385
				c-1.591,0-3.215,0.138-4.865,0.407c-1.644,0.269-3.349,0.675-5.109,1.217v5.159c1.522-0.834,3.096-1.449,4.72-1.855
				c1.626-0.407,3.339-0.606,5.147-0.606c2.928,0,5.245,0.769,6.95,2.299c1.713,1.542,2.568,3.634,2.568,6.274
				c0,2.637-0.854,4.724-2.568,6.258c-1.705,1.546-4.022,2.315-6.95,2.315c-1.371,0-2.736-0.151-4.102-0.452
				c-1.359-0.305-2.747-0.777-4.167-1.42V-352.858z"/>
		</g>
	</g>
</g>
<g id="text_33">
	<g id="g366" transform="matrix(0.24,0,0,-0.24,561.90576,632.51882)">
		<g id="use368">
			<path id="BitstreamVeraSans-Roman-32_11_" inkscape:connector-curvature="0" fill="#FFFFFF" d="M-2757.646-438.689h17.889v-4.309
				h-24.052v4.309c1.941,2.018,4.592,4.716,7.947,8.11c3.363,3.394,5.471,5.583,6.335,6.567c1.64,1.839,2.783,3.402,3.434,4.675
				c0.655,1.278,0.981,2.535,0.981,3.768c0,2.014-0.706,3.658-2.118,4.919c-1.414,1.274-3.253,1.908-5.52,1.908
				c-1.607,0-3.308-0.273-5.092-0.83c-1.782-0.562-3.688-1.408-5.719-2.543v5.18c2.063,0.83,3.992,1.449,5.782,1.872
				c1.799,0.427,3.442,0.639,4.932,0.639c3.925,0,7.05-0.981,9.385-2.95c2.336-1.957,3.501-4.578,3.501-7.861
				c0-1.558-0.291-3.04-0.879-4.435c-0.58-1.388-1.642-3.031-3.182-4.924c-0.421-0.496-1.768-1.917-4.038-4.256
				C-2750.322-431.198-2753.516-434.474-2757.646-438.689"/>
		</g>
		<g id="use370">
			<path id="BitstreamVeraSans-Roman-33_9_" inkscape:connector-curvature="0" fill="#FFFFFF" d="M-2713.467-422.568
				c2.454-0.521,4.37-1.619,5.743-3.284c1.379-1.656,2.069-3.699,2.069-6.14c0-3.735-1.286-6.624-3.857-8.675
				c-2.572-2.047-6.228-3.072-10.964-3.072c-1.585,0-3.219,0.159-4.901,0.472c-1.683,0.317-3.422,0.781-5.214,1.412v4.948
				c1.416-0.83,2.972-1.457,4.661-1.876c1.697-0.419,3.463-0.635,5.312-0.635c3.21,0,5.654,0.635,7.34,1.9
				c1.685,1.266,2.525,3.109,2.525,5.526c0,2.238-0.781,3.984-2.346,5.241c-1.565,1.261-3.744,1.892-6.531,1.892h-4.415v4.22h4.618
				c2.517,0,4.445,0.5,5.782,1.506c1.337,1.005,2.004,2.458,2.004,4.354c0,1.941-0.69,3.434-2.067,4.472
				c-1.375,1.046-3.351,1.567-5.922,1.567c-1.408,0-2.914-0.155-4.521-0.46s-3.375-0.773-5.304-1.416v4.57
				c1.949,0.537,3.772,0.944,5.473,1.217c1.701,0.269,3.304,0.407,4.807,0.407c3.892,0,6.972-0.883,9.235-2.657
				c2.267-1.766,3.402-4.154,3.402-7.161c0-2.1-0.602-3.874-1.803-5.318C-2709.542-421.009-2711.251-422.006-2713.467-422.568"/>
		</g>
	</g>
</g>
<g id="text_34">
	<g id="g373" transform="matrix(0.24,0,0,-0.24,604.08159,600.18667)">
		<g id="use375">
			<path id="BitstreamVeraSans-Roman-34_3_" inkscape:connector-curvature="0" fill="#FFFFFF" d="M-2832.375-474.277l-12.948-20.227
				h12.948V-474.277z M-2833.726-469.809h6.447v-24.695h5.408v-4.264h-5.408v-8.936h-5.096v8.936h-17.104v4.944L-2833.726-469.809z"
				/>
		</g>
	</g>
</g>
<g id="text_35">
	<g id="g378" transform="matrix(0.24,0,0,-0.24,626.5817,562.51457)">
		<g id="use380">
			<path id="BitstreamVeraSans-Roman-31_12_" inkscape:connector-curvature="0" fill="#FFFFFF" d="M-2890.599-578.778h8.37v28.91
				l-9.11-1.827v4.667l9.064,1.827h5.123v-33.577h8.374v-4.313h-21.82V-578.778z"/>
		</g>
		<g id="use382">
			<path id="BitstreamVeraSans-Roman-36_2_" inkscape:connector-curvature="0" fill="#FFFFFF" d="M-2846.825-562.107
				c-2.301,0-4.124-0.789-5.473-2.36c-1.341-1.575-2.014-3.727-2.014-6.466c0-2.722,0.674-4.879,2.014-6.466
				c1.349-1.579,3.172-2.372,5.473-2.372s4.124,0.793,5.465,2.372c1.345,1.587,2.016,3.743,2.016,6.466
				c0,2.738-0.671,4.891-2.016,6.466C-2842.701-562.897-2844.524-562.107-2846.825-562.107 M-2836.648-546.035v-4.671
				c-1.29,0.606-2.59,1.07-3.9,1.388c-1.306,0.326-2.608,0.488-3.896,0.488c-3.383,0-5.967-1.143-7.756-3.426
				c-1.78-2.283-2.799-5.737-3.054-10.356c0.997,1.477,2.246,2.6,3.752,3.39c1.51,0.785,3.172,1.176,4.978,1.176
				c3.807,0,6.814-1.16,9.021-3.467c2.212-2.311,3.314-5.448,3.314-9.42c0-3.894-1.149-7.019-3.45-9.371
				c-2.301-2.352-5.363-3.528-9.186-3.528c-4.384,0-7.735,1.68-10.054,5.037c-2.317,3.361-3.475,8.232-3.475,14.608
				c0,5.99,1.422,10.767,4.262,14.327c2.842,3.56,6.659,5.343,11.446,5.343c1.286,0,2.588-0.13,3.894-0.383
				C-2839.441-545.152-2838.074-545.53-2836.648-546.035"/>
		</g>
	</g>
</g>
<g id="text_36">
	<g id="g385" transform="matrix(0.24,0,0,-0.24,649.10567,520.53014)">
		<g id="use387">
			<path id="BitstreamVeraSans-Roman-33_10_" inkscape:connector-curvature="0" fill="#FFFFFF" d="M-2921.033-646.678
				c2.454-0.525,4.366-1.619,5.739-3.28c1.384-1.656,2.073-3.703,2.073-6.14c0-3.739-1.286-6.633-3.857-8.683
				c-2.572-2.047-6.226-3.068-10.962-3.068c-1.587,0-3.225,0.159-4.907,0.472s-3.422,0.785-5.214,1.412v4.944
				c1.42-0.826,2.972-1.453,4.665-1.872c1.693-0.423,3.463-0.635,5.308-0.635c3.21,0,5.66,0.635,7.34,1.9
				c1.685,1.265,2.527,3.113,2.527,5.53c0,2.234-0.781,3.984-2.348,5.237c-1.565,1.261-3.74,1.892-6.531,1.892h-4.415v4.216h4.618
				c2.521,0,4.445,0.505,5.782,1.51c1.341,1.009,2.008,2.458,2.008,4.354c0,1.945-0.69,3.434-2.071,4.472
				c-1.375,1.046-3.351,1.571-5.922,1.571c-1.404,0-2.914-0.155-4.521-0.464c-1.607-0.301-3.375-0.773-5.302-1.412v4.561
				c1.947,0.541,3.772,0.948,5.471,1.217c1.701,0.273,3.304,0.407,4.81,0.407c3.892,0,6.97-0.883,9.232-2.657
				c2.269-1.762,3.402-4.146,3.402-7.157c0-2.104-0.602-3.874-1.803-5.322C-2917.113-645.116-2918.819-646.121-2921.033-646.678"/>
		</g>
		<g id="use389">
			<path id="BitstreamVeraSans-Roman-33_11_" inkscape:connector-curvature="0" fill="#FFFFFF" d="M-2887.966-646.678
				c2.454-0.525,4.364-1.619,5.739-3.28c1.381-1.656,2.071-3.703,2.071-6.14c0-3.739-1.286-6.633-3.855-8.683
				c-2.572-2.047-6.228-3.068-10.964-3.068c-1.587,0-3.223,0.159-4.905,0.472c-1.685,0.313-3.422,0.785-5.217,1.412v4.944
				c1.422-0.826,2.974-1.453,4.665-1.872c1.693-0.423,3.465-0.635,5.308-0.635c3.21,0,5.66,0.635,7.343,1.9s2.527,3.113,2.527,5.53
				c0,2.234-0.783,3.984-2.35,5.237c-1.564,1.261-3.737,1.892-6.529,1.892h-4.417v4.216h4.62c2.521,0,4.443,0.505,5.78,1.51
				c1.343,1.009,2.01,2.458,2.01,4.354c0,1.945-0.69,3.434-2.073,4.472c-1.373,1.046-3.349,1.571-5.92,1.571
				c-1.404,0-2.913-0.155-4.523-0.464c-1.607-0.301-3.373-0.773-5.302-1.412v4.561c1.949,0.541,3.772,0.948,5.471,1.217
				c1.701,0.273,3.306,0.407,4.81,0.407c3.892,0,6.97-0.883,9.235-2.657c2.266-1.762,3.4-4.146,3.4-7.157
				c0-2.104-0.6-3.874-1.802-5.322C-2884.046-645.116-2885.755-646.121-2887.966-646.678"/>
		</g>
	</g>
</g>
<g id="text_37">
	<g id="g392" transform="matrix(0.24,0,0,-0.24,664.71683,475.37859)">
		<g id="use394">
			<path id="BitstreamVeraSans-Roman-32_12_" inkscape:connector-curvature="0" fill="#FFFFFF" d="M-2963.393-753.157h17.891v-4.309
				h-24.054v4.309c1.943,2.018,4.594,4.72,7.953,8.105c3.357,3.398,5.473,5.587,6.329,6.571c1.642,1.839,2.789,3.398,3.436,4.679
				c0.655,1.274,0.985,2.531,0.985,3.768c0,2.01-0.706,3.65-2.12,4.919c-1.416,1.274-3.255,1.904-5.521,1.904
				c-1.607,0-3.304-0.277-5.094-0.834c-1.778-0.553-3.687-1.404-5.717-2.543v5.184c2.065,0.826,3.994,1.453,5.782,1.876
				c1.798,0.423,3.442,0.635,4.932,0.635c3.925,0,7.053-0.985,9.383-2.95c2.336-1.961,3.503-4.578,3.503-7.861
				c0-1.558-0.293-3.035-0.875-4.431c-0.58-1.392-1.642-3.035-3.184-4.932c-0.425-0.492-1.768-1.908-4.036-4.256
				C-2956.062-745.666-2959.261-748.941-2963.393-753.157"/>
		</g>
		<g id="use396">
			<path id="BitstreamVeraSans-Roman-31_13_" inkscape:connector-curvature="0" fill="#FFFFFF" d="M-2933.85-753.157h8.37v28.914
				l-9.111-1.831v4.671l9.064,1.827h5.123v-33.582h8.374v-4.309h-21.82V-753.157z"/>
		</g>
	</g>
</g>
<g id="text_38">
	<g id="g399" transform="matrix(0.24,0,0,-0.24,679.81552,428.29155)">
		<g id="use401">
			<path id="BitstreamVeraSans-Roman-36_3_" inkscape:connector-curvature="0" fill="#FFFFFF" d="M-2986.419-830.713
				c-2.301,0-4.124-0.789-5.473-2.364c-1.345-1.571-2.014-3.723-2.014-6.462c0-2.722,0.669-4.883,2.014-6.466
				c1.349-1.579,3.172-2.372,5.473-2.372s4.124,0.793,5.465,2.372c1.341,1.583,2.012,3.743,2.012,6.466
				c0,2.738-0.671,4.891-2.012,6.462C-2982.295-831.502-2984.118-830.713-2986.419-830.713 M-2976.244-814.644v-4.671
				c-1.288,0.61-2.588,1.074-3.898,1.392c-1.312,0.326-2.608,0.488-3.9,0.488c-3.381,0-5.967-1.139-7.751-3.426
				c-1.782-2.283-2.8-5.737-3.054-10.356c0.993,1.477,2.244,2.604,3.751,3.385c1.51,0.785,3.168,1.18,4.977,1.18
				c3.809,0,6.813-1.156,9.023-3.467c2.208-2.307,3.312-5.448,3.312-9.42c0-3.894-1.152-7.015-3.453-9.375
				c-2.301-2.352-5.359-3.524-9.182-3.524c-4.386,0-7.737,1.68-10.055,5.033c-2.317,3.365-3.475,8.236-3.475,14.612
				c0,5.99,1.42,10.763,4.262,14.327c2.842,3.556,6.657,5.339,11.44,5.339c1.292,0,2.59-0.126,3.9-0.382
				C-2979.036-813.761-2977.669-814.14-2976.244-814.644"/>
		</g>
	</g>
</g>
</svg>
