<?xml version="1.0" encoding="utf-8"?>
<!-- Generator: Adobe Illustrator 16.0.4, SVG Export Plug-In . SVG Version: 6.00 Build 0)  -->
<!DOCTYPE svg PUBLIC "-//W3C//DTD SVG 1.1//EN" "http://www.w3.org/Graphics/SVG/1.1/DTD/svg11.dtd">
<svg version="1.1" xmlns="http://www.w3.org/2000/svg" xmlns:xlink="http://www.w3.org/1999/xlink" x="0px" y="0px" width="325px"
	 height="325px" viewBox="0 0 325 325" enable-background="new 0 0 325 325" xml:space="preserve">
<g id="inner_x5F_shadow">
	<path opacity="0.4" fill="#666666" d="M227.007,92.755c0,2.568,2.082,4.65,4.65,4.65c27.898,0,55.795,0,83.693,0
		c2.568,0,4.65-2.082,4.65-4.65c0-27.898,0-55.795,0-83.693c0-2.568-2.082-4.65-4.65-4.65c-27.898,0-55.795,0-83.693,0
		c-2.568,0-4.65,2.082-4.65,4.65C227.007,36.96,227.007,64.857,227.007,92.755z"/>
	<path fill="#666666" d="M115.416,204.347c0,2.568,2.082,4.649,4.65,4.649c27.898,0,55.795,0,83.693,0
		c2.568,0,4.65-2.081,4.65-4.649c0-27.897,0-55.796,0-83.693c0-2.568-2.082-4.649-4.65-4.649c-27.898,0-55.795,0-83.693,0
		c-2.568,0-4.65,2.081-4.65,4.649C115.416,148.551,115.416,176.449,115.416,204.347z"/>
	<path opacity="0.4" fill="#666666" d="M227.007,204.347c0,2.568,2.082,4.649,4.65,4.649c27.898,0,55.795,0,83.693,0
		c2.568,0,4.65-2.081,4.65-4.649c0-27.897,0-55.796,0-83.693c0-2.568-2.082-4.649-4.65-4.649c-27.898,0-55.795,0-83.693,0
		c-2.568,0-4.65,2.081-4.65,4.649C227.007,148.551,227.007,176.449,227.007,204.347z"/>
	<path opacity="0.4" fill="#666666" d="M3.824,315.938c0,2.567,2.082,4.649,4.65,4.649c27.898,0,55.795,0,83.693,0
		c2.568,0,4.65-2.082,4.65-4.649c0-27.898,0-55.796,0-83.694c0-2.567-2.082-4.649-4.65-4.649c-27.898,0-55.795,0-83.693,0
		c-2.568,0-4.65,2.082-4.65,4.649C3.824,260.143,3.824,288.04,3.824,315.938z"/>
	<path opacity="0.4" fill="#666666" d="M115.416,315.938c0,2.567,2.082,4.649,4.65,4.649c27.898,0,55.795,0,83.693,0
		c2.568,0,4.65-2.082,4.65-4.649c0-27.898,0-55.796,0-83.694c0-2.567-2.082-4.649-4.65-4.649c-27.898,0-55.795,0-83.693,0
		c-2.568,0-4.65,2.082-4.65,4.649C115.416,260.143,115.416,288.04,115.416,315.938z"/>
	<path fill="#666666" d="M227.007,315.938c0,2.567,2.082,4.649,4.65,4.649c27.898,0,55.795,0,83.693,0
		c2.568,0,4.65-2.082,4.65-4.649c0-27.898,0-55.796,0-83.694c0-2.567-2.082-4.649-4.65-4.649c-27.898,0-55.795,0-83.693,0
		c-2.568,0-4.65,2.082-4.65,4.649C227.007,260.143,227.007,288.04,227.007,315.938z"/>
	<path fill="#666666" d="M3.824,92.755c0,2.568,2.082,4.65,4.65,4.65c27.898,0,55.795,0,83.693,0c2.568,0,4.65-2.082,4.65-4.65
		c0-27.898,0-55.795,0-83.693c0-2.568-2.082-4.65-4.65-4.65c-27.898,0-55.795,0-83.693,0c-2.568,0-4.65,2.082-4.65,4.65
		C3.824,36.96,3.824,64.857,3.824,92.755z"/>
	<path opacity="0.4" fill="#666666" d="M115.416,92.755c0,2.568,2.082,4.65,4.65,4.65c27.898,0,55.795,0,83.693,0
		c2.568,0,4.65-2.082,4.65-4.65c0-27.898,0-55.795,0-83.693c0-2.568-2.082-4.65-4.65-4.65c-27.898,0-55.795,0-83.693,0
		c-2.568,0-4.65,2.082-4.65,4.65C115.416,36.96,115.416,64.857,115.416,92.755z"/>
	<path opacity="0.4" fill="#666666" d="M3.824,204.347c0,2.568,2.082,4.649,4.65,4.649c27.898,0,55.795,0,83.693,0
		c2.568,0,4.65-2.081,4.65-4.649c0-27.897,0-55.796,0-83.693c0-2.568-2.082-4.649-4.65-4.649c-27.898,0-55.795,0-83.693,0
		c-2.568,0-4.65,2.081-4.65,4.649C3.824,148.551,3.824,176.449,3.824,204.347z"/>
</g>
<g id="inner">
	<path opacity="0.4" fill="#CCCCCC" d="M228.007,90.755c0,2.568,2.082,4.65,4.65,4.65c27.898,0,55.795,0,83.693,0
		c2.568,0,4.65-2.082,4.65-4.65c0-27.898,0-55.795,0-83.693c0-2.568-2.082-4.65-4.65-4.65c-27.898,0-55.795,0-83.693,0
		c-2.568,0-4.65,2.082-4.65,4.65C228.007,34.96,228.007,62.857,228.007,90.755z"/>
	<path fill="#CCCCCC" d="M116.416,202.347c0,2.568,2.082,4.649,4.65,4.649c27.898,0,55.795,0,83.693,0
		c2.568,0,4.65-2.081,4.65-4.649c0-27.897,0-55.796,0-83.693c0-2.568-2.082-4.649-4.65-4.649c-27.898,0-55.795,0-83.693,0
		c-2.568,0-4.65,2.081-4.65,4.649C116.416,146.551,116.416,174.449,116.416,202.347z"/>
	<path fill="#CCCCCC" d="M228.007,202.347c0,2.568,2.082,4.649,4.65,4.649c27.898,0,55.795,0,83.693,0
		c2.568,0,4.65-2.081,4.65-4.649c0-27.897,0-55.796,0-83.693c0-2.568-2.082-4.649-4.65-4.649c-27.898,0-55.795,0-83.693,0
		c-2.568,0-4.65,2.081-4.65,4.649C228.007,146.551,228.007,174.449,228.007,202.347z"/>
	<path opacity="0.4" fill="#CCCCCC" d="M4.824,313.938c0,2.567,2.082,4.649,4.65,4.649c27.898,0,55.795,0,83.693,0
		c2.568,0,4.65-2.082,4.65-4.649c0-27.898,0-55.796,0-83.694c0-2.567-2.082-4.649-4.65-4.649c-27.898,0-55.795,0-83.693,0
		c-2.568,0-4.65,2.082-4.65,4.649C4.824,258.143,4.824,286.04,4.824,313.938z"/>
	<path opacity="0.4" fill="#CCCCCC" d="M116.416,313.938c0,2.567,2.082,4.649,4.65,4.649c27.898,0,55.795,0,83.693,0
		c2.568,0,4.65-2.082,4.65-4.649c0-27.898,0-55.796,0-83.694c0-2.567-2.082-4.649-4.65-4.649c-27.898,0-55.795,0-83.693,0
		c-2.568,0-4.65,2.082-4.65,4.649C116.416,258.143,116.416,286.04,116.416,313.938z"/>
	<path fill="#CCCCCC" d="M228.007,313.938c0,2.567,2.082,4.649,4.65,4.649c27.898,0,55.795,0,83.693,0
		c2.568,0,4.65-2.082,4.65-4.649c0-27.898,0-55.796,0-83.694c0-2.567-2.082-4.649-4.65-4.649c-27.898,0-55.795,0-83.693,0
		c-2.568,0-4.65,2.082-4.65,4.649C228.007,258.143,228.007,286.04,228.007,313.938z"/>
	<path fill="#CCCCCC" d="M4.824,90.755c0,2.568,2.082,4.65,4.65,4.65c27.898,0,55.795,0,83.693,0c2.568,0,4.65-2.082,4.65-4.65
		c0-27.898,0-55.795,0-83.693c0-2.568-2.082-4.65-4.65-4.65c-27.898,0-55.795,0-83.693,0c-2.568,0-4.65,2.082-4.65,4.65
		C4.824,34.96,4.824,62.857,4.824,90.755z"/>
	<path opacity="0.4" fill="#CCCCCC" d="M116.416,90.755c0,2.568,2.082,4.65,4.65,4.65c27.898,0,55.795,0,83.693,0
		c2.568,0,4.65-2.082,4.65-4.65c0-27.898,0-55.795,0-83.693c0-2.568-2.082-4.65-4.65-4.65c-27.898,0-55.795,0-83.693,0
		c-2.568,0-4.65,2.082-4.65,4.65C116.416,34.96,116.416,62.857,116.416,90.755z"/>
	<path opacity="0.4" fill="#CCCCCC" d="M4.824,202.347c0,2.568,2.082,4.649,4.65,4.649c27.898,0,55.795,0,83.693,0
		c2.568,0,4.65-2.081,4.65-4.649c0-27.897,0-55.796,0-83.693c0-2.568-2.082-4.649-4.65-4.649c-27.898,0-55.795,0-83.693,0
		c-2.568,0-4.65,2.081-4.65,4.649C4.824,146.551,4.824,174.449,4.824,202.347z"/>
</g>
<g id="X">
	<path fill="#999999" d="M28.354,78.45c-0.672,0.673-1.289,0.843-2.211,0.611c-0.857-0.216-1.293-0.828-1.849-1.383
		c-0.486-0.486-2.871-2.725-3.1-3.5c-0.528-1.787,1.264-2.982,2.198-3.916c1.118-1.118,2.237-2.237,3.355-3.355
		c4.473-4.473,8.946-8.946,13.42-13.42c0.559-0.559,1.118-1.118,1.677-1.677c0.55-0.55,1.181-1.001,1.602-1.696
		c0.505-0.833,0.518-1.481,0.045-2.333c-0.398-0.717-1.032-1.159-1.582-1.709c-2.237-2.237-4.473-4.474-6.71-6.71
		c-4.473-4.473-8.946-8.946-13.419-13.42c-0.672-0.672-0.843-1.289-0.611-2.211c0.216-0.857,0.828-1.293,1.383-1.849
		c0.486-0.486,2.725-2.871,3.5-3.101c1.787-0.528,2.982,1.265,3.916,2.198c1.118,1.118,2.236,2.236,3.355,3.355
		c4.473,4.473,8.946,8.946,13.419,13.419c0.559,0.56,1.119,1.119,1.678,1.678c0.55,0.55,1.001,1.181,1.696,1.602
		c0.833,0.505,1.481,0.518,2.333,0.045c0.717-0.398,1.159-1.032,1.709-1.582c2.237-2.237,4.473-4.473,6.71-6.71
		c4.473-4.473,8.946-8.946,13.42-13.419c0.672-0.673,1.289-0.843,2.211-0.611c0.857,0.216,1.293,0.828,1.849,1.383
		c0.486,0.486,2.871,2.725,3.101,3.5c0.528,1.787-1.264,2.982-2.198,3.916c-1.118,1.118-2.237,2.237-3.355,3.355
		c-4.473,4.473-8.946,8.946-13.42,13.42c-0.559,0.559-1.118,1.118-1.677,1.677c-0.55,0.55-1.181,1.001-1.602,1.696
		c-0.505,0.833-0.518,1.481-0.045,2.333c0.398,0.717,1.032,1.159,1.582,1.709c2.237,2.237,4.473,4.474,6.71,6.71
		c4.473,4.473,8.946,8.946,13.419,13.42c0.673,0.672,0.843,1.289,0.611,2.211c-0.216,0.857-0.828,1.293-1.383,1.849
		c-0.486,0.486-2.725,2.871-3.5,3.101c-1.787,0.528-2.982-1.265-3.916-2.198c-1.118-1.118-2.236-2.237-3.355-3.355
		c-4.473-4.473-8.946-8.946-13.419-13.419c-0.559-0.56-1.119-1.119-1.678-1.678c-0.55-0.55-1.002-1.181-1.696-1.602
		c-0.833-0.505-1.481-0.518-2.333-0.045c-0.717,0.398-1.159,1.032-1.709,1.582c-2.237,2.237-4.473,4.473-6.71,6.71
		C37.301,69.504,32.828,73.978,28.354,78.45z"/>
	<path fill="#999999" d="M139.946,192.041c-0.672,0.674-1.289,0.844-2.211,0.611c-0.857-0.216-1.293-0.828-1.849-1.383
		c-0.486-0.486-2.871-2.725-3.1-3.5c-0.528-1.787,1.264-2.982,2.198-3.916c1.118-1.118,2.237-2.236,3.355-3.355
		c4.473-4.473,8.946-8.945,13.42-13.42c0.559-0.559,1.118-1.117,1.677-1.677c0.55-0.55,1.181-1.001,1.602-1.696
		c0.505-0.832,0.518-1.481,0.045-2.333c-0.398-0.717-1.032-1.159-1.582-1.709c-2.237-2.237-4.473-4.474-6.71-6.71
		c-4.473-4.473-8.946-8.946-13.419-13.42c-0.672-0.672-0.843-1.289-0.611-2.211c0.216-0.857,0.828-1.293,1.383-1.849
		c0.486-0.486,2.725-2.871,3.5-3.101c1.787-0.528,2.982,1.265,3.916,2.198c1.118,1.118,2.236,2.236,3.355,3.355
		c4.473,4.473,8.946,8.946,13.419,13.419c0.559,0.56,1.119,1.119,1.678,1.678c0.55,0.55,1.001,1.181,1.696,1.602
		c0.833,0.505,1.481,0.518,2.333,0.045c0.717-0.398,1.159-1.032,1.709-1.582c2.237-2.237,4.473-4.473,6.71-6.71
		c4.473-4.473,8.946-8.946,13.42-13.419c0.672-0.673,1.289-0.843,2.211-0.611c0.857,0.216,1.293,0.828,1.849,1.383
		c0.486,0.486,2.871,2.725,3.101,3.5c0.528,1.787-1.264,2.982-2.198,3.916c-1.118,1.118-2.237,2.237-3.355,3.355
		c-4.473,4.473-8.946,8.946-13.42,13.42c-0.559,0.559-1.118,1.118-1.677,1.677c-0.55,0.55-1.181,1.001-1.602,1.696
		c-0.505,0.833-0.518,1.481-0.045,2.333c0.398,0.718,1.032,1.16,1.582,1.709c2.237,2.237,4.473,4.475,6.71,6.711
		c4.473,4.473,8.946,8.945,13.419,13.42c0.673,0.672,0.843,1.289,0.611,2.211c-0.216,0.857-0.828,1.293-1.383,1.85
		c-0.486,0.486-2.725,2.871-3.5,3.1c-1.787,0.529-2.982-1.264-3.916-2.197c-1.118-1.119-2.236-2.237-3.355-3.355
		c-4.473-4.473-8.946-8.946-13.419-13.42c-0.559-0.559-1.119-1.118-1.678-1.678c-0.55-0.55-1.002-1.18-1.696-1.602
		c-0.833-0.504-1.481-0.518-2.333-0.045c-0.717,0.398-1.159,1.032-1.709,1.582c-2.237,2.236-4.473,4.473-6.71,6.71
		C148.893,183.096,144.419,187.568,139.946,192.041z"/>
	<path opacity="0.4" fill="#999999" d="M139.946,303.633c-0.672,0.674-1.289,0.844-2.211,0.611
		c-0.857-0.217-1.293-0.828-1.849-1.383c-0.486-0.486-2.871-2.725-3.1-3.5c-0.528-1.787,1.264-2.982,2.198-3.916
		c1.118-1.119,2.237-2.236,3.355-3.355c4.473-4.473,8.946-8.945,13.42-13.42c0.559-0.559,1.118-1.117,1.677-1.678
		c0.55-0.549,1.181-1,1.602-1.695c0.505-0.832,0.518-1.481,0.045-2.333c-0.398-0.718-1.032-1.159-1.582-1.709
		c-2.237-2.237-4.473-4.474-6.71-6.71c-4.473-4.473-8.946-8.946-13.419-13.42c-0.672-0.672-0.843-1.289-0.611-2.211
		c0.216-0.857,0.828-1.294,1.383-1.85c0.486-0.486,2.725-2.871,3.5-3.101c1.787-0.528,2.982,1.265,3.916,2.198
		c1.118,1.118,2.236,2.236,3.355,3.355c4.473,4.473,8.946,8.945,13.419,13.419c0.559,0.56,1.119,1.118,1.678,1.678
		c0.55,0.55,1.001,1.181,1.696,1.602c0.833,0.505,1.481,0.518,2.333,0.046c0.717-0.398,1.159-1.033,1.709-1.582
		c2.237-2.237,4.473-4.474,6.71-6.711c4.473-4.473,8.946-8.945,13.42-13.419c0.672-0.673,1.289-0.843,2.211-0.61
		c0.857,0.215,1.293,0.827,1.849,1.383c0.486,0.486,2.871,2.725,3.101,3.5c0.528,1.786-1.264,2.981-2.198,3.916
		c-1.118,1.117-2.237,2.236-3.355,3.354c-4.473,4.474-8.946,8.946-13.42,13.42c-0.559,0.559-1.118,1.118-1.677,1.677
		c-0.55,0.551-1.181,1.002-1.602,1.696c-0.505,0.833-0.518,1.481-0.045,2.333c0.398,0.717,1.032,1.16,1.582,1.709
		c2.237,2.236,4.473,4.475,6.71,6.711c4.473,4.473,8.946,8.945,13.419,13.42c0.673,0.672,0.843,1.289,0.611,2.211
		c-0.216,0.857-0.828,1.293-1.383,1.85c-0.486,0.486-2.725,2.871-3.5,3.1c-1.787,0.529-2.982-1.264-3.916-2.197
		c-1.118-1.119-2.236-2.238-3.355-3.355c-4.473-4.473-8.946-8.947-13.419-13.42c-0.559-0.559-1.119-1.119-1.678-1.678
		c-0.55-0.551-1.002-1.18-1.696-1.602c-0.833-0.504-1.481-0.518-2.333-0.045c-0.717,0.398-1.159,1.031-1.709,1.582
		c-2.237,2.236-4.473,4.473-6.71,6.709C148.893,294.688,144.419,299.16,139.946,303.633z"/>
	<path opacity="0.4" fill="#999999" d="M250.537,78.45c-0.672,0.674-1.289,0.844-2.211,0.611c-0.857-0.216-1.293-0.828-1.849-1.383
		c-0.486-0.486-2.871-2.725-3.1-3.5c-0.528-1.787,1.264-2.982,2.198-3.916c1.118-1.118,2.237-2.236,3.355-3.355
		c4.473-4.473,8.946-8.945,13.42-13.42c0.559-0.559,1.118-1.117,1.677-1.677c0.55-0.55,1.181-1.001,1.602-1.696
		c0.505-0.832,0.518-1.481,0.045-2.333c-0.398-0.717-1.032-1.159-1.582-1.709c-2.237-2.237-4.473-4.474-6.71-6.71
		c-4.473-4.473-8.946-8.946-13.419-13.42c-0.672-0.672-0.843-1.289-0.611-2.211c0.216-0.857,0.828-1.293,1.383-1.849
		c0.486-0.486,2.725-2.871,3.5-3.101c1.787-0.528,2.982,1.265,3.916,2.198c1.118,1.118,2.236,2.236,3.355,3.355
		c4.473,4.473,8.946,8.946,13.419,13.419c0.559,0.56,1.119,1.119,1.678,1.678c0.55,0.55,1.001,1.181,1.696,1.602
		c0.833,0.505,1.481,0.518,2.333,0.045c0.717-0.398,1.159-1.032,1.709-1.582c2.237-2.237,4.473-4.473,6.71-6.71
		c4.473-4.473,8.946-8.946,13.42-13.419c0.672-0.673,1.289-0.843,2.211-0.611c0.857,0.216,1.293,0.828,1.849,1.383
		c0.486,0.486,2.871,2.725,3.101,3.5c0.528,1.787-1.264,2.982-2.198,3.916c-1.118,1.118-2.237,2.237-3.355,3.355
		c-4.473,4.473-8.946,8.946-13.42,13.42c-0.559,0.559-1.118,1.118-1.677,1.677c-0.55,0.55-1.181,1.001-1.602,1.696
		c-0.505,0.833-0.518,1.481-0.045,2.333c0.398,0.718,1.032,1.16,1.582,1.709c2.237,2.237,4.473,4.475,6.71,6.711
		c4.473,4.473,8.946,8.945,13.419,13.42c0.673,0.672,0.843,1.289,0.611,2.211c-0.216,0.857-0.828,1.293-1.383,1.85
		c-0.486,0.486-2.725,2.871-3.5,3.1c-1.787,0.529-2.982-1.264-3.916-2.197c-1.118-1.119-2.236-2.237-3.355-3.355
		c-4.473-4.473-8.946-8.946-13.419-13.42c-0.559-0.559-1.119-1.118-1.678-1.678c-0.55-0.55-1.002-1.18-1.696-1.602
		c-0.833-0.504-1.481-0.518-2.333-0.045c-0.717,0.398-1.159,1.032-1.709,1.582c-2.237,2.236-4.473,4.473-6.71,6.71
		C259.484,69.504,255.011,73.977,250.537,78.45z"/>
	<path fill="#999999" d="M250.537,301.633c-0.672,0.674-1.289,0.844-2.211,0.611c-0.857-0.217-1.293-0.828-1.849-1.383
		c-0.486-0.486-2.871-2.725-3.1-3.5c-0.528-1.787,1.264-2.982,2.198-3.916c1.118-1.119,2.237-2.236,3.355-3.355
		c4.473-4.473,8.946-8.945,13.42-13.42c0.559-0.559,1.118-1.117,1.677-1.678c0.55-0.549,1.181-1,1.602-1.695
		c0.505-0.832,0.518-1.481,0.045-2.333c-0.398-0.718-1.032-1.159-1.582-1.709c-2.237-2.237-4.473-4.474-6.71-6.71
		c-4.473-4.473-8.946-8.946-13.419-13.42c-0.672-0.672-0.843-1.289-0.611-2.211c0.216-0.857,0.828-1.294,1.383-1.85
		c0.486-0.486,2.725-2.871,3.5-3.101c1.787-0.528,2.982,1.265,3.916,2.198c1.118,1.118,2.236,2.236,3.355,3.355
		c4.473,4.473,8.946,8.945,13.419,13.419c0.559,0.56,1.119,1.118,1.678,1.678c0.55,0.55,1.001,1.181,1.696,1.602
		c0.833,0.505,1.481,0.518,2.333,0.046c0.717-0.398,1.159-1.033,1.709-1.582c2.237-2.237,4.473-4.474,6.71-6.711
		c4.473-4.473,8.946-8.945,13.42-13.419c0.672-0.673,1.289-0.843,2.211-0.61c0.857,0.215,1.293,0.827,1.849,1.383
		c0.486,0.486,2.871,2.725,3.101,3.5c0.528,1.786-1.264,2.981-2.198,3.916c-1.118,1.117-2.237,2.236-3.355,3.354
		c-4.473,4.474-8.946,8.946-13.42,13.42c-0.559,0.559-1.118,1.118-1.677,1.677c-0.55,0.551-1.181,1.002-1.602,1.696
		c-0.505,0.833-0.518,1.481-0.045,2.333c0.398,0.717,1.032,1.16,1.582,1.709c2.237,2.236,4.473,4.475,6.71,6.711
		c4.473,4.473,8.946,8.945,13.419,13.42c0.673,0.672,0.843,1.289,0.611,2.211c-0.216,0.857-0.828,1.293-1.383,1.85
		c-0.486,0.486-2.725,2.871-3.5,3.1c-1.787,0.529-2.982-1.264-3.916-2.197c-1.118-1.119-2.236-2.238-3.355-3.355
		c-4.473-4.473-8.946-8.947-13.419-13.42c-0.559-0.559-1.119-1.119-1.678-1.678c-0.55-0.551-1.002-1.18-1.696-1.602
		c-0.833-0.504-1.481-0.518-2.333-0.045c-0.717,0.398-1.159,1.031-1.709,1.582c-2.237,2.236-4.473,4.473-6.71,6.709
		C259.484,292.688,255.011,297.16,250.537,301.633z"/>
</g>
<g id="O">
	<path opacity="0.4" fill="#999999" d="M192.135,48.909c0,16.691-13.531,30.223-30.223,30.223S131.689,65.6,131.689,48.909
		s13.531-30.223,30.223-30.223S192.135,32.217,192.135,48.909z M182.835,48.909c0-11.556-9.368-20.923-20.923-20.923
		s-20.923,9.368-20.923,20.923s9.368,20.923,20.923,20.923S182.835,60.464,182.835,48.909z"/>
	<path opacity="0.4" fill="#999999" d="M304.726,160.5c0,16.691-13.531,30.223-30.223,30.223s-30.223-13.531-30.223-30.223
		s13.531-30.223,30.223-30.223S304.726,143.809,304.726,160.5z M295.427,160.5c0-11.556-9.368-20.923-20.923-20.923
		s-20.923,9.368-20.923,20.923s9.368,20.924,20.923,20.924S295.427,172.056,295.427,160.5z"/>
	<path opacity="0.4" fill="#999999" d="M81.543,274.091c0,16.691-13.531,30.223-30.223,30.223s-30.223-13.531-30.223-30.223
		s13.531-30.223,30.223-30.223S81.543,257.399,81.543,274.091z M72.244,274.091c0-11.556-9.368-20.923-20.923-20.923
		s-20.923,9.367-20.923,20.923s9.368,20.924,20.923,20.924S72.244,285.646,72.244,274.091z"/>
	<path opacity="0.4" fill="#999999" d="M81.543,162.5c0,16.691-13.531,30.223-30.223,30.223S21.098,179.191,21.098,162.5
		s13.531-30.223,30.223-30.223S81.543,145.809,81.543,162.5z M72.244,162.5c0-11.556-9.368-20.923-20.923-20.923
		s-20.923,9.368-20.923,20.923s9.368,20.924,20.923,20.924S72.244,174.056,72.244,162.5z"/>
</g>
</svg>
